  0
SECTION
  2
HEADER
  9
$MEASUREMENT
  70
  1
  9
$INSUNITS
  70
  4
  0
ENDSEC
  0
SECTION
  2
TABLES
  0
TABLE
  2
LTYPE
 70
     1
  0
LTYPE
  2
CONTINUOUS
 70
    64
  3
Ausgezogene Linie
 72
    65
 73
     0
 40
0.0
  0
ENDTAB
  0
TABLE
  2
LAYER
 70
     3
  0
LAYER
  2
Contour
 70
    64
 62
     7
  6
CONTINUOUS
  0
LAYER
  2
Engraving
 70
    64
 62
     7
  6
CONTINUOUS
  0
LAYER
  2
Reference_points
 70
    64
 62
     1
  6
CONTINUOUS
  0
ENDTAB
  0
TABLE
  2
STYLE
 70
     1
  0
STYLE
  2
TXT
 70
    64
 40
0.0
 41
1.0
 50
0.0
 71
     0
 42
3.500000
  3
TXT
  0
ENDTAB
  0
ENDSEC
  0
SECTION
  2
BLOCKS
  0
ENDSEC
  0
SECTION
  2
ENTITIES
  0
LINE
  8
Contour
 62
   7
 39
0.100
  6
CONTINUOUS
 10
70.78000
 20
128.40000
 30
 0
 11
70.78000
 21
0.00000
  0
LINE
  8
Contour
 62
   7
 39
0.100
  6
CONTINUOUS
 10
70.78000
 20
0.00000
 30
 0
 11
0.00000
 21
0.00000
  0
LINE
  8
Contour
 62
   7
 39
0.100
  6
CONTINUOUS
 10
0.00000
 20
0.00000
 30
 0
 11
0.00000
 21
128.40000
  0
LINE
  8
Contour
 62
   7
 39
0.100
  6
CONTINUOUS
 10
0.00000
 20
128.40000
 30
 0
 11
70.78000
 21
128.40000
  0
LINE
  8
Engraving
 62
   7
 39
0.400
  6
CONTINUOUS
 10
20.50573
 20
40.94844
 30
 0
 11
21.07529
 21
41.51800
  0
LINE
  8
Engraving
 62
   7
 39
0.400
  6
CONTINUOUS
 10
21.07529
 20
41.51800
 30
 0
 11
21.07529
 21
38.95500
  0
LINE
  8
Engraving
 62
   7
 39
0.400
  6
CONTINUOUS
 10
33.44721
 20
41.26170
 30
 0
 11
33.61808
 21
41.40409
  0
ARC
  8
Engraving
 62
   7
 39
0.400
  6
CONTINUOUS
 10
34.07978
 20
40.86906
 30
 0
 40
0.70669
 50
-40.79241
 51
130.79241
  0
LINE
  8
Engraving
 62
   7
 39
0.400
  6
CONTINUOUS
 10
34.61480
 20
40.40737
 30
 0
 11
33.41873
 21
38.95500
  0
LINE
  8
Engraving
 62
   7
 39
0.400
  6
CONTINUOUS
 10
33.41873
 20
38.95500
 30
 0
 11
34.84262
 21
38.95500
  0
ARC
  8
Engraving
 62
   7
 39
0.400
  6
CONTINUOUS
 10
47.47309
 20
40.82720
 30
 0
 40
0.74777
 50
90.37438
 51
157.00576
  0
ARC
  8
Engraving
 62
   7
 39
0.400
  6
CONTINUOUS
 10
47.46820
 20
40.90573
 30
 0
 40
0.66923
 50
-90.00000
 51
90.00000
  0
ARC
  8
Engraving
 62
   7
 39
0.400
  6
CONTINUOUS
 10
47.46820
 20
39.56727
 30
 0
 40
0.66923
 50
-90.00000
 51
90.00000
  0
ARC
  8
Engraving
 62
   7
 39
0.400
  6
CONTINUOUS
 10
47.47209
 20
39.68988
 30
 0
 40
0.79185
 50
209.76844
 51
269.71869
  0
LINE
  8
Engraving
 62
   7
 39
0.400
  6
CONTINUOUS
 10
60.95307
 20
41.51800
 30
 0
 11
60.09873
 21
39.38217
  0
LINE
  8
Engraving
 62
   7
 39
0.400
  6
CONTINUOUS
 10
60.09873
 20
39.38217
 30
 0
 11
61.52262
 21
39.38217
  0
LINE
  8
Engraving
 62
   7
 39
0.400
  6
CONTINUOUS
 10
61.52262
 20
39.38217
 30
 0
 11
61.23784
 21
39.38217
  0
LINE
  8
Engraving
 62
   7
 39
0.400
  6
CONTINUOUS
 10
61.23784
 20
39.38217
 30
 0
 11
61.23784
 21
39.80933
  0
LINE
  8
Engraving
 62
   7
 39
0.400
  6
CONTINUOUS
 10
61.23784
 20
39.80933
 30
 0
 11
61.23784
 21
38.95500
  0
LINE
  8
Engraving
 62
   7
 39
0.200
  6
CONTINUOUS
 10
1.74867
 20
110.08056
 30
 0
 11
2.25311
 21
110.58500
  0
LINE
  8
Engraving
 62
   7
 39
0.200
  6
CONTINUOUS
 10
2.25311
 20
110.58500
 30
 0
 11
2.25311
 21
108.31500
  0
LINE
  8
Engraving
 62
   7
 39
0.200
  6
CONTINUOUS
 10
1.39589
 20
95.11800
 30
 0
 11
1.54722
 21
95.24411
  0
ARC
  8
Engraving
 62
   7
 39
0.200
  6
CONTINUOUS
 10
1.95614
 20
94.77025
 30
 0
 40
0.62591
 50
-40.79241
 51
130.79241
  0
LINE
  8
Engraving
 62
   7
 39
0.200
  6
CONTINUOUS
 10
2.43000
 20
94.36133
 30
 0
 11
1.37067
 21
93.07500
  0
LINE
  8
Engraving
 62
   7
 39
0.200
  6
CONTINUOUS
 10
1.37067
 20
93.07500
 30
 0
 11
2.63178
 21
93.07500
  0
ARC
  8
Engraving
 62
   7
 39
0.200
  6
CONTINUOUS
 10
2.02533
 20
79.49318
 30
 0
 40
0.66228
 50
90.37438
 51
157.00576
  0
ARC
  8
Engraving
 62
   7
 39
0.200
  6
CONTINUOUS
 10
2.02100
 20
79.56272
 30
 0
 40
0.59272
 50
-90.00000
 51
90.00000
  0
ARC
  8
Engraving
 62
   7
 39
0.200
  6
CONTINUOUS
 10
2.02100
 20
78.37728
 30
 0
 40
0.59272
 50
-90.00000
 51
90.00000
  0
ARC
  8
Engraving
 62
   7
 39
0.200
  6
CONTINUOUS
 10
2.02444
 20
78.48587
 30
 0
 40
0.70132
 50
209.76844
 51
269.71869
  0
LINE
  8
Engraving
 62
   7
 39
0.200
  6
CONTINUOUS
 10
2.12733
 20
64.86500
 30
 0
 11
1.37067
 21
62.97333
  0
LINE
  8
Engraving
 62
   7
 39
0.200
  6
CONTINUOUS
 10
1.37067
 20
62.97333
 30
 0
 11
2.63178
 21
62.97333
  0
LINE
  8
Engraving
 62
   7
 39
0.200
  6
CONTINUOUS
 10
2.63178
 20
62.97333
 30
 0
 11
2.37956
 21
62.97333
  0
LINE
  8
Engraving
 62
   7
 39
0.200
  6
CONTINUOUS
 10
2.37956
 20
62.97333
 30
 0
 11
2.37956
 21
63.35167
  0
LINE
  8
Engraving
 62
   7
 39
0.200
  6
CONTINUOUS
 10
2.37956
 20
63.35167
 30
 0
 11
2.37956
 21
62.59500
  0
LINE
  8
Engraving
 62
   7
 39
0.600
  6
CONTINUOUS
 10
60.81067
 20
103.96661
 30
 0
 11
60.81067
 21
99.69439
  0
LINE
  8
Engraving
 62
   7
 39
0.600
  6
CONTINUOUS
 10
60.81067
 20
88.72661
 30
 0
 11
60.81067
 21
84.45439
  0
LINE
  8
Engraving
 62
   7
 39
0.600
  6
CONTINUOUS
 10
60.81067
 20
73.48661
 30
 0
 11
60.81067
 21
69.21439
  0
LINE
  8
Engraving
 62
   7
 39
0.600
  6
CONTINUOUS
 10
47.46067
 20
103.96661
 30
 0
 11
47.46067
 21
99.69439
  0
LINE
  8
Engraving
 62
   7
 39
0.600
  6
CONTINUOUS
 10
47.46067
 20
88.72661
 30
 0
 11
47.46067
 21
84.45439
  0
LINE
  8
Engraving
 62
   7
 39
0.600
  6
CONTINUOUS
 10
47.46067
 20
73.48661
 30
 0
 11
47.46067
 21
69.21439
  0
LINE
  8
Engraving
 62
   7
 39
0.600
  6
CONTINUOUS
 10
34.13067
 20
103.96661
 30
 0
 11
34.13067
 21
99.69439
  0
LINE
  8
Engraving
 62
   7
 39
0.600
  6
CONTINUOUS
 10
34.13067
 20
88.72661
 30
 0
 11
34.13067
 21
84.45439
  0
LINE
  8
Engraving
 62
   7
 39
0.600
  6
CONTINUOUS
 10
34.13067
 20
73.48661
 30
 0
 11
34.13067
 21
69.21439
  0
LINE
  8
Engraving
 62
   7
 39
0.600
  6
CONTINUOUS
 10
20.79067
 20
73.48661
 30
 0
 11
20.79067
 21
69.21439
  0
LINE
  8
Engraving
 62
   7
 39
0.600
  6
CONTINUOUS
 10
20.79067
 20
88.72661
 30
 0
 11
20.79067
 21
84.45439
  0
LINE
  8
Engraving
 62
   7
 39
0.600
  6
CONTINUOUS
 10
20.79067
 20
103.96661
 30
 0
 11
20.79067
 21
99.69439
  0
LINE
  8
Engraving
 62
   7
 39
0.400
  6
CONTINUOUS
 10
5.50080
 20
48.49050
 30
 0
 11
6.12731
 21
48.49050
  0
LINE
  8
Engraving
 62
   7
 39
0.400
  6
CONTINUOUS
 10
6.12731
 20
48.49050
 30
 0
 11
6.12731
 21
48.06333
  0
ARC
  8
Engraving
 62
   7
 39
0.400
  6
CONTINUOUS
 10
5.21602
 20
48.06333
 30
 0
 40
0.91129
 50
-180.00000
 51
0.00000
  0
LINE
  8
Engraving
 62
   7
 39
0.400
  6
CONTINUOUS
 10
4.30473
 20
48.06333
 30
 0
 11
4.30473
 21
48.91767
  0
ARC
  8
Engraving
 62
   7
 39
0.400
  6
CONTINUOUS
 10
5.18237
 20
48.93836
 30
 0
 40
0.87788
 50
31.86328
 51
181.35068
  0
LINE
  8
Engraving
 62
   7
 39
0.400
  6
CONTINUOUS
 10
7.09651
 20
47.92094
 30
 0
 11
8.52040
 21
47.92094
  0
LINE
  8
Engraving
 62
   7
 39
0.400
  6
CONTINUOUS
 10
6.81173
 20
47.20900
 30
 0
 11
7.80846
 21
49.77200
  0
LINE
  8
Engraving
 62
   7
 39
0.400
  6
CONTINUOUS
 10
7.80846
 20
49.77200
 30
 0
 11
8.80518
 21
47.20900
  0
LINE
  8
Engraving
 62
   7
 39
0.400
  6
CONTINUOUS
 10
9.48773
 20
49.77200
 30
 0
 11
9.48773
 21
47.20900
  0
LINE
  8
Engraving
 62
   7
 39
0.400
  6
CONTINUOUS
 10
10.17073
 20
47.20900
 30
 0
 11
10.17073
 21
49.77200
  0
LINE
  8
Engraving
 62
   7
 39
0.400
  6
CONTINUOUS
 10
10.17073
 20
49.77200
 30
 0
 11
11.87940
 21
47.20900
  0
LINE
  8
Engraving
 62
   7
 39
0.400
  6
CONTINUOUS
 10
11.87940
 20
47.20900
 30
 0
 11
11.87940
 21
49.77200
  0
LINE
  8
Engraving
 62
   7
 39
0.400
  6
CONTINUOUS
 10
6.62873
 20
119.28200
 30
 0
 11
6.62873
 21
116.71900
  0
LINE
  8
Engraving
 62
   7
 39
0.400
  6
CONTINUOUS
 10
7.31273
 20
116.71900
 30
 0
 11
7.31273
 21
119.28200
  0
LINE
  8
Engraving
 62
   7
 39
0.400
  6
CONTINUOUS
 10
7.31273
 20
119.28200
 30
 0
 11
9.02140
 21
116.71900
  0
LINE
  8
Engraving
 62
   7
 39
0.400
  6
CONTINUOUS
 10
9.02140
 20
116.71900
 30
 0
 11
9.02140
 21
119.28200
  0
ARC
  8
Engraving
 62
   7
 39
0.400
  6
CONTINUOUS
 10
5.69902
 20
31.55333
 30
 0
 40
0.91129
 50
180.00000
 51
360.00000
  0
LINE
  8
Engraving
 62
   7
 39
0.400
  6
CONTINUOUS
 10
6.61031
 20
31.55333
 30
 0
 11
6.61031
 21
32.40767
  0
ARC
  8
Engraving
 62
   7
 39
0.400
  6
CONTINUOUS
 10
5.69902
 20
32.40767
 30
 0
 40
0.91129
 50
0.00000
 51
180.00000
  0
LINE
  8
Engraving
 62
   7
 39
0.400
  6
CONTINUOUS
 10
4.78773
 20
32.40767
 30
 0
 11
4.78773
 21
31.55333
  0
LINE
  8
Engraving
 62
   7
 39
0.400
  6
CONTINUOUS
 10
7.29473
 20
33.26200
 30
 0
 11
7.29473
 21
31.49638
  0
ARC
  8
Engraving
 62
   7
 39
0.400
  6
CONTINUOUS
 10
8.14907
 20
31.49638
 30
 0
 40
0.85433
 50
180.00000
 51
360.00000
  0
LINE
  8
Engraving
 62
   7
 39
0.400
  6
CONTINUOUS
 10
9.00340
 20
31.49638
 30
 0
 11
9.00340
 21
33.26200
  0
LINE
  8
Engraving
 62
   7
 39
0.400
  6
CONTINUOUS
 10
9.68673
 20
33.26200
 30
 0
 11
11.39540
 21
33.26200
  0
LINE
  8
Engraving
 62
   7
 39
0.400
  6
CONTINUOUS
 10
11.39540
 20
33.26200
 30
 0
 11
10.54107
 21
33.26200
  0
LINE
  8
Engraving
 62
   7
 39
0.400
  6
CONTINUOUS
 10
10.54107
 20
33.26200
 30
 0
 11
10.54107
 21
30.69900
  0
LINE
  8
Engraving
 62
   7
 39
0.400
  6
CONTINUOUS
 10
21.05551
 20
124.43094
 30
 0
 11
22.47940
 21
124.43094
  0
LINE
  8
Engraving
 62
   7
 39
0.400
  6
CONTINUOUS
 10
20.77073
 20
123.71900
 30
 0
 11
21.76746
 21
126.28200
  0
LINE
  8
Engraving
 62
   7
 39
0.400
  6
CONTINUOUS
 10
21.76746
 20
126.28200
 30
 0
 11
22.76418
 21
123.71900
  0
ARC
  8
Engraving
 62
   7
 39
0.400
  6
CONTINUOUS
 10
24.15377
 20
124.72061
 30
 0
 40
0.70606
 50
42.74595
 51
180.39666
  0
LINE
  8
Engraving
 62
   7
 39
0.400
  6
CONTINUOUS
 10
23.44773
 20
124.71572
 30
 0
 11
23.44773
 21
124.43094
  0
ARC
  8
Engraving
 62
   7
 39
0.400
  6
CONTINUOUS
 10
24.15520
 20
124.43153
 30
 0
 40
0.70747
 50
180.04758
 51
328.39092
  0
LINE
  8
Engraving
 62
   7
 39
0.400
  6
CONTINUOUS
 10
25.69803
 20
126.28200
 30
 0
 11
25.69803
 21
125.42767
  0
LINE
  8
Engraving
 62
   7
 39
0.400
  6
CONTINUOUS
 10
25.69803
 20
125.42767
 30
 0
 11
26.12520
 21
125.42767
  0
LINE
  8
Engraving
 62
   7
 39
0.400
  6
CONTINUOUS
 10
26.12520
 20
125.42767
 30
 0
 11
25.41326
 21
125.42767
  0
LINE
  8
Engraving
 62
   7
 39
0.400
  6
CONTINUOUS
 10
25.41326
 20
125.42767
 30
 0
 11
25.69803
 21
125.42767
  0
LINE
  8
Engraving
 62
   7
 39
0.400
  6
CONTINUOUS
 10
25.69803
 20
125.42767
 30
 0
 11
25.69803
 21
124.06073
  0
ARC
  8
Engraving
 62
   7
 39
0.400
  6
CONTINUOUS
 10
26.04535
 20
124.06064
 30
 0
 40
0.34731
 50
179.98432
 51
259.62682
  0
LINE
  8
Engraving
 62
   7
 39
0.400
  6
CONTINUOUS
 10
26.80873
 20
126.28200
 30
 0
 11
26.80873
 21
126.13961
  0
LINE
  8
Engraving
 62
   7
 39
0.400
  6
CONTINUOUS
 10
26.80873
 20
125.42767
 30
 0
 11
26.80873
 21
123.71900
  0
LINE
  8
Engraving
 62
   7
 39
0.400
  6
CONTINUOUS
 10
27.49273
 20
125.42767
 30
 0
 11
28.20468
 21
123.71900
  0
LINE
  8
Engraving
 62
   7
 39
0.400
  6
CONTINUOUS
 10
28.20468
 20
123.71900
 30
 0
 11
28.91662
 21
125.42767
  0
LINE
  8
Engraving
 62
   7
 39
0.400
  6
CONTINUOUS
 10
29.60073
 20
124.57333
 30
 0
 11
31.02462
 21
124.57333
  0
LINE
  8
Engraving
 62
   7
 39
0.400
  6
CONTINUOUS
 10
31.02462
 20
124.57333
 30
 0
 11
31.02462
 21
124.71572
  0
ARC
  8
Engraving
 62
   7
 39
0.400
  6
CONTINUOUS
 10
30.31268
 20
124.71572
 30
 0
 40
0.71194
 50
0.00000
 51
180.00000
  0
LINE
  8
Engraving
 62
   7
 39
0.400
  6
CONTINUOUS
 10
29.60073
 20
124.71572
 30
 0
 11
29.60073
 21
124.43094
  0
ARC
  8
Engraving
 62
   7
 39
0.400
  6
CONTINUOUS
 10
30.34731
 20
124.43035
 30
 0
 40
0.74658
 50
179.95424
 51
322.44599
  0
LINE
  8
Engraving
 62
   7
 39
0.400
  6
CONTINUOUS
 10
31.70873
 20
123.72000
 30
 0
 11
31.70873
 21
126.28300
  0
LINE
  8
Engraving
 62
   7
 39
0.400
  6
CONTINUOUS
 10
31.70873
 20
126.28300
 30
 0
 11
32.70546
 21
124.43194
  0
LINE
  8
Engraving
 62
   7
 39
0.400
  6
CONTINUOUS
 10
32.70546
 20
124.43194
 30
 0
 11
33.70218
 21
126.28300
  0
LINE
  8
Engraving
 62
   7
 39
0.400
  6
CONTINUOUS
 10
33.70218
 20
126.28300
 30
 0
 11
33.70218
 21
123.72000
  0
LINE
  8
Engraving
 62
   7
 39
0.400
  6
CONTINUOUS
 10
35.86658
 20
125.42867
 30
 0
 11
35.86658
 21
124.43194
  0
ARC
  8
Engraving
 62
   7
 39
0.400
  6
CONTINUOUS
 10
35.12616
 20
124.43194
 30
 0
 40
0.74042
 50
-180.00000
 51
0.00000
  0
LINE
  8
Engraving
 62
   7
 39
0.400
  6
CONTINUOUS
 10
34.38573
 20
124.43194
 30
 0
 11
34.38573
 21
124.71672
  0
ARC
  8
Engraving
 62
   7
 39
0.400
  6
CONTINUOUS
 10
35.12616
 20
124.71672
 30
 0
 40
0.74042
 50
0.00000
 51
180.00000
  0
LINE
  8
Engraving
 62
   7
 39
0.400
  6
CONTINUOUS
 10
35.86658
 20
124.71672
 30
 0
 11
35.86658
 21
124.03326
  0
ARC
  8
Engraving
 62
   7
 39
0.400
  6
CONTINUOUS
 10
36.27946
 20
124.07155
 30
 0
 40
0.41466
 50
185.29897
 51
260.11981
  0
LINE
  8
Engraving
 62
   7
 39
0.400
  6
CONTINUOUS
 10
37.14803
 20
126.28400
 30
 0
 11
37.14803
 21
125.42967
  0
LINE
  8
Engraving
 62
   7
 39
0.400
  6
CONTINUOUS
 10
37.14803
 20
125.42967
 30
 0
 11
37.57520
 21
125.42967
  0
LINE
  8
Engraving
 62
   7
 39
0.400
  6
CONTINUOUS
 10
37.57520
 20
125.42967
 30
 0
 11
36.86326
 21
125.42967
  0
LINE
  8
Engraving
 62
   7
 39
0.400
  6
CONTINUOUS
 10
36.86326
 20
125.42967
 30
 0
 11
37.14803
 21
125.42967
  0
LINE
  8
Engraving
 62
   7
 39
0.400
  6
CONTINUOUS
 10
37.14803
 20
125.42967
 30
 0
 11
37.14803
 21
124.06273
  0
ARC
  8
Engraving
 62
   7
 39
0.400
  6
CONTINUOUS
 10
37.49535
 20
124.06264
 30
 0
 40
0.34731
 50
179.98432
 51
259.62682
  0
LINE
  8
Engraving
 62
   7
 39
0.400
  6
CONTINUOUS
 10
38.25773
 20
123.72100
 30
 0
 11
38.25773
 21
125.42967
  0
LINE
  8
Engraving
 62
   7
 39
0.400
  6
CONTINUOUS
 10
38.25773
 20
125.42967
 30
 0
 11
38.25773
 21
124.86011
  0
ARC
  8
Engraving
 62
   7
 39
0.400
  6
CONTINUOUS
 10
38.88704
 20
124.86013
 30
 0
 40
0.62931
 50
140.69073
 51
180.00162
  0
ARC
  8
Engraving
 62
   7
 39
0.400
  6
CONTINUOUS
 10
38.71338
 20
125.00127
 30
 0
 40
0.40553
 50
39.42406
 51
140.57594
  0
LINE
  8
Engraving
 62
   7
 39
0.400
  6
CONTINUOUS
 10
39.68073
 20
126.28400
 30
 0
 11
39.68073
 21
126.14161
  0
LINE
  8
Engraving
 62
   7
 39
0.400
  6
CONTINUOUS
 10
39.68073
 20
125.42967
 30
 0
 11
39.68073
 21
123.72100
  0
LINE
  8
Engraving
 62
   7
 39
0.400
  6
CONTINUOUS
 10
40.36373
 20
125.42967
 30
 0
 11
41.78762
 21
123.72100
  0
LINE
  8
Engraving
 62
   7
 39
0.400
  6
CONTINUOUS
 10
40.36373
 20
123.72100
 30
 0
 11
41.78762
 21
125.42967
  0
LINE
  8
Engraving
 62
   7
 39
0.400
  6
CONTINUOUS
 10
45.14707
 20
126.28400
 30
 0
 11
44.29273
 21
124.14817
  0
LINE
  8
Engraving
 62
   7
 39
0.400
  6
CONTINUOUS
 10
44.29273
 20
124.14817
 30
 0
 11
45.71662
 21
124.14817
  0
LINE
  8
Engraving
 62
   7
 39
0.400
  6
CONTINUOUS
 10
45.71662
 20
124.14817
 30
 0
 11
45.43184
 21
124.14817
  0
LINE
  8
Engraving
 62
   7
 39
0.400
  6
CONTINUOUS
 10
45.43184
 20
124.14817
 30
 0
 11
45.43184
 21
124.57533
  0
LINE
  8
Engraving
 62
   7
 39
0.400
  6
CONTINUOUS
 10
45.43184
 20
124.57533
 30
 0
 11
45.43184
 21
123.72100
  0
LINE
  8
Engraving
 62
   7
 39
0.400
  6
CONTINUOUS
 10
46.39973
 20
125.42967
 30
 0
 11
47.82362
 21
123.72100
  0
LINE
  8
Engraving
 62
   7
 39
0.400
  6
CONTINUOUS
 10
46.39973
 20
123.72100
 30
 0
 11
47.82362
 21
125.42967
  0
LINE
  8
Engraving
 62
   7
 39
0.400
  6
CONTINUOUS
 10
49.36107
 20
126.28400
 30
 0
 11
48.50673
 21
124.14817
  0
LINE
  8
Engraving
 62
   7
 39
0.400
  6
CONTINUOUS
 10
48.50673
 20
124.14817
 30
 0
 11
49.93062
 21
124.14817
  0
LINE
  8
Engraving
 62
   7
 39
0.400
  6
CONTINUOUS
 10
49.93062
 20
124.14817
 30
 0
 11
49.64584
 21
124.14817
  0
LINE
  8
Engraving
 62
   7
 39
0.400
  6
CONTINUOUS
 10
49.64584
 20
124.14817
 30
 0
 11
49.64584
 21
124.57533
  0
LINE
  8
Engraving
 62
   7
 39
0.400
  6
CONTINUOUS
 10
49.64584
 20
124.57533
 30
 0
 11
49.64584
 21
123.72100
  0
LINE
  8
Engraving
 62
   7
 39
0.400
  6
CONTINUOUS
 10
27.69239
 20
4.28200
 30
 0
 11
26.96587
 21
2.92987
  0
LINE
  8
Engraving
 62
   7
 39
0.400
  6
CONTINUOUS
 10
26.96587
 20
2.92987
 30
 0
 11
26.23935
 21
4.28200
  0
LINE
  8
Engraving
 62
   7
 39
0.400
  6
CONTINUOUS
 10
26.96587
 20
2.92987
 30
 0
 11
26.96587
 21
1.71900
  0
LINE
  8
Engraving
 62
   7
 39
0.400
  6
CONTINUOUS
 10
28.19717
 20
2.62715
 30
 0
 11
28.19717
 21
2.14280
  0
LINE
  8
Engraving
 62
   7
 39
0.400
  6
CONTINUOUS
 10
28.19717
 20
2.14280
 30
 0
 11
28.23754
 21
1.96117
  0
LINE
  8
Engraving
 62
   7
 39
0.400
  6
CONTINUOUS
 10
28.23754
 20
1.96117
 30
 0
 11
28.33844
 21
1.81991
  0
LINE
  8
Engraving
 62
   7
 39
0.400
  6
CONTINUOUS
 10
28.33844
 20
1.81991
 30
 0
 11
28.52007
 21
1.71900
  0
LINE
  8
Engraving
 62
   7
 39
0.400
  6
CONTINUOUS
 10
28.52007
 20
1.71900
 30
 0
 11
28.66134
 21
1.69882
  0
LINE
  8
Engraving
 62
   7
 39
0.400
  6
CONTINUOUS
 10
28.66134
 20
1.69882
 30
 0
 11
28.84297
 21
1.69882
  0
LINE
  8
Engraving
 62
   7
 39
0.400
  6
CONTINUOUS
 10
28.84297
 20
1.69882
 30
 0
 11
29.00442
 21
1.73918
  0
LINE
  8
Engraving
 62
   7
 39
0.400
  6
CONTINUOUS
 10
29.00442
 20
1.73918
 30
 0
 11
29.12550
 21
1.84009
  0
LINE
  8
Engraving
 62
   7
 39
0.400
  6
CONTINUOUS
 10
29.12550
 20
1.84009
 30
 0
 11
29.22641
 21
2.00154
  0
LINE
  8
Engraving
 62
   7
 39
0.400
  6
CONTINUOUS
 10
29.22641
 20
2.00154
 30
 0
 11
29.26677
 21
2.14280
  0
LINE
  8
Engraving
 62
   7
 39
0.400
  6
CONTINUOUS
 10
29.26677
 20
2.14280
 30
 0
 11
29.26677
 21
3.07113
  0
LINE
  8
Engraving
 62
   7
 39
0.400
  6
CONTINUOUS
 10
29.26677
 20
3.07113
 30
 0
 11
29.20623
 21
3.29313
  0
LINE
  8
Engraving
 62
   7
 39
0.400
  6
CONTINUOUS
 10
29.20623
 20
3.29313
 30
 0
 11
29.10532
 21
3.41421
  0
LINE
  8
Engraving
 62
   7
 39
0.400
  6
CONTINUOUS
 10
29.10532
 20
3.41421
 30
 0
 11
28.96406
 21
3.51512
  0
LINE
  8
Engraving
 62
   7
 39
0.400
  6
CONTINUOUS
 10
28.96406
 20
3.51512
 30
 0
 11
28.80261
 21
3.53530
  0
LINE
  8
Engraving
 62
   7
 39
0.400
  6
CONTINUOUS
 10
28.80261
 20
3.53530
 30
 0
 11
28.66134
 21
3.53530
  0
LINE
  8
Engraving
 62
   7
 39
0.400
  6
CONTINUOUS
 10
28.66134
 20
3.53530
 30
 0
 11
28.45953
 21
3.49494
  0
LINE
  8
Engraving
 62
   7
 39
0.400
  6
CONTINUOUS
 10
28.45953
 20
3.49494
 30
 0
 11
28.31826
 21
3.39403
  0
LINE
  8
Engraving
 62
   7
 39
0.400
  6
CONTINUOUS
 10
28.31826
 20
3.39403
 30
 0
 11
28.23754
 21
3.27294
  0
LINE
  8
Engraving
 62
   7
 39
0.400
  6
CONTINUOUS
 10
28.23754
 20
3.27294
 30
 0
 11
28.19717
 21
3.07113
  0
LINE
  8
Engraving
 62
   7
 39
0.400
  6
CONTINUOUS
 10
28.19717
 20
3.07113
 30
 0
 11
28.19717
 21
2.62715
  0
LINE
  8
Engraving
 62
   7
 39
0.400
  6
CONTINUOUS
 10
29.79235
 20
1.71900
 30
 0
 11
29.79235
 21
3.51512
  0
LINE
  8
Engraving
 62
   7
 39
0.400
  6
CONTINUOUS
 10
29.79235
 20
3.51512
 30
 0
 11
29.79235
 21
3.35367
  0
LINE
  8
Engraving
 62
   7
 39
0.400
  6
CONTINUOUS
 10
29.79235
 20
3.35367
 30
 0
 11
30.01435
 21
3.45457
  0
LINE
  8
Engraving
 62
   7
 39
0.400
  6
CONTINUOUS
 10
30.01435
 20
3.45457
 30
 0
 11
30.15561
 21
3.51512
  0
LINE
  8
Engraving
 62
   7
 39
0.400
  6
CONTINUOUS
 10
30.15561
 20
3.51512
 30
 0
 11
30.33724
 21
3.53530
  0
LINE
  8
Engraving
 62
   7
 39
0.400
  6
CONTINUOUS
 10
30.33724
 20
3.53530
 30
 0
 11
30.49869
 21
3.53530
  0
LINE
  8
Engraving
 62
   7
 39
0.400
  6
CONTINUOUS
 10
30.98317
 20
4.28200
 30
 0
 11
30.98317
 21
1.71900
  0
LINE
  8
Engraving
 62
   7
 39
0.400
  6
CONTINUOUS
 10
32.11331
 20
3.51512
 30
 0
 11
30.98317
 21
2.72806
  0
LINE
  8
Engraving
 62
   7
 39
0.400
  6
CONTINUOUS
 10
30.98317
 20
2.72806
 30
 0
 11
31.24553
 21
2.90969
  0
LINE
  8
Engraving
 62
   7
 39
0.400
  6
CONTINUOUS
 10
31.24553
 20
2.90969
 30
 0
 11
32.13350
 21
1.71900
  0
LINE
  8
Engraving
 62
   7
 39
0.400
  6
CONTINUOUS
 10
34.65717
 20
1.71900
 30
 0
 11
34.65717
 21
4.28200
  0
LINE
  8
Engraving
 62
   7
 39
0.400
  6
CONTINUOUS
 10
34.65717
 20
4.28200
 30
 0
 11
34.83880
 21
4.28200
  0
LINE
  8
Engraving
 62
   7
 39
0.400
  6
CONTINUOUS
 10
34.83880
 20
4.28200
 30
 0
 11
35.58550
 21
1.71900
  0
LINE
  8
Engraving
 62
   7
 39
0.400
  6
CONTINUOUS
 10
35.58550
 20
1.71900
 30
 0
 11
36.31202
 21
4.28200
  0
LINE
  8
Engraving
 62
   7
 39
0.400
  6
CONTINUOUS
 10
36.31202
 20
4.28200
 30
 0
 11
36.49365
 21
4.28200
  0
LINE
  8
Engraving
 62
   7
 39
0.400
  6
CONTINUOUS
 10
36.49365
 20
4.28200
 30
 0
 11
36.49365
 21
1.71900
  0
LINE
  8
Engraving
 62
   7
 39
0.400
  6
CONTINUOUS
 10
36.99817
 20
2.62715
 30
 0
 11
36.99817
 21
2.14280
  0
LINE
  8
Engraving
 62
   7
 39
0.400
  6
CONTINUOUS
 10
36.99817
 20
2.14280
 30
 0
 11
37.03854
 21
1.96117
  0
LINE
  8
Engraving
 62
   7
 39
0.400
  6
CONTINUOUS
 10
37.03854
 20
1.96117
 30
 0
 11
37.13944
 21
1.81991
  0
LINE
  8
Engraving
 62
   7
 39
0.400
  6
CONTINUOUS
 10
37.13944
 20
1.81991
 30
 0
 11
37.32107
 21
1.71900
  0
LINE
  8
Engraving
 62
   7
 39
0.400
  6
CONTINUOUS
 10
37.32107
 20
1.71900
 30
 0
 11
37.46234
 21
1.69882
  0
LINE
  8
Engraving
 62
   7
 39
0.400
  6
CONTINUOUS
 10
37.46234
 20
1.69882
 30
 0
 11
37.64397
 21
1.69882
  0
LINE
  8
Engraving
 62
   7
 39
0.400
  6
CONTINUOUS
 10
37.64397
 20
1.69882
 30
 0
 11
37.80542
 21
1.73918
  0
LINE
  8
Engraving
 62
   7
 39
0.400
  6
CONTINUOUS
 10
37.80542
 20
1.73918
 30
 0
 11
37.92650
 21
1.84009
  0
LINE
  8
Engraving
 62
   7
 39
0.400
  6
CONTINUOUS
 10
37.92650
 20
1.84009
 30
 0
 11
38.02741
 21
2.00154
  0
LINE
  8
Engraving
 62
   7
 39
0.400
  6
CONTINUOUS
 10
38.02741
 20
2.00154
 30
 0
 11
38.06777
 21
2.14280
  0
LINE
  8
Engraving
 62
   7
 39
0.400
  6
CONTINUOUS
 10
38.06777
 20
2.14280
 30
 0
 11
38.06777
 21
3.07113
  0
LINE
  8
Engraving
 62
   7
 39
0.400
  6
CONTINUOUS
 10
38.06777
 20
3.07113
 30
 0
 11
38.00723
 21
3.29313
  0
LINE
  8
Engraving
 62
   7
 39
0.400
  6
CONTINUOUS
 10
38.00723
 20
3.29313
 30
 0
 11
37.90632
 21
3.41421
  0
LINE
  8
Engraving
 62
   7
 39
0.400
  6
CONTINUOUS
 10
37.90632
 20
3.41421
 30
 0
 11
37.76506
 21
3.51512
  0
LINE
  8
Engraving
 62
   7
 39
0.400
  6
CONTINUOUS
 10
37.76506
 20
3.51512
 30
 0
 11
37.60361
 21
3.53530
  0
LINE
  8
Engraving
 62
   7
 39
0.400
  6
CONTINUOUS
 10
37.60361
 20
3.53530
 30
 0
 11
37.46234
 21
3.53530
  0
LINE
  8
Engraving
 62
   7
 39
0.400
  6
CONTINUOUS
 10
37.46234
 20
3.53530
 30
 0
 11
37.26053
 21
3.49494
  0
LINE
  8
Engraving
 62
   7
 39
0.400
  6
CONTINUOUS
 10
37.26053
 20
3.49494
 30
 0
 11
37.11926
 21
3.39403
  0
LINE
  8
Engraving
 62
   7
 39
0.400
  6
CONTINUOUS
 10
37.11926
 20
3.39403
 30
 0
 11
37.03854
 21
3.27294
  0
LINE
  8
Engraving
 62
   7
 39
0.400
  6
CONTINUOUS
 10
37.03854
 20
3.27294
 30
 0
 11
36.99817
 21
3.07113
  0
LINE
  8
Engraving
 62
   7
 39
0.400
  6
CONTINUOUS
 10
36.99817
 20
3.07113
 30
 0
 11
36.99817
 21
2.62715
  0
LINE
  8
Engraving
 62
   7
 39
0.400
  6
CONTINUOUS
 10
39.64177
 20
4.28200
 30
 0
 11
39.64177
 21
1.71900
  0
LINE
  8
Engraving
 62
   7
 39
0.400
  6
CONTINUOUS
 10
39.64177
 20
1.71900
 30
 0
 11
39.64177
 21
1.81991
  0
LINE
  8
Engraving
 62
   7
 39
0.400
  6
CONTINUOUS
 10
39.64177
 20
1.81991
 30
 0
 11
39.50050
 21
1.75936
  0
LINE
  8
Engraving
 62
   7
 39
0.400
  6
CONTINUOUS
 10
39.50050
 20
1.75936
 30
 0
 11
39.35924
 21
1.71900
  0
LINE
  8
Engraving
 62
   7
 39
0.400
  6
CONTINUOUS
 10
39.35924
 20
1.71900
 30
 0
 11
39.19779
 21
1.69882
  0
LINE
  8
Engraving
 62
   7
 39
0.400
  6
CONTINUOUS
 10
39.19779
 20
1.69882
 30
 0
 11
39.07670
 21
1.69882
  0
LINE
  8
Engraving
 62
   7
 39
0.400
  6
CONTINUOUS
 10
39.07670
 20
1.69882
 30
 0
 11
38.91525
 21
1.71900
  0
LINE
  8
Engraving
 62
   7
 39
0.400
  6
CONTINUOUS
 10
38.91525
 20
1.71900
 30
 0
 11
38.77398
 21
1.79972
  0
LINE
  8
Engraving
 62
   7
 39
0.400
  6
CONTINUOUS
 10
38.77398
 20
1.79972
 30
 0
 11
38.65290
 21
1.90063
  0
LINE
  8
Engraving
 62
   7
 39
0.400
  6
CONTINUOUS
 10
38.65290
 20
1.90063
 30
 0
 11
38.59235
 21
2.04190
  0
LINE
  8
Engraving
 62
   7
 39
0.400
  6
CONTINUOUS
 10
38.59235
 20
2.04190
 30
 0
 11
38.57217
 21
2.16298
  0
LINE
  8
Engraving
 62
   7
 39
0.400
  6
CONTINUOUS
 10
38.57217
 20
2.16298
 30
 0
 11
38.57217
 21
3.07113
  0
LINE
  8
Engraving
 62
   7
 39
0.400
  6
CONTINUOUS
 10
38.57217
 20
3.07113
 30
 0
 11
38.61254
 21
3.27294
  0
LINE
  8
Engraving
 62
   7
 39
0.400
  6
CONTINUOUS
 10
38.61254
 20
3.27294
 30
 0
 11
38.71344
 21
3.39403
  0
LINE
  8
Engraving
 62
   7
 39
0.400
  6
CONTINUOUS
 10
38.71344
 20
3.39403
 30
 0
 11
38.85471
 21
3.49494
  0
LINE
  8
Engraving
 62
   7
 39
0.400
  6
CONTINUOUS
 10
38.85471
 20
3.49494
 30
 0
 11
39.05652
 21
3.53530
  0
LINE
  8
Engraving
 62
   7
 39
0.400
  6
CONTINUOUS
 10
39.05652
 20
3.53530
 30
 0
 11
39.19779
 21
3.53530
  0
LINE
  8
Engraving
 62
   7
 39
0.400
  6
CONTINUOUS
 10
39.19779
 20
3.53530
 30
 0
 11
39.39960
 21
3.49494
  0
LINE
  8
Engraving
 62
   7
 39
0.400
  6
CONTINUOUS
 10
39.39960
 20
3.49494
 30
 0
 11
39.54087
 21
3.39403
  0
LINE
  8
Engraving
 62
   7
 39
0.400
  6
CONTINUOUS
 10
39.54087
 20
3.39403
 30
 0
 11
39.64177
 21
3.19222
  0
LINE
  8
Engraving
 62
   7
 39
0.400
  6
CONTINUOUS
 10
41.17541
 20
3.51512
 30
 0
 11
41.17541
 21
1.71900
  0
LINE
  8
Engraving
 62
   7
 39
0.400
  6
CONTINUOUS
 10
41.17541
 20
1.71900
 30
 0
 11
41.17541
 21
1.90063
  0
LINE
  8
Engraving
 62
   7
 39
0.400
  6
CONTINUOUS
 10
41.17541
 20
1.90063
 30
 0
 11
41.03414
 21
1.79972
  0
LINE
  8
Engraving
 62
   7
 39
0.400
  6
CONTINUOUS
 10
41.03414
 20
1.79972
 30
 0
 11
40.91306
 21
1.75936
  0
LINE
  8
Engraving
 62
   7
 39
0.400
  6
CONTINUOUS
 10
40.91306
 20
1.75936
 30
 0
 11
40.81215
 21
1.71900
  0
LINE
  8
Engraving
 62
   7
 39
0.400
  6
CONTINUOUS
 10
40.81215
 20
1.71900
 30
 0
 11
40.65070
 21
1.69882
  0
LINE
  8
Engraving
 62
   7
 39
0.400
  6
CONTINUOUS
 10
40.65070
 20
1.69882
 30
 0
 11
40.46907
 21
1.71900
  0
LINE
  8
Engraving
 62
   7
 39
0.400
  6
CONTINUOUS
 10
40.46907
 20
1.71900
 30
 0
 11
40.30762
 21
1.81991
  0
LINE
  8
Engraving
 62
   7
 39
0.400
  6
CONTINUOUS
 10
40.30762
 20
1.81991
 30
 0
 11
40.20672
 21
1.94099
  0
LINE
  8
Engraving
 62
   7
 39
0.400
  6
CONTINUOUS
 10
40.20672
 20
1.94099
 30
 0
 11
40.14617
 21
2.16298
  0
LINE
  8
Engraving
 62
   7
 39
0.400
  6
CONTINUOUS
 10
40.14617
 20
2.16298
 30
 0
 11
40.14617
 21
3.51512
  0
LINE
  8
Engraving
 62
   7
 39
0.400
  6
CONTINUOUS
 10
41.69935
 20
1.72000
 30
 0
 11
41.69935
 21
4.28300
  0
LINE
  8
Engraving
 62
   7
 39
0.400
  6
CONTINUOUS
 10
42.24354
 20
2.91069
 30
 0
 11
42.24354
 21
3.13268
  0
LINE
  8
Engraving
 62
   7
 39
0.400
  6
CONTINUOUS
 10
42.24354
 20
3.13268
 30
 0
 11
42.28390
 21
3.29413
  0
LINE
  8
Engraving
 62
   7
 39
0.400
  6
CONTINUOUS
 10
42.28390
 20
3.29413
 30
 0
 11
42.36462
 21
3.41521
  0
LINE
  8
Engraving
 62
   7
 39
0.400
  6
CONTINUOUS
 10
42.36462
 20
3.41521
 30
 0
 11
42.48571
 21
3.49594
  0
LINE
  8
Engraving
 62
   7
 39
0.400
  6
CONTINUOUS
 10
42.48571
 20
3.49594
 30
 0
 11
42.66734
 21
3.53630
  0
LINE
  8
Engraving
 62
   7
 39
0.400
  6
CONTINUOUS
 10
42.66734
 20
3.53630
 30
 0
 11
42.82879
 21
3.53630
  0
LINE
  8
Engraving
 62
   7
 39
0.400
  6
CONTINUOUS
 10
42.82879
 20
3.53630
 30
 0
 11
43.01042
 21
3.49594
  0
LINE
  8
Engraving
 62
   7
 39
0.400
  6
CONTINUOUS
 10
43.01042
 20
3.49594
 30
 0
 11
43.11132
 21
3.41521
  0
LINE
  8
Engraving
 62
   7
 39
0.400
  6
CONTINUOUS
 10
43.11132
 20
3.41521
 30
 0
 11
43.19205
 21
3.31431
  0
LINE
  8
Engraving
 62
   7
 39
0.400
  6
CONTINUOUS
 10
43.19205
 20
3.31431
 30
 0
 11
43.23241
 21
3.13268
  0
LINE
  8
Engraving
 62
   7
 39
0.400
  6
CONTINUOUS
 10
43.23241
 20
3.13268
 30
 0
 11
43.23241
 21
1.72000
  0
LINE
  8
Engraving
 62
   7
 39
0.400
  6
CONTINUOUS
 10
43.23241
 20
1.72000
 30
 0
 11
43.23241
 21
1.82091
  0
LINE
  8
Engraving
 62
   7
 39
0.400
  6
CONTINUOUS
 10
43.23241
 20
1.82091
 30
 0
 11
43.11132
 21
1.78054
  0
LINE
  8
Engraving
 62
   7
 39
0.400
  6
CONTINUOUS
 10
43.11132
 20
1.78054
 30
 0
 11
42.92969
 21
1.72000
  0
LINE
  8
Engraving
 62
   7
 39
0.400
  6
CONTINUOUS
 10
42.92969
 20
1.72000
 30
 0
 11
42.76824
 21
1.69982
  0
LINE
  8
Engraving
 62
   7
 39
0.400
  6
CONTINUOUS
 10
42.76824
 20
1.69982
 30
 0
 11
42.62698
 21
1.69982
  0
LINE
  8
Engraving
 62
   7
 39
0.400
  6
CONTINUOUS
 10
42.62698
 20
1.69982
 30
 0
 11
42.50589
 21
1.72000
  0
LINE
  8
Engraving
 62
   7
 39
0.400
  6
CONTINUOUS
 10
42.50589
 20
1.72000
 30
 0
 11
42.38480
 21
1.78054
  0
LINE
  8
Engraving
 62
   7
 39
0.400
  6
CONTINUOUS
 10
42.38480
 20
1.78054
 30
 0
 11
42.26372
 21
1.92181
  0
LINE
  8
Engraving
 62
   7
 39
0.400
  6
CONTINUOUS
 10
42.26372
 20
1.92181
 30
 0
 11
42.22335
 21
2.10344
  0
LINE
  8
Engraving
 62
   7
 39
0.400
  6
CONTINUOUS
 10
42.22335
 20
2.10344
 30
 0
 11
42.22335
 21
2.30525
  0
LINE
  8
Engraving
 62
   7
 39
0.400
  6
CONTINUOUS
 10
42.22335
 20
2.30525
 30
 0
 11
42.26372
 21
2.50706
  0
LINE
  8
Engraving
 62
   7
 39
0.400
  6
CONTINUOUS
 10
42.26372
 20
2.50706
 30
 0
 11
42.34444
 21
2.62815
  0
LINE
  8
Engraving
 62
   7
 39
0.400
  6
CONTINUOUS
 10
42.34444
 20
2.62815
 30
 0
 11
42.46553
 21
2.70887
  0
LINE
  8
Engraving
 62
   7
 39
0.400
  6
CONTINUOUS
 10
42.46553
 20
2.70887
 30
 0
 11
42.62698
 21
2.74924
  0
LINE
  8
Engraving
 62
   7
 39
0.400
  6
CONTINUOUS
 10
42.62698
 20
2.74924
 30
 0
 11
43.23241
 21
2.74924
  0
LINE
  8
Engraving
 62
   7
 39
0.400
  6
CONTINUOUS
 10
43.75635
 20
1.72000
 30
 0
 11
43.75635
 21
3.51612
  0
LINE
  8
Engraving
 62
   7
 39
0.400
  6
CONTINUOUS
 10
43.75635
 20
3.51612
 30
 0
 11
43.75635
 21
3.35467
  0
LINE
  8
Engraving
 62
   7
 39
0.400
  6
CONTINUOUS
 10
43.75635
 20
3.35467
 30
 0
 11
43.97835
 21
3.45557
  0
LINE
  8
Engraving
 62
   7
 39
0.400
  6
CONTINUOUS
 10
43.97835
 20
3.45557
 30
 0
 11
44.11961
 21
3.51612
  0
LINE
  8
Engraving
 62
   7
 39
0.400
  6
CONTINUOUS
 10
44.11961
 20
3.51612
 30
 0
 11
44.30124
 21
3.53630
  0
LINE
  8
Engraving
 62
   7
 39
0.400
  6
CONTINUOUS
 10
44.30124
 20
3.53630
 30
 0
 11
44.46269
 21
3.53630
  0
LINE
  8
Engraving
 62
   7
 39
0.600
  6
CONTINUOUS
 10
20.79067
 20
58.24661
 30
 0
 11
20.79067
 21
53.97439
  0
LINE
  8
Engraving
 62
   7
 39
0.600
  6
CONTINUOUS
 10
34.11681
 20
58.24661
 30
 0
 11
34.11681
 21
53.97439
  0
LINE
  8
Engraving
 62
   7
 39
0.600
  6
CONTINUOUS
 10
47.46067
 20
58.24661
 30
 0
 11
47.46067
 21
53.97439
  0
LINE
  8
Engraving
 62
   7
 39
0.600
  6
CONTINUOUS
 10
60.81067
 20
58.24661
 30
 0
 11
60.81067
 21
53.97439
  0
CIRCLE
  8
Contour
 62
   7
 39
0.100
  6
CONTINUOUS
 10
7.50000
 20
125.50000
 30
 0
 40
1.50000
  0
CIRCLE
  8
Contour
 62
   7
 39
0.100
  6
CONTINUOUS
 10
7.50000
 20
3.00000
 30
 0
 40
1.50000
  0
CIRCLE
  8
Contour
 62
   7
 39
0.100
  6
CONTINUOUS
 10
58.30000
 20
125.50000
 30
 0
 40
1.50000
  0
CIRCLE
  8
Contour
 62
   7
 39
0.100
  6
CONTINUOUS
 10
58.30000
 20
3.00000
 30
 0
 40
1.50000
  0
CIRCLE
  8
Contour
 62
   7
 39
0.100
  6
CONTINUOUS
 10
8.09000
 20
109.45000
 30
 0
 40
3.00000
  0
CIRCLE
  8
Contour
 62
   7
 39
0.100
  6
CONTINUOUS
 10
8.09000
 20
94.21000
 30
 0
 40
3.00000
  0
CIRCLE
  8
Contour
 62
   7
 39
0.100
  6
CONTINUOUS
 10
8.09000
 20
78.97000
 30
 0
 40
3.00000
  0
CIRCLE
  8
Contour
 62
   7
 39
0.100
  6
CONTINUOUS
 10
8.09000
 20
63.73000
 30
 0
 40
3.00000
  0
CIRCLE
  8
Contour
 62
   7
 39
0.100
  6
CONTINUOUS
 10
20.79000
 20
31.98000
 30
 0
 40
3.00000
  0
CIRCLE
  8
Contour
 62
   7
 39
0.100
  6
CONTINUOUS
 10
34.13000
 20
31.98000
 30
 0
 40
3.00000
  0
CIRCLE
  8
Contour
 62
   7
 39
0.100
  6
CONTINUOUS
 10
47.46000
 20
31.98000
 30
 0
 40
3.00000
  0
CIRCLE
  8
Contour
 62
   7
 39
0.100
  6
CONTINUOUS
 10
60.81000
 20
31.98000
 30
 0
 40
3.00000
  0
CIRCLE
  8
Contour
 62
   7
 39
0.100
  6
CONTINUOUS
 10
20.79000
 20
109.45000
 30
 0
 40
3.50000
  0
CIRCLE
  8
Contour
 62
   7
 39
0.100
  6
CONTINUOUS
 10
34.13000
 20
109.45000
 30
 0
 40
3.50000
  0
CIRCLE
  8
Contour
 62
   7
 39
0.100
  6
CONTINUOUS
 10
47.46000
 20
109.45000
 30
 0
 40
3.50000
  0
CIRCLE
  8
Contour
 62
   7
 39
0.100
  6
CONTINUOUS
 10
60.81000
 20
109.45000
 30
 0
 40
3.50000
  0
CIRCLE
  8
Contour
 62
   7
 39
0.100
  6
CONTINUOUS
 10
20.79000
 20
94.21000
 30
 0
 40
3.50000
  0
CIRCLE
  8
Contour
 62
   7
 39
0.100
  6
CONTINUOUS
 10
34.13000
 20
94.21000
 30
 0
 40
3.50000
  0
CIRCLE
  8
Contour
 62
   7
 39
0.100
  6
CONTINUOUS
 10
47.46000
 20
94.21000
 30
 0
 40
3.50000
  0
CIRCLE
  8
Contour
 62
   7
 39
0.100
  6
CONTINUOUS
 10
60.81000
 20
94.21000
 30
 0
 40
3.50000
  0
CIRCLE
  8
Contour
 62
   7
 39
0.100
  6
CONTINUOUS
 10
20.79000
 20
78.97000
 30
 0
 40
3.50000
  0
CIRCLE
  8
Contour
 62
   7
 39
0.100
  6
CONTINUOUS
 10
34.13000
 20
78.97000
 30
 0
 40
3.50000
  0
CIRCLE
  8
Contour
 62
   7
 39
0.100
  6
CONTINUOUS
 10
47.46000
 20
78.97000
 30
 0
 40
3.50000
  0
CIRCLE
  8
Contour
 62
   7
 39
0.100
  6
CONTINUOUS
 10
60.81000
 20
78.97000
 30
 0
 40
3.50000
  0
CIRCLE
  8
Contour
 62
   7
 39
0.100
  6
CONTINUOUS
 10
20.79000
 20
63.73000
 30
 0
 40
3.50000
  0
CIRCLE
  8
Contour
 62
   7
 39
0.100
  6
CONTINUOUS
 10
34.13000
 20
63.73000
 30
 0
 40
3.50000
  0
CIRCLE
  8
Contour
 62
   7
 39
0.100
  6
CONTINUOUS
 10
47.46000
 20
63.73000
 30
 0
 40
3.50000
  0
CIRCLE
  8
Contour
 62
   7
 39
0.100
  6
CONTINUOUS
 10
60.81000
 20
63.73000
 30
 0
 40
3.50000
  0
CIRCLE
  8
Contour
 62
   7
 39
0.100
  6
CONTINUOUS
 10
20.79000
 20
48.49000
 30
 0
 40
3.50000
  0
CIRCLE
  8
Contour
 62
   7
 39
0.100
  6
CONTINUOUS
 10
34.13000
 20
48.49000
 30
 0
 40
3.50000
  0
CIRCLE
  8
Contour
 62
   7
 39
0.100
  6
CONTINUOUS
 10
47.46000
 20
48.49000
 30
 0
 40
3.50000
  0
CIRCLE
  8
Contour
 62
   7
 39
0.100
  6
CONTINUOUS
 10
60.81000
 20
48.49000
 30
 0
 40
3.50000
  0
ENDSEC
  0
EOF
