  0
SECTION
  2
HEADER
  9
$MEASUREMENT
  70
  1
  9
$INSUNITS
  70
  4
  0
ENDSEC
  0
SECTION
  2
TABLES
  0
TABLE
  2
LTYPE
 70
     1
  0
LTYPE
  2
CONTINUOUS
 70
    64
  3
Ausgezogene Linie
 72
    65
 73
     0
 40
0.0
  0
ENDTAB
  0
TABLE
  2
LAYER
 70
     3
  0
LAYER
  2
Contour
 70
    64
 62
     7
  6
CONTINUOUS
  0
LAYER
  2
Engraving
 70
    64
 62
     7
  6
CONTINUOUS
  0
LAYER
  2
Reference_points
 70
    64
 62
     1
  6
CONTINUOUS
  0
ENDTAB
  0
TABLE
  2
STYLE
 70
     1
  0
STYLE
  2
TXT
 70
    64
 40
0.0
 41
1.0
 50
0.0
 71
     0
 42
3.500000
  3
TXT
  0
ENDTAB
  0
ENDSEC
  0
SECTION
  2
BLOCKS
  0
ENDSEC
  0
SECTION
  2
ENTITIES
  0
LINE
  8
Contour
 62
   7
 39
0.100
  6
CONTINUOUS
 10
70.78000
 20
128.40000
 30
 0
 11
70.78000
 21
0.00000
  0
LINE
  8
Contour
 62
   7
 39
0.100
  6
CONTINUOUS
 10
70.78000
 20
0.00000
 30
 0
 11
0.00000
 21
0.00000
  0
LINE
  8
Contour
 62
   7
 39
0.100
  6
CONTINUOUS
 10
0.00000
 20
0.00000
 30
 0
 11
0.00000
 21
128.40000
  0
LINE
  8
Contour
 62
   7
 39
0.100
  6
CONTINUOUS
 10
0.00000
 20
128.40000
 30
 0
 11
70.78000
 21
128.40000
  0
LINE
  8
Engraving
 62
   7
 39
0.400
  6
CONTINUOUS
 10
27.73239
 20
4.28200
 30
 0
 11
27.00587
 21
2.92987
  0
LINE
  8
Engraving
 62
   7
 39
0.400
  6
CONTINUOUS
 10
27.00587
 20
2.92987
 30
 0
 11
26.27935
 21
4.28200
  0
LINE
  8
Engraving
 62
   7
 39
0.400
  6
CONTINUOUS
 10
27.00587
 20
2.92987
 30
 0
 11
27.00587
 21
1.71900
  0
LINE
  8
Engraving
 62
   7
 39
0.400
  6
CONTINUOUS
 10
28.23717
 20
2.62715
 30
 0
 11
28.23717
 21
2.14280
  0
LINE
  8
Engraving
 62
   7
 39
0.400
  6
CONTINUOUS
 10
28.23717
 20
2.14280
 30
 0
 11
28.27754
 21
1.96117
  0
LINE
  8
Engraving
 62
   7
 39
0.400
  6
CONTINUOUS
 10
28.27754
 20
1.96117
 30
 0
 11
28.37844
 21
1.81991
  0
LINE
  8
Engraving
 62
   7
 39
0.400
  6
CONTINUOUS
 10
28.37844
 20
1.81991
 30
 0
 11
28.56007
 21
1.71900
  0
LINE
  8
Engraving
 62
   7
 39
0.400
  6
CONTINUOUS
 10
28.56007
 20
1.71900
 30
 0
 11
28.70134
 21
1.69882
  0
LINE
  8
Engraving
 62
   7
 39
0.400
  6
CONTINUOUS
 10
28.70134
 20
1.69882
 30
 0
 11
28.88297
 21
1.69882
  0
LINE
  8
Engraving
 62
   7
 39
0.400
  6
CONTINUOUS
 10
28.88297
 20
1.69882
 30
 0
 11
29.04442
 21
1.73918
  0
LINE
  8
Engraving
 62
   7
 39
0.400
  6
CONTINUOUS
 10
29.04442
 20
1.73918
 30
 0
 11
29.16550
 21
1.84009
  0
LINE
  8
Engraving
 62
   7
 39
0.400
  6
CONTINUOUS
 10
29.16550
 20
1.84009
 30
 0
 11
29.26641
 21
2.00154
  0
LINE
  8
Engraving
 62
   7
 39
0.400
  6
CONTINUOUS
 10
29.26641
 20
2.00154
 30
 0
 11
29.30677
 21
2.14280
  0
LINE
  8
Engraving
 62
   7
 39
0.400
  6
CONTINUOUS
 10
29.30677
 20
2.14280
 30
 0
 11
29.30677
 21
3.07113
  0
LINE
  8
Engraving
 62
   7
 39
0.400
  6
CONTINUOUS
 10
29.30677
 20
3.07113
 30
 0
 11
29.24623
 21
3.29313
  0
LINE
  8
Engraving
 62
   7
 39
0.400
  6
CONTINUOUS
 10
29.24623
 20
3.29313
 30
 0
 11
29.14532
 21
3.41421
  0
LINE
  8
Engraving
 62
   7
 39
0.400
  6
CONTINUOUS
 10
29.14532
 20
3.41421
 30
 0
 11
29.00406
 21
3.51512
  0
LINE
  8
Engraving
 62
   7
 39
0.400
  6
CONTINUOUS
 10
29.00406
 20
3.51512
 30
 0
 11
28.84261
 21
3.53530
  0
LINE
  8
Engraving
 62
   7
 39
0.400
  6
CONTINUOUS
 10
28.84261
 20
3.53530
 30
 0
 11
28.70134
 21
3.53530
  0
LINE
  8
Engraving
 62
   7
 39
0.400
  6
CONTINUOUS
 10
28.70134
 20
3.53530
 30
 0
 11
28.49953
 21
3.49494
  0
LINE
  8
Engraving
 62
   7
 39
0.400
  6
CONTINUOUS
 10
28.49953
 20
3.49494
 30
 0
 11
28.35826
 21
3.39403
  0
LINE
  8
Engraving
 62
   7
 39
0.400
  6
CONTINUOUS
 10
28.35826
 20
3.39403
 30
 0
 11
28.27754
 21
3.27294
  0
LINE
  8
Engraving
 62
   7
 39
0.400
  6
CONTINUOUS
 10
28.27754
 20
3.27294
 30
 0
 11
28.23717
 21
3.07113
  0
LINE
  8
Engraving
 62
   7
 39
0.400
  6
CONTINUOUS
 10
28.23717
 20
3.07113
 30
 0
 11
28.23717
 21
2.62715
  0
LINE
  8
Engraving
 62
   7
 39
0.400
  6
CONTINUOUS
 10
29.83235
 20
1.71900
 30
 0
 11
29.83235
 21
3.51512
  0
LINE
  8
Engraving
 62
   7
 39
0.400
  6
CONTINUOUS
 10
29.83235
 20
3.51512
 30
 0
 11
29.83235
 21
3.35367
  0
LINE
  8
Engraving
 62
   7
 39
0.400
  6
CONTINUOUS
 10
29.83235
 20
3.35367
 30
 0
 11
30.05435
 21
3.45457
  0
LINE
  8
Engraving
 62
   7
 39
0.400
  6
CONTINUOUS
 10
30.05435
 20
3.45457
 30
 0
 11
30.19561
 21
3.51512
  0
LINE
  8
Engraving
 62
   7
 39
0.400
  6
CONTINUOUS
 10
30.19561
 20
3.51512
 30
 0
 11
30.37724
 21
3.53530
  0
LINE
  8
Engraving
 62
   7
 39
0.400
  6
CONTINUOUS
 10
30.37724
 20
3.53530
 30
 0
 11
30.53869
 21
3.53530
  0
LINE
  8
Engraving
 62
   7
 39
0.400
  6
CONTINUOUS
 10
31.02317
 20
4.28200
 30
 0
 11
31.02317
 21
1.71900
  0
LINE
  8
Engraving
 62
   7
 39
0.400
  6
CONTINUOUS
 10
32.15331
 20
3.51512
 30
 0
 11
31.02317
 21
2.72806
  0
LINE
  8
Engraving
 62
   7
 39
0.400
  6
CONTINUOUS
 10
31.02317
 20
2.72806
 30
 0
 11
31.28553
 21
2.90969
  0
LINE
  8
Engraving
 62
   7
 39
0.400
  6
CONTINUOUS
 10
31.28553
 20
2.90969
 30
 0
 11
32.17350
 21
1.71900
  0
LINE
  8
Engraving
 62
   7
 39
0.400
  6
CONTINUOUS
 10
34.69717
 20
1.71900
 30
 0
 11
34.69717
 21
4.28200
  0
LINE
  8
Engraving
 62
   7
 39
0.400
  6
CONTINUOUS
 10
34.69717
 20
4.28200
 30
 0
 11
34.87880
 21
4.28200
  0
LINE
  8
Engraving
 62
   7
 39
0.400
  6
CONTINUOUS
 10
34.87880
 20
4.28200
 30
 0
 11
35.62550
 21
1.71900
  0
LINE
  8
Engraving
 62
   7
 39
0.400
  6
CONTINUOUS
 10
35.62550
 20
1.71900
 30
 0
 11
36.35202
 21
4.28200
  0
LINE
  8
Engraving
 62
   7
 39
0.400
  6
CONTINUOUS
 10
36.35202
 20
4.28200
 30
 0
 11
36.53365
 21
4.28200
  0
LINE
  8
Engraving
 62
   7
 39
0.400
  6
CONTINUOUS
 10
36.53365
 20
4.28200
 30
 0
 11
36.53365
 21
1.71900
  0
LINE
  8
Engraving
 62
   7
 39
0.400
  6
CONTINUOUS
 10
37.03817
 20
2.62715
 30
 0
 11
37.03817
 21
2.14280
  0
LINE
  8
Engraving
 62
   7
 39
0.400
  6
CONTINUOUS
 10
37.03817
 20
2.14280
 30
 0
 11
37.07854
 21
1.96117
  0
LINE
  8
Engraving
 62
   7
 39
0.400
  6
CONTINUOUS
 10
37.07854
 20
1.96117
 30
 0
 11
37.17944
 21
1.81991
  0
LINE
  8
Engraving
 62
   7
 39
0.400
  6
CONTINUOUS
 10
37.17944
 20
1.81991
 30
 0
 11
37.36107
 21
1.71900
  0
LINE
  8
Engraving
 62
   7
 39
0.400
  6
CONTINUOUS
 10
37.36107
 20
1.71900
 30
 0
 11
37.50234
 21
1.69882
  0
LINE
  8
Engraving
 62
   7
 39
0.400
  6
CONTINUOUS
 10
37.50234
 20
1.69882
 30
 0
 11
37.68397
 21
1.69882
  0
LINE
  8
Engraving
 62
   7
 39
0.400
  6
CONTINUOUS
 10
37.68397
 20
1.69882
 30
 0
 11
37.84542
 21
1.73918
  0
LINE
  8
Engraving
 62
   7
 39
0.400
  6
CONTINUOUS
 10
37.84542
 20
1.73918
 30
 0
 11
37.96650
 21
1.84009
  0
LINE
  8
Engraving
 62
   7
 39
0.400
  6
CONTINUOUS
 10
37.96650
 20
1.84009
 30
 0
 11
38.06741
 21
2.00154
  0
LINE
  8
Engraving
 62
   7
 39
0.400
  6
CONTINUOUS
 10
38.06741
 20
2.00154
 30
 0
 11
38.10777
 21
2.14280
  0
LINE
  8
Engraving
 62
   7
 39
0.400
  6
CONTINUOUS
 10
38.10777
 20
2.14280
 30
 0
 11
38.10777
 21
3.07113
  0
LINE
  8
Engraving
 62
   7
 39
0.400
  6
CONTINUOUS
 10
38.10777
 20
3.07113
 30
 0
 11
38.04723
 21
3.29313
  0
LINE
  8
Engraving
 62
   7
 39
0.400
  6
CONTINUOUS
 10
38.04723
 20
3.29313
 30
 0
 11
37.94632
 21
3.41421
  0
LINE
  8
Engraving
 62
   7
 39
0.400
  6
CONTINUOUS
 10
37.94632
 20
3.41421
 30
 0
 11
37.80506
 21
3.51512
  0
LINE
  8
Engraving
 62
   7
 39
0.400
  6
CONTINUOUS
 10
37.80506
 20
3.51512
 30
 0
 11
37.64361
 21
3.53530
  0
LINE
  8
Engraving
 62
   7
 39
0.400
  6
CONTINUOUS
 10
37.64361
 20
3.53530
 30
 0
 11
37.50234
 21
3.53530
  0
LINE
  8
Engraving
 62
   7
 39
0.400
  6
CONTINUOUS
 10
37.50234
 20
3.53530
 30
 0
 11
37.30053
 21
3.49494
  0
LINE
  8
Engraving
 62
   7
 39
0.400
  6
CONTINUOUS
 10
37.30053
 20
3.49494
 30
 0
 11
37.15926
 21
3.39403
  0
LINE
  8
Engraving
 62
   7
 39
0.400
  6
CONTINUOUS
 10
37.15926
 20
3.39403
 30
 0
 11
37.07854
 21
3.27294
  0
LINE
  8
Engraving
 62
   7
 39
0.400
  6
CONTINUOUS
 10
37.07854
 20
3.27294
 30
 0
 11
37.03817
 21
3.07113
  0
LINE
  8
Engraving
 62
   7
 39
0.400
  6
CONTINUOUS
 10
37.03817
 20
3.07113
 30
 0
 11
37.03817
 21
2.62715
  0
LINE
  8
Engraving
 62
   7
 39
0.400
  6
CONTINUOUS
 10
39.68177
 20
4.28200
 30
 0
 11
39.68177
 21
1.71900
  0
LINE
  8
Engraving
 62
   7
 39
0.400
  6
CONTINUOUS
 10
39.68177
 20
1.71900
 30
 0
 11
39.68177
 21
1.81991
  0
LINE
  8
Engraving
 62
   7
 39
0.400
  6
CONTINUOUS
 10
39.68177
 20
1.81991
 30
 0
 11
39.54050
 21
1.75936
  0
LINE
  8
Engraving
 62
   7
 39
0.400
  6
CONTINUOUS
 10
39.54050
 20
1.75936
 30
 0
 11
39.39924
 21
1.71900
  0
LINE
  8
Engraving
 62
   7
 39
0.400
  6
CONTINUOUS
 10
39.39924
 20
1.71900
 30
 0
 11
39.23779
 21
1.69882
  0
LINE
  8
Engraving
 62
   7
 39
0.400
  6
CONTINUOUS
 10
39.23779
 20
1.69882
 30
 0
 11
39.11670
 21
1.69882
  0
LINE
  8
Engraving
 62
   7
 39
0.400
  6
CONTINUOUS
 10
39.11670
 20
1.69882
 30
 0
 11
38.95525
 21
1.71900
  0
LINE
  8
Engraving
 62
   7
 39
0.400
  6
CONTINUOUS
 10
38.95525
 20
1.71900
 30
 0
 11
38.81398
 21
1.79972
  0
LINE
  8
Engraving
 62
   7
 39
0.400
  6
CONTINUOUS
 10
38.81398
 20
1.79972
 30
 0
 11
38.69290
 21
1.90063
  0
LINE
  8
Engraving
 62
   7
 39
0.400
  6
CONTINUOUS
 10
38.69290
 20
1.90063
 30
 0
 11
38.63235
 21
2.04190
  0
LINE
  8
Engraving
 62
   7
 39
0.400
  6
CONTINUOUS
 10
38.63235
 20
2.04190
 30
 0
 11
38.61217
 21
2.16298
  0
LINE
  8
Engraving
 62
   7
 39
0.400
  6
CONTINUOUS
 10
38.61217
 20
2.16298
 30
 0
 11
38.61217
 21
3.07113
  0
LINE
  8
Engraving
 62
   7
 39
0.400
  6
CONTINUOUS
 10
38.61217
 20
3.07113
 30
 0
 11
38.65254
 21
3.27294
  0
LINE
  8
Engraving
 62
   7
 39
0.400
  6
CONTINUOUS
 10
38.65254
 20
3.27294
 30
 0
 11
38.75344
 21
3.39403
  0
LINE
  8
Engraving
 62
   7
 39
0.400
  6
CONTINUOUS
 10
38.75344
 20
3.39403
 30
 0
 11
38.89471
 21
3.49494
  0
LINE
  8
Engraving
 62
   7
 39
0.400
  6
CONTINUOUS
 10
38.89471
 20
3.49494
 30
 0
 11
39.09652
 21
3.53530
  0
LINE
  8
Engraving
 62
   7
 39
0.400
  6
CONTINUOUS
 10
39.09652
 20
3.53530
 30
 0
 11
39.23779
 21
3.53530
  0
LINE
  8
Engraving
 62
   7
 39
0.400
  6
CONTINUOUS
 10
39.23779
 20
3.53530
 30
 0
 11
39.43960
 21
3.49494
  0
LINE
  8
Engraving
 62
   7
 39
0.400
  6
CONTINUOUS
 10
39.43960
 20
3.49494
 30
 0
 11
39.58087
 21
3.39403
  0
LINE
  8
Engraving
 62
   7
 39
0.400
  6
CONTINUOUS
 10
39.58087
 20
3.39403
 30
 0
 11
39.68177
 21
3.19222
  0
LINE
  8
Engraving
 62
   7
 39
0.400
  6
CONTINUOUS
 10
41.21541
 20
3.51512
 30
 0
 11
41.21541
 21
1.71900
  0
LINE
  8
Engraving
 62
   7
 39
0.400
  6
CONTINUOUS
 10
41.21541
 20
1.71900
 30
 0
 11
41.21541
 21
1.90063
  0
LINE
  8
Engraving
 62
   7
 39
0.400
  6
CONTINUOUS
 10
41.21541
 20
1.90063
 30
 0
 11
41.07414
 21
1.79972
  0
LINE
  8
Engraving
 62
   7
 39
0.400
  6
CONTINUOUS
 10
41.07414
 20
1.79972
 30
 0
 11
40.95306
 21
1.75936
  0
LINE
  8
Engraving
 62
   7
 39
0.400
  6
CONTINUOUS
 10
40.95306
 20
1.75936
 30
 0
 11
40.85215
 21
1.71900
  0
LINE
  8
Engraving
 62
   7
 39
0.400
  6
CONTINUOUS
 10
40.85215
 20
1.71900
 30
 0
 11
40.69070
 21
1.69882
  0
LINE
  8
Engraving
 62
   7
 39
0.400
  6
CONTINUOUS
 10
40.69070
 20
1.69882
 30
 0
 11
40.50907
 21
1.71900
  0
LINE
  8
Engraving
 62
   7
 39
0.400
  6
CONTINUOUS
 10
40.50907
 20
1.71900
 30
 0
 11
40.34762
 21
1.81991
  0
LINE
  8
Engraving
 62
   7
 39
0.400
  6
CONTINUOUS
 10
40.34762
 20
1.81991
 30
 0
 11
40.24672
 21
1.94099
  0
LINE
  8
Engraving
 62
   7
 39
0.400
  6
CONTINUOUS
 10
40.24672
 20
1.94099
 30
 0
 11
40.18617
 21
2.16298
  0
LINE
  8
Engraving
 62
   7
 39
0.400
  6
CONTINUOUS
 10
40.18617
 20
2.16298
 30
 0
 11
40.18617
 21
3.51512
  0
LINE
  8
Engraving
 62
   7
 39
0.400
  6
CONTINUOUS
 10
41.73935
 20
1.72000
 30
 0
 11
41.73935
 21
4.28300
  0
LINE
  8
Engraving
 62
   7
 39
0.400
  6
CONTINUOUS
 10
42.28354
 20
2.91069
 30
 0
 11
42.28354
 21
3.13268
  0
LINE
  8
Engraving
 62
   7
 39
0.400
  6
CONTINUOUS
 10
42.28354
 20
3.13268
 30
 0
 11
42.32390
 21
3.29413
  0
LINE
  8
Engraving
 62
   7
 39
0.400
  6
CONTINUOUS
 10
42.32390
 20
3.29413
 30
 0
 11
42.40462
 21
3.41521
  0
LINE
  8
Engraving
 62
   7
 39
0.400
  6
CONTINUOUS
 10
42.40462
 20
3.41521
 30
 0
 11
42.52571
 21
3.49594
  0
LINE
  8
Engraving
 62
   7
 39
0.400
  6
CONTINUOUS
 10
42.52571
 20
3.49594
 30
 0
 11
42.70734
 21
3.53630
  0
LINE
  8
Engraving
 62
   7
 39
0.400
  6
CONTINUOUS
 10
42.70734
 20
3.53630
 30
 0
 11
42.86879
 21
3.53630
  0
LINE
  8
Engraving
 62
   7
 39
0.400
  6
CONTINUOUS
 10
42.86879
 20
3.53630
 30
 0
 11
43.05042
 21
3.49594
  0
LINE
  8
Engraving
 62
   7
 39
0.400
  6
CONTINUOUS
 10
43.05042
 20
3.49594
 30
 0
 11
43.15132
 21
3.41521
  0
LINE
  8
Engraving
 62
   7
 39
0.400
  6
CONTINUOUS
 10
43.15132
 20
3.41521
 30
 0
 11
43.23205
 21
3.31431
  0
LINE
  8
Engraving
 62
   7
 39
0.400
  6
CONTINUOUS
 10
43.23205
 20
3.31431
 30
 0
 11
43.27241
 21
3.13268
  0
LINE
  8
Engraving
 62
   7
 39
0.400
  6
CONTINUOUS
 10
43.27241
 20
3.13268
 30
 0
 11
43.27241
 21
1.72000
  0
LINE
  8
Engraving
 62
   7
 39
0.400
  6
CONTINUOUS
 10
43.27241
 20
1.72000
 30
 0
 11
43.27241
 21
1.82091
  0
LINE
  8
Engraving
 62
   7
 39
0.400
  6
CONTINUOUS
 10
43.27241
 20
1.82091
 30
 0
 11
43.15132
 21
1.78054
  0
LINE
  8
Engraving
 62
   7
 39
0.400
  6
CONTINUOUS
 10
43.15132
 20
1.78054
 30
 0
 11
42.96969
 21
1.72000
  0
LINE
  8
Engraving
 62
   7
 39
0.400
  6
CONTINUOUS
 10
42.96969
 20
1.72000
 30
 0
 11
42.80824
 21
1.69982
  0
LINE
  8
Engraving
 62
   7
 39
0.400
  6
CONTINUOUS
 10
42.80824
 20
1.69982
 30
 0
 11
42.66698
 21
1.69982
  0
LINE
  8
Engraving
 62
   7
 39
0.400
  6
CONTINUOUS
 10
42.66698
 20
1.69982
 30
 0
 11
42.54589
 21
1.72000
  0
LINE
  8
Engraving
 62
   7
 39
0.400
  6
CONTINUOUS
 10
42.54589
 20
1.72000
 30
 0
 11
42.42480
 21
1.78054
  0
LINE
  8
Engraving
 62
   7
 39
0.400
  6
CONTINUOUS
 10
42.42480
 20
1.78054
 30
 0
 11
42.30372
 21
1.92181
  0
LINE
  8
Engraving
 62
   7
 39
0.400
  6
CONTINUOUS
 10
42.30372
 20
1.92181
 30
 0
 11
42.26335
 21
2.10344
  0
LINE
  8
Engraving
 62
   7
 39
0.400
  6
CONTINUOUS
 10
42.26335
 20
2.10344
 30
 0
 11
42.26335
 21
2.30525
  0
LINE
  8
Engraving
 62
   7
 39
0.400
  6
CONTINUOUS
 10
42.26335
 20
2.30525
 30
 0
 11
42.30372
 21
2.50706
  0
LINE
  8
Engraving
 62
   7
 39
0.400
  6
CONTINUOUS
 10
42.30372
 20
2.50706
 30
 0
 11
42.38444
 21
2.62815
  0
LINE
  8
Engraving
 62
   7
 39
0.400
  6
CONTINUOUS
 10
42.38444
 20
2.62815
 30
 0
 11
42.50553
 21
2.70887
  0
LINE
  8
Engraving
 62
   7
 39
0.400
  6
CONTINUOUS
 10
42.50553
 20
2.70887
 30
 0
 11
42.66698
 21
2.74924
  0
LINE
  8
Engraving
 62
   7
 39
0.400
  6
CONTINUOUS
 10
42.66698
 20
2.74924
 30
 0
 11
43.27241
 21
2.74924
  0
LINE
  8
Engraving
 62
   7
 39
0.400
  6
CONTINUOUS
 10
43.79635
 20
1.72000
 30
 0
 11
43.79635
 21
3.51612
  0
LINE
  8
Engraving
 62
   7
 39
0.400
  6
CONTINUOUS
 10
43.79635
 20
3.51612
 30
 0
 11
43.79635
 21
3.35467
  0
LINE
  8
Engraving
 62
   7
 39
0.400
  6
CONTINUOUS
 10
43.79635
 20
3.35467
 30
 0
 11
44.01835
 21
3.45557
  0
LINE
  8
Engraving
 62
   7
 39
0.400
  6
CONTINUOUS
 10
44.01835
 20
3.45557
 30
 0
 11
44.15961
 21
3.51612
  0
LINE
  8
Engraving
 62
   7
 39
0.400
  6
CONTINUOUS
 10
44.15961
 20
3.51612
 30
 0
 11
44.34124
 21
3.53630
  0
LINE
  8
Engraving
 62
   7
 39
0.400
  6
CONTINUOUS
 10
44.34124
 20
3.53630
 30
 0
 11
44.50269
 21
3.53630
  0
LINE
  8
Engraving
 62
   7
 39
0.400
  6
CONTINUOUS
 10
23.93292
 20
123.47200
 30
 0
 11
24.79947
 21
126.52900
  0
LINE
  8
Engraving
 62
   7
 39
0.400
  6
CONTINUOUS
 10
24.79947
 20
126.52900
 30
 0
 11
24.89576
 21
126.52900
  0
LINE
  8
Engraving
 62
   7
 39
0.400
  6
CONTINUOUS
 10
24.89576
 20
126.52900
 30
 0
 11
25.76231
 21
123.47200
  0
LINE
  8
Engraving
 62
   7
 39
0.400
  6
CONTINUOUS
 10
24.19770
 20
124.41076
 30
 0
 11
25.49753
 21
124.41076
  0
LINE
  8
Engraving
 62
   7
 39
0.400
  6
CONTINUOUS
 10
27.54432
 20
124.19413
 30
 0
 11
27.54432
 21
123.97749
  0
LINE
  8
Engraving
 62
   7
 39
0.400
  6
CONTINUOUS
 10
27.54432
 20
123.97749
 30
 0
 11
27.49618
 21
123.76085
  0
LINE
  8
Engraving
 62
   7
 39
0.400
  6
CONTINUOUS
 10
27.49618
 20
123.76085
 30
 0
 11
27.39990
 21
123.61643
  0
LINE
  8
Engraving
 62
   7
 39
0.400
  6
CONTINUOUS
 10
27.39990
 20
123.61643
 30
 0
 11
27.25547
 21
123.49607
  0
LINE
  8
Engraving
 62
   7
 39
0.400
  6
CONTINUOUS
 10
27.25547
 20
123.49607
 30
 0
 11
27.03883
 21
123.44793
  0
LINE
  8
Engraving
 62
   7
 39
0.400
  6
CONTINUOUS
 10
27.03883
 20
123.44793
 30
 0
 11
26.94255
 21
123.42386
  0
LINE
  8
Engraving
 62
   7
 39
0.400
  6
CONTINUOUS
 10
26.94255
 20
123.42386
 30
 0
 11
26.72591
 21
123.47200
  0
LINE
  8
Engraving
 62
   7
 39
0.400
  6
CONTINUOUS
 10
26.72591
 20
123.47200
 30
 0
 11
26.58149
 21
123.56828
  0
LINE
  8
Engraving
 62
   7
 39
0.400
  6
CONTINUOUS
 10
26.58149
 20
123.56828
 30
 0
 11
26.46113
 21
123.71271
  0
LINE
  8
Engraving
 62
   7
 39
0.400
  6
CONTINUOUS
 10
26.46113
 20
123.71271
 30
 0
 11
26.38892
 21
123.97749
  0
LINE
  8
Engraving
 62
   7
 39
0.400
  6
CONTINUOUS
 10
26.38892
 20
123.97749
 30
 0
 11
26.38892
 21
125.08475
  0
LINE
  8
Engraving
 62
   7
 39
0.400
  6
CONTINUOUS
 10
26.38892
 20
125.08475
 30
 0
 11
26.43706
 21
125.30139
  0
LINE
  8
Engraving
 62
   7
 39
0.400
  6
CONTINUOUS
 10
26.43706
 20
125.30139
 30
 0
 11
26.58149
 21
125.49395
  0
LINE
  8
Engraving
 62
   7
 39
0.400
  6
CONTINUOUS
 10
26.58149
 20
125.49395
 30
 0
 11
26.72591
 21
125.59024
  0
LINE
  8
Engraving
 62
   7
 39
0.400
  6
CONTINUOUS
 10
26.72591
 20
125.59024
 30
 0
 11
26.94255
 21
125.63838
  0
LINE
  8
Engraving
 62
   7
 39
0.400
  6
CONTINUOUS
 10
26.94255
 20
125.63838
 30
 0
 11
27.13512
 21
125.61431
  0
LINE
  8
Engraving
 62
   7
 39
0.400
  6
CONTINUOUS
 10
27.13512
 20
125.61431
 30
 0
 11
27.35176
 21
125.49395
  0
LINE
  8
Engraving
 62
   7
 39
0.400
  6
CONTINUOUS
 10
27.35176
 20
125.49395
 30
 0
 11
27.47211
 21
125.30139
  0
LINE
  8
Engraving
 62
   7
 39
0.400
  6
CONTINUOUS
 10
27.47211
 20
125.30139
 30
 0
 11
27.52025
 21
125.08475
  0
LINE
  8
Engraving
 62
   7
 39
0.400
  6
CONTINUOUS
 10
27.52025
 20
125.08475
 30
 0
 11
27.52025
 21
124.89218
  0
LINE
  8
Engraving
 62
   7
 39
0.400
  6
CONTINUOUS
 10
28.65234
 20
125.97537
 30
 0
 11
28.65234
 21
123.78492
  0
LINE
  8
Engraving
 62
   7
 39
0.400
  6
CONTINUOUS
 10
28.65234
 20
123.78492
 30
 0
 11
28.67641
 21
123.64050
  0
LINE
  8
Engraving
 62
   7
 39
0.400
  6
CONTINUOUS
 10
28.67641
 20
123.64050
 30
 0
 11
28.72455
 21
123.52014
  0
LINE
  8
Engraving
 62
   7
 39
0.400
  6
CONTINUOUS
 10
28.72455
 20
123.52014
 30
 0
 11
28.82083
 21
123.47200
  0
LINE
  8
Engraving
 62
   7
 39
0.400
  6
CONTINUOUS
 10
28.82083
 20
123.47200
 30
 0
 11
29.13376
 21
123.49607
  0
LINE
  8
Engraving
 62
   7
 39
0.400
  6
CONTINUOUS
 10
28.17092
 20
125.63838
 30
 0
 11
29.10969
 21
125.63838
  0
LINE
  8
Engraving
 62
   7
 39
0.400
  6
CONTINUOUS
 10
29.73585
 20
126.26422
 30
 0
 11
29.73585
 21
126.52900
  0
LINE
  8
Engraving
 62
   7
 39
0.400
  6
CONTINUOUS
 10
29.73585
 20
126.52900
 30
 0
 11
30.00063
 21
126.52900
  0
LINE
  8
Engraving
 62
   7
 39
0.400
  6
CONTINUOUS
 10
30.00063
 20
126.52900
 30
 0
 11
30.00063
 21
126.26422
  0
LINE
  8
Engraving
 62
   7
 39
0.400
  6
CONTINUOUS
 10
30.00063
 20
126.26422
 30
 0
 11
29.73585
 21
126.26422
  0
LINE
  8
Engraving
 62
   7
 39
0.400
  6
CONTINUOUS
 10
29.88028
 20
125.61431
 30
 0
 11
29.88028
 21
123.47200
  0
LINE
  8
Engraving
 62
   7
 39
0.400
  6
CONTINUOUS
 10
30.62692
 20
125.61531
 30
 0
 11
31.32498
 21
123.47300
  0
LINE
  8
Engraving
 62
   7
 39
0.400
  6
CONTINUOUS
 10
31.32498
 20
123.47300
 30
 0
 11
32.02303
 21
125.61531
  0
LINE
  8
Engraving
 62
   7
 39
0.400
  6
CONTINUOUS
 10
33.90061
 20
124.19513
 30
 0
 11
33.90061
 21
124.00256
  0
LINE
  8
Engraving
 62
   7
 39
0.400
  6
CONTINUOUS
 10
33.90061
 20
124.00256
 30
 0
 11
33.87654
 21
123.80999
  0
LINE
  8
Engraving
 62
   7
 39
0.400
  6
CONTINUOUS
 10
33.87654
 20
123.80999
 30
 0
 11
33.75618
 21
123.61743
  0
LINE
  8
Engraving
 62
   7
 39
0.400
  6
CONTINUOUS
 10
33.75618
 20
123.61743
 30
 0
 11
33.63583
 21
123.52114
  0
LINE
  8
Engraving
 62
   7
 39
0.400
  6
CONTINUOUS
 10
33.63583
 20
123.52114
 30
 0
 11
33.39512
 21
123.44893
  0
LINE
  8
Engraving
 62
   7
 39
0.400
  6
CONTINUOUS
 10
33.39512
 20
123.44893
 30
 0
 11
33.17848
 21
123.44893
  0
LINE
  8
Engraving
 62
   7
 39
0.400
  6
CONTINUOUS
 10
33.17848
 20
123.44893
 30
 0
 11
32.96184
 21
123.49707
  0
LINE
  8
Engraving
 62
   7
 39
0.400
  6
CONTINUOUS
 10
32.96184
 20
123.49707
 30
 0
 11
32.81742
 21
123.59335
  0
LINE
  8
Engraving
 62
   7
 39
0.400
  6
CONTINUOUS
 10
32.81742
 20
123.59335
 30
 0
 11
32.67299
 21
123.76185
  0
LINE
  8
Engraving
 62
   7
 39
0.400
  6
CONTINUOUS
 10
32.67299
 20
123.76185
 30
 0
 11
32.62485
 21
124.00256
  0
LINE
  8
Engraving
 62
   7
 39
0.400
  6
CONTINUOUS
 10
32.62485
 20
124.00256
 30
 0
 11
32.62485
 21
125.08575
  0
LINE
  8
Engraving
 62
   7
 39
0.400
  6
CONTINUOUS
 10
32.62485
 20
125.08575
 30
 0
 11
32.67299
 21
125.32646
  0
LINE
  8
Engraving
 62
   7
 39
0.400
  6
CONTINUOUS
 10
32.67299
 20
125.32646
 30
 0
 11
32.79335
 21
125.49495
  0
LINE
  8
Engraving
 62
   7
 39
0.400
  6
CONTINUOUS
 10
32.79335
 20
125.49495
 30
 0
 11
32.91370
 21
125.59124
  0
LINE
  8
Engraving
 62
   7
 39
0.400
  6
CONTINUOUS
 10
32.91370
 20
125.59124
 30
 0
 11
33.17848
 21
125.63938
  0
LINE
  8
Engraving
 62
   7
 39
0.400
  6
CONTINUOUS
 10
33.17848
 20
125.63938
 30
 0
 11
33.32291
 21
125.63938
  0
LINE
  8
Engraving
 62
   7
 39
0.400
  6
CONTINUOUS
 10
33.32291
 20
125.63938
 30
 0
 11
33.51547
 21
125.61531
  0
LINE
  8
Engraving
 62
   7
 39
0.400
  6
CONTINUOUS
 10
33.51547
 20
125.61531
 30
 0
 11
33.68397
 21
125.51902
  0
LINE
  8
Engraving
 62
   7
 39
0.400
  6
CONTINUOUS
 10
33.68397
 20
125.51902
 30
 0
 11
33.82839
 21
125.32646
  0
LINE
  8
Engraving
 62
   7
 39
0.400
  6
CONTINUOUS
 10
33.82839
 20
125.32646
 30
 0
 11
33.87654
 21
125.06168
  0
LINE
  8
Engraving
 62
   7
 39
0.400
  6
CONTINUOUS
 10
33.87654
 20
125.06168
 30
 0
 11
33.87654
 21
124.45991
  0
LINE
  8
Engraving
 62
   7
 39
0.400
  6
CONTINUOUS
 10
33.87654
 20
124.45991
 30
 0
 11
32.62485
 21
124.45991
  0
LINE
  8
Engraving
 62
   7
 39
0.400
  6
CONTINUOUS
 10
36.90985
 20
123.47300
 30
 0
 11
36.90985
 21
126.53000
  0
LINE
  8
Engraving
 62
   7
 39
0.400
  6
CONTINUOUS
 10
36.90985
 20
126.53000
 30
 0
 11
37.12649
 21
126.53000
  0
LINE
  8
Engraving
 62
   7
 39
0.400
  6
CONTINUOUS
 10
37.12649
 20
126.53000
 30
 0
 11
38.01711
 21
123.47300
  0
LINE
  8
Engraving
 62
   7
 39
0.400
  6
CONTINUOUS
 10
38.01711
 20
123.47300
 30
 0
 11
38.88366
 21
126.53000
  0
LINE
  8
Engraving
 62
   7
 39
0.400
  6
CONTINUOUS
 10
38.88366
 20
126.53000
 30
 0
 11
39.10030
 21
126.53000
  0
LINE
  8
Engraving
 62
   7
 39
0.400
  6
CONTINUOUS
 10
39.10030
 20
126.53000
 30
 0
 11
39.10030
 21
123.47300
  0
LINE
  8
Engraving
 62
   7
 39
0.400
  6
CONTINUOUS
 10
39.74999
 20
124.89318
 30
 0
 11
39.74999
 21
125.15796
  0
LINE
  8
Engraving
 62
   7
 39
0.400
  6
CONTINUOUS
 10
39.74999
 20
125.15796
 30
 0
 11
39.79813
 21
125.35053
  0
LINE
  8
Engraving
 62
   7
 39
0.400
  6
CONTINUOUS
 10
39.79813
 20
125.35053
 30
 0
 11
39.89442
 21
125.49495
  0
LINE
  8
Engraving
 62
   7
 39
0.400
  6
CONTINUOUS
 10
39.89442
 20
125.49495
 30
 0
 11
40.03884
 21
125.59124
  0
LINE
  8
Engraving
 62
   7
 39
0.400
  6
CONTINUOUS
 10
40.03884
 20
125.59124
 30
 0
 11
40.25548
 21
125.63938
  0
LINE
  8
Engraving
 62
   7
 39
0.400
  6
CONTINUOUS
 10
40.25548
 20
125.63938
 30
 0
 11
40.44805
 21
125.63938
  0
LINE
  8
Engraving
 62
   7
 39
0.400
  6
CONTINUOUS
 10
40.44805
 20
125.63938
 30
 0
 11
40.66469
 21
125.59124
  0
LINE
  8
Engraving
 62
   7
 39
0.400
  6
CONTINUOUS
 10
40.66469
 20
125.59124
 30
 0
 11
40.78504
 21
125.49495
  0
LINE
  8
Engraving
 62
   7
 39
0.400
  6
CONTINUOUS
 10
40.78504
 20
125.49495
 30
 0
 11
40.88132
 21
125.37460
  0
LINE
  8
Engraving
 62
   7
 39
0.400
  6
CONTINUOUS
 10
40.88132
 20
125.37460
 30
 0
 11
40.92946
 21
125.15796
  0
LINE
  8
Engraving
 62
   7
 39
0.400
  6
CONTINUOUS
 10
40.92946
 20
125.15796
 30
 0
 11
40.92946
 21
123.47300
  0
LINE
  8
Engraving
 62
   7
 39
0.400
  6
CONTINUOUS
 10
40.92946
 20
123.47300
 30
 0
 11
40.92946
 21
123.59335
  0
LINE
  8
Engraving
 62
   7
 39
0.400
  6
CONTINUOUS
 10
40.92946
 20
123.59335
 30
 0
 11
40.78504
 21
123.54521
  0
LINE
  8
Engraving
 62
   7
 39
0.400
  6
CONTINUOUS
 10
40.78504
 20
123.54521
 30
 0
 11
40.56840
 21
123.47300
  0
LINE
  8
Engraving
 62
   7
 39
0.400
  6
CONTINUOUS
 10
40.56840
 20
123.47300
 30
 0
 11
40.37583
 21
123.44893
  0
LINE
  8
Engraving
 62
   7
 39
0.400
  6
CONTINUOUS
 10
40.37583
 20
123.44893
 30
 0
 11
40.20734
 21
123.44893
  0
LINE
  8
Engraving
 62
   7
 39
0.400
  6
CONTINUOUS
 10
40.20734
 20
123.44893
 30
 0
 11
40.06291
 21
123.47300
  0
LINE
  8
Engraving
 62
   7
 39
0.400
  6
CONTINUOUS
 10
40.06291
 20
123.47300
 30
 0
 11
39.91849
 21
123.54521
  0
LINE
  8
Engraving
 62
   7
 39
0.400
  6
CONTINUOUS
 10
39.91849
 20
123.54521
 30
 0
 11
39.77406
 21
123.71371
  0
LINE
  8
Engraving
 62
   7
 39
0.400
  6
CONTINUOUS
 10
39.77406
 20
123.71371
 30
 0
 11
39.72592
 21
123.93035
  0
LINE
  8
Engraving
 62
   7
 39
0.400
  6
CONTINUOUS
 10
39.72592
 20
123.93035
 30
 0
 11
39.72592
 21
124.17106
  0
LINE
  8
Engraving
 62
   7
 39
0.400
  6
CONTINUOUS
 10
39.72592
 20
124.17106
 30
 0
 11
39.77406
 21
124.41176
  0
LINE
  8
Engraving
 62
   7
 39
0.400
  6
CONTINUOUS
 10
39.77406
 20
124.41176
 30
 0
 11
39.87035
 21
124.55619
  0
LINE
  8
Engraving
 62
   7
 39
0.400
  6
CONTINUOUS
 10
39.87035
 20
124.55619
 30
 0
 11
40.01477
 21
124.65247
  0
LINE
  8
Engraving
 62
   7
 39
0.400
  6
CONTINUOUS
 10
40.01477
 20
124.65247
 30
 0
 11
40.20734
 21
124.70061
  0
LINE
  8
Engraving
 62
   7
 39
0.400
  6
CONTINUOUS
 10
40.20734
 20
124.70061
 30
 0
 11
40.92946
 21
124.70061
  0
LINE
  8
Engraving
 62
   7
 39
0.400
  6
CONTINUOUS
 10
42.03634
 20
125.97737
 30
 0
 11
42.03634
 21
123.78692
  0
LINE
  8
Engraving
 62
   7
 39
0.400
  6
CONTINUOUS
 10
42.03634
 20
123.78692
 30
 0
 11
42.06041
 21
123.64250
  0
LINE
  8
Engraving
 62
   7
 39
0.400
  6
CONTINUOUS
 10
42.06041
 20
123.64250
 30
 0
 11
42.10855
 21
123.52214
  0
LINE
  8
Engraving
 62
   7
 39
0.400
  6
CONTINUOUS
 10
42.10855
 20
123.52214
 30
 0
 11
42.20483
 21
123.47400
  0
LINE
  8
Engraving
 62
   7
 39
0.400
  6
CONTINUOUS
 10
42.20483
 20
123.47400
 30
 0
 11
42.51776
 21
123.49807
  0
LINE
  8
Engraving
 62
   7
 39
0.400
  6
CONTINUOUS
 10
41.55492
 20
125.64038
 30
 0
 11
42.49369
 21
125.64038
  0
LINE
  8
Engraving
 62
   7
 39
0.400
  6
CONTINUOUS
 10
43.14292
 20
123.47400
 30
 0
 11
43.14292
 21
125.61631
  0
LINE
  8
Engraving
 62
   7
 39
0.400
  6
CONTINUOUS
 10
43.14292
 20
125.61631
 30
 0
 11
43.14292
 21
125.42374
  0
LINE
  8
Engraving
 62
   7
 39
0.400
  6
CONTINUOUS
 10
43.14292
 20
125.42374
 30
 0
 11
43.40770
 21
125.54409
  0
LINE
  8
Engraving
 62
   7
 39
0.400
  6
CONTINUOUS
 10
43.40770
 20
125.54409
 30
 0
 11
43.57620
 21
125.61631
  0
LINE
  8
Engraving
 62
   7
 39
0.400
  6
CONTINUOUS
 10
43.57620
 20
125.61631
 30
 0
 11
43.79283
 21
125.64038
  0
LINE
  8
Engraving
 62
   7
 39
0.400
  6
CONTINUOUS
 10
43.79283
 20
125.64038
 30
 0
 11
43.98540
 21
125.64038
  0
LINE
  8
Engraving
 62
   7
 39
0.400
  6
CONTINUOUS
 10
44.56285
 20
126.26622
 30
 0
 11
44.56285
 21
126.53100
  0
LINE
  8
Engraving
 62
   7
 39
0.400
  6
CONTINUOUS
 10
44.56285
 20
126.53100
 30
 0
 11
44.82763
 21
126.53100
  0
LINE
  8
Engraving
 62
   7
 39
0.400
  6
CONTINUOUS
 10
44.82763
 20
126.53100
 30
 0
 11
44.82763
 21
126.26622
  0
LINE
  8
Engraving
 62
   7
 39
0.400
  6
CONTINUOUS
 10
44.82763
 20
126.26622
 30
 0
 11
44.56285
 21
126.26622
  0
LINE
  8
Engraving
 62
   7
 39
0.400
  6
CONTINUOUS
 10
44.70728
 20
125.61631
 30
 0
 11
44.70728
 21
123.47400
  0
LINE
  8
Engraving
 62
   7
 39
0.400
  6
CONTINUOUS
 10
45.52513
 20
125.61731
 30
 0
 11
46.84903
 21
123.47500
  0
LINE
  8
Engraving
 62
   7
 39
0.400
  6
CONTINUOUS
 10
45.45292
 20
123.47500
 30
 0
 11
46.80089
 21
125.61731
  0
LINE
  8
Engraving
 62
   7
 39
0.400
  6
CONTINUOUS
 10
20.52835
 20
37.83747
 30
 0
 11
20.79071
 21
38.01910
  0
LINE
  8
Engraving
 62
   7
 39
0.400
  6
CONTINUOUS
 10
20.79071
 20
38.01910
 30
 0
 11
21.05306
 21
38.34200
  0
LINE
  8
Engraving
 62
   7
 39
0.400
  6
CONTINUOUS
 10
21.05306
 20
38.34200
 30
 0
 11
21.05306
 21
35.77900
  0
ARC
  8
Engraving
 62
   7
 39
0.400
  6
CONTINUOUS
 10
34.13764
 20
37.79006
 30
 0
 40
0.58860
 50
103.59010
 51
197.25422
  0
ARC
  8
Engraving
 62
   7
 39
0.400
  6
CONTINUOUS
 10
34.15663
 20
37.83203
 30
 0
 40
0.55300
 50
6.85332
 51
106.52541
  0
ARC
  8
Engraving
 62
   7
 39
0.400
  6
CONTINUOUS
 10
33.48317
 20
37.71672
 30
 0
 40
1.23587
 50
-32.62504
 51
8.43552
  0
ARC
  8
Engraving
 62
   7
 39
0.400
  6
CONTINUOUS
 10
31.99491
 20
38.56927
 30
 0
 40
2.95016
 50
312.79903
 51
329.01325
  0
LINE
  8
Engraving
 62
   7
 39
0.400
  6
CONTINUOUS
 10
33.99934
 20
36.40461
 30
 0
 11
33.53517
 21
35.92027
  0
LINE
  8
Engraving
 62
   7
 39
0.400
  6
CONTINUOUS
 10
33.53517
 20
35.92027
 30
 0
 11
33.53517
 21
35.77900
  0
LINE
  8
Engraving
 62
   7
 39
0.400
  6
CONTINUOUS
 10
33.53517
 20
35.77900
 30
 0
 11
34.72586
 21
35.77900
  0
LINE
  8
Engraving
 62
   7
 39
0.400
  6
CONTINUOUS
 10
34.72586
 20
35.77900
 30
 0
 11
33.53517
 21
35.77900
  0
LINE
  8
Engraving
 62
   7
 39
0.400
  6
CONTINUOUS
 10
46.89517
 20
36.52570
 30
 0
 11
46.89517
 21
36.28353
  0
LINE
  8
Engraving
 62
   7
 39
0.400
  6
CONTINUOUS
 10
46.89517
 20
36.28353
 30
 0
 11
46.93554
 21
36.08172
  0
LINE
  8
Engraving
 62
   7
 39
0.400
  6
CONTINUOUS
 10
46.93554
 20
36.08172
 30
 0
 11
47.03644
 21
35.94045
  0
LINE
  8
Engraving
 62
   7
 39
0.400
  6
CONTINUOUS
 10
47.03644
 20
35.94045
 30
 0
 11
47.15753
 21
35.83954
  0
LINE
  8
Engraving
 62
   7
 39
0.400
  6
CONTINUOUS
 10
47.15753
 20
35.83954
 30
 0
 11
47.35934
 21
35.77900
  0
LINE
  8
Engraving
 62
   7
 39
0.400
  6
CONTINUOUS
 10
47.35934
 20
35.77900
 30
 0
 11
47.46024
 21
35.75882
  0
LINE
  8
Engraving
 62
   7
 39
0.400
  6
CONTINUOUS
 10
47.46024
 20
35.75882
 30
 0
 11
47.64187
 21
35.77900
  0
LINE
  8
Engraving
 62
   7
 39
0.400
  6
CONTINUOUS
 10
47.64187
 20
35.77900
 30
 0
 11
47.78314
 21
35.83954
  0
LINE
  8
Engraving
 62
   7
 39
0.400
  6
CONTINUOUS
 10
47.78314
 20
35.83954
 30
 0
 11
47.90423
 21
35.94045
  0
LINE
  8
Engraving
 62
   7
 39
0.400
  6
CONTINUOUS
 10
47.90423
 20
35.94045
 30
 0
 11
48.00513
 21
36.08172
  0
LINE
  8
Engraving
 62
   7
 39
0.400
  6
CONTINUOUS
 10
48.00513
 20
36.08172
 30
 0
 11
48.04550
 21
36.28353
  0
LINE
  8
Engraving
 62
   7
 39
0.400
  6
CONTINUOUS
 10
48.04550
 20
36.28353
 30
 0
 11
48.04550
 21
36.74769
  0
LINE
  8
Engraving
 62
   7
 39
0.400
  6
CONTINUOUS
 10
48.04550
 20
36.74769
 30
 0
 11
48.00513
 21
36.92932
  0
LINE
  8
Engraving
 62
   7
 39
0.400
  6
CONTINUOUS
 10
48.00513
 20
36.92932
 30
 0
 11
47.90423
 21
37.07059
  0
LINE
  8
Engraving
 62
   7
 39
0.400
  6
CONTINUOUS
 10
47.90423
 20
37.07059
 30
 0
 11
47.72260
 21
37.15131
  0
LINE
  8
Engraving
 62
   7
 39
0.400
  6
CONTINUOUS
 10
47.72260
 20
37.15131
 30
 0
 11
47.23825
 21
37.15131
  0
LINE
  8
Engraving
 62
   7
 39
0.400
  6
CONTINUOUS
 10
47.23825
 20
37.15131
 30
 0
 11
47.72260
 21
37.15131
  0
LINE
  8
Engraving
 62
   7
 39
0.400
  6
CONTINUOUS
 10
47.72260
 20
37.15131
 30
 0
 11
47.88405
 21
37.27240
  0
LINE
  8
Engraving
 62
   7
 39
0.400
  6
CONTINUOUS
 10
47.88405
 20
37.27240
 30
 0
 11
47.98495
 21
37.37331
  0
LINE
  8
Engraving
 62
   7
 39
0.400
  6
CONTINUOUS
 10
47.98495
 20
37.37331
 30
 0
 11
48.00513
 21
37.51457
  0
LINE
  8
Engraving
 62
   7
 39
0.400
  6
CONTINUOUS
 10
48.00513
 20
37.51457
 30
 0
 11
48.00513
 21
37.89802
  0
LINE
  8
Engraving
 62
   7
 39
0.400
  6
CONTINUOUS
 10
48.00513
 20
37.89802
 30
 0
 11
47.98495
 21
38.05946
  0
LINE
  8
Engraving
 62
   7
 39
0.400
  6
CONTINUOUS
 10
47.98495
 20
38.05946
 30
 0
 11
47.90423
 21
38.20073
  0
LINE
  8
Engraving
 62
   7
 39
0.400
  6
CONTINUOUS
 10
47.90423
 20
38.20073
 30
 0
 11
47.78314
 21
38.32182
  0
LINE
  8
Engraving
 62
   7
 39
0.400
  6
CONTINUOUS
 10
47.78314
 20
38.32182
 30
 0
 11
47.64187
 21
38.36218
  0
LINE
  8
Engraving
 62
   7
 39
0.400
  6
CONTINUOUS
 10
47.64187
 20
38.36218
 30
 0
 11
47.52079
 21
38.38236
  0
LINE
  8
Engraving
 62
   7
 39
0.400
  6
CONTINUOUS
 10
47.52079
 20
38.38236
 30
 0
 11
47.41988
 21
38.38236
  0
LINE
  8
Engraving
 62
   7
 39
0.400
  6
CONTINUOUS
 10
47.41988
 20
38.38236
 30
 0
 11
47.25843
 21
38.36218
  0
LINE
  8
Engraving
 62
   7
 39
0.400
  6
CONTINUOUS
 10
47.25843
 20
38.36218
 30
 0
 11
47.11717
 21
38.28146
  0
LINE
  8
Engraving
 62
   7
 39
0.400
  6
CONTINUOUS
 10
47.11717
 20
38.28146
 30
 0
 11
47.01626
 21
38.18055
  0
LINE
  8
Engraving
 62
   7
 39
0.400
  6
CONTINUOUS
 10
47.01626
 20
38.18055
 30
 0
 11
46.95572
 21
38.03928
  0
LINE
  8
Engraving
 62
   7
 39
0.400
  6
CONTINUOUS
 10
46.95572
 20
38.03928
 30
 0
 11
46.91535
 21
37.89802
  0
LINE
  8
Engraving
 62
   7
 39
0.400
  6
CONTINUOUS
 10
46.91535
 20
37.89802
 30
 0
 11
46.91535
 21
37.65584
  0
LINE
  8
Engraving
 62
   7
 39
0.400
  6
CONTINUOUS
 10
61.08350
 20
35.77900
 30
 0
 11
61.08350
 21
38.34200
  0
LINE
  8
Engraving
 62
   7
 39
0.400
  6
CONTINUOUS
 10
61.08350
 20
38.34200
 30
 0
 11
60.98260
 21
38.34200
  0
LINE
  8
Engraving
 62
   7
 39
0.400
  6
CONTINUOUS
 10
60.98260
 20
38.34200
 30
 0
 11
60.15517
 21
36.54588
  0
LINE
  8
Engraving
 62
   7
 39
0.400
  6
CONTINUOUS
 10
60.15517
 20
36.54588
 30
 0
 11
61.46694
 21
36.54588
  0
LINE
  8
Engraving
 62
   7
 39
0.400
  6
CONTINUOUS
 10
2.85317
 20
26.91059
 30
 0
 11
2.85317
 21
26.08317
  0
LINE
  8
Engraving
 62
   7
 39
0.400
  6
CONTINUOUS
 10
2.85317
 20
26.08317
 30
 0
 11
2.89354
 21
25.88135
  0
LINE
  8
Engraving
 62
   7
 39
0.400
  6
CONTINUOUS
 10
2.89354
 20
25.88135
 30
 0
 11
2.97426
 21
25.76027
  0
LINE
  8
Engraving
 62
   7
 39
0.400
  6
CONTINUOUS
 10
2.97426
 20
25.76027
 30
 0
 11
3.07517
 21
25.67954
  0
LINE
  8
Engraving
 62
   7
 39
0.400
  6
CONTINUOUS
 10
3.07517
 20
25.67954
 30
 0
 11
3.21643
 21
25.59882
  0
LINE
  8
Engraving
 62
   7
 39
0.400
  6
CONTINUOUS
 10
3.21643
 20
25.59882
 30
 0
 11
3.33752
 21
25.59882
  0
LINE
  8
Engraving
 62
   7
 39
0.400
  6
CONTINUOUS
 10
3.33752
 20
25.59882
 30
 0
 11
3.66042
 21
25.59882
  0
LINE
  8
Engraving
 62
   7
 39
0.400
  6
CONTINUOUS
 10
3.66042
 20
25.59882
 30
 0
 11
3.84205
 21
25.61900
  0
LINE
  8
Engraving
 62
   7
 39
0.400
  6
CONTINUOUS
 10
3.84205
 20
25.61900
 30
 0
 11
3.98331
 21
25.69972
  0
LINE
  8
Engraving
 62
   7
 39
0.400
  6
CONTINUOUS
 10
3.98331
 20
25.69972
 30
 0
 11
4.10440
 21
25.86117
  0
LINE
  8
Engraving
 62
   7
 39
0.400
  6
CONTINUOUS
 10
4.10440
 20
25.86117
 30
 0
 11
4.16494
 21
26.08317
  0
LINE
  8
Engraving
 62
   7
 39
0.400
  6
CONTINUOUS
 10
4.16494
 20
26.08317
 30
 0
 11
4.16494
 21
27.71783
  0
LINE
  8
Engraving
 62
   7
 39
0.400
  6
CONTINUOUS
 10
4.16494
 20
27.71783
 30
 0
 11
4.12458
 21
27.87928
  0
LINE
  8
Engraving
 62
   7
 39
0.400
  6
CONTINUOUS
 10
4.12458
 20
27.87928
 30
 0
 11
4.04386
 21
28.04073
  0
LINE
  8
Engraving
 62
   7
 39
0.400
  6
CONTINUOUS
 10
4.04386
 20
28.04073
 30
 0
 11
3.94295
 21
28.12146
  0
LINE
  8
Engraving
 62
   7
 39
0.400
  6
CONTINUOUS
 10
3.94295
 20
28.12146
 30
 0
 11
3.84205
 21
28.18200
  0
LINE
  8
Engraving
 62
   7
 39
0.400
  6
CONTINUOUS
 10
3.84205
 20
28.18200
 30
 0
 11
3.66042
 21
28.20218
  0
LINE
  8
Engraving
 62
   7
 39
0.400
  6
CONTINUOUS
 10
3.66042
 20
28.20218
 30
 0
 11
3.33752
 21
28.20218
  0
LINE
  8
Engraving
 62
   7
 39
0.400
  6
CONTINUOUS
 10
3.33752
 20
28.20218
 30
 0
 11
3.17607
 21
28.18200
  0
LINE
  8
Engraving
 62
   7
 39
0.400
  6
CONTINUOUS
 10
3.17607
 20
28.18200
 30
 0
 11
3.03480
 21
28.10128
  0
LINE
  8
Engraving
 62
   7
 39
0.400
  6
CONTINUOUS
 10
3.03480
 20
28.10128
 30
 0
 11
2.93390
 21
28.00037
  0
LINE
  8
Engraving
 62
   7
 39
0.400
  6
CONTINUOUS
 10
2.93390
 20
28.00037
 30
 0
 11
2.87335
 21
27.87928
  0
LINE
  8
Engraving
 62
   7
 39
0.400
  6
CONTINUOUS
 10
2.87335
 20
27.87928
 30
 0
 11
2.85317
 21
27.71783
  0
LINE
  8
Engraving
 62
   7
 39
0.400
  6
CONTINUOUS
 10
2.85317
 20
27.71783
 30
 0
 11
2.85317
 21
26.91059
  0
LINE
  8
Engraving
 62
   7
 39
0.400
  6
CONTINUOUS
 10
4.69035
 20
28.18200
 30
 0
 11
4.69035
 21
26.10335
  0
LINE
  8
Engraving
 62
   7
 39
0.400
  6
CONTINUOUS
 10
4.69035
 20
26.10335
 30
 0
 11
4.75090
 21
25.86117
  0
LINE
  8
Engraving
 62
   7
 39
0.400
  6
CONTINUOUS
 10
4.75090
 20
25.86117
 30
 0
 11
4.83162
 21
25.74009
  0
LINE
  8
Engraving
 62
   7
 39
0.400
  6
CONTINUOUS
 10
4.83162
 20
25.74009
 30
 0
 11
4.99307
 21
25.63918
  0
LINE
  8
Engraving
 62
   7
 39
0.400
  6
CONTINUOUS
 10
4.99307
 20
25.63918
 30
 0
 11
5.19488
 21
25.59882
  0
LINE
  8
Engraving
 62
   7
 39
0.400
  6
CONTINUOUS
 10
5.19488
 20
25.59882
 30
 0
 11
5.45724
 21
25.59882
  0
LINE
  8
Engraving
 62
   7
 39
0.400
  6
CONTINUOUS
 10
5.45724
 20
25.59882
 30
 0
 11
5.61869
 21
25.61900
  0
LINE
  8
Engraving
 62
   7
 39
0.400
  6
CONTINUOUS
 10
5.61869
 20
25.61900
 30
 0
 11
5.80031
 21
25.71991
  0
LINE
  8
Engraving
 62
   7
 39
0.400
  6
CONTINUOUS
 10
5.80031
 20
25.71991
 30
 0
 11
5.94158
 21
25.90154
  0
LINE
  8
Engraving
 62
   7
 39
0.400
  6
CONTINUOUS
 10
5.94158
 20
25.90154
 30
 0
 11
5.98194
 21
26.10335
  0
LINE
  8
Engraving
 62
   7
 39
0.400
  6
CONTINUOUS
 10
5.98194
 20
26.10335
 30
 0
 11
5.98194
 21
28.18200
  0
LINE
  8
Engraving
 62
   7
 39
0.400
  6
CONTINUOUS
 10
7.17333
 20
25.62000
 30
 0
 11
7.17333
 21
28.18300
  0
LINE
  8
Engraving
 62
   7
 39
0.400
  6
CONTINUOUS
 10
6.48717
 20
28.18300
 30
 0
 11
7.87967
 21
28.18300
  0
LINE
  8
Engraving
 62
   7
 39
0.400
  6
CONTINUOUS
 10
8.40435
 20
25.62000
 30
 0
 11
8.40435
 21
28.18300
  0
LINE
  8
Engraving
 62
   7
 39
0.400
  6
CONTINUOUS
 10
8.40435
 20
28.18300
 30
 0
 11
9.13087
 21
28.18300
  0
LINE
  8
Engraving
 62
   7
 39
0.400
  6
CONTINUOUS
 10
9.13087
 20
28.18300
 30
 0
 11
9.35287
 21
28.12246
  0
LINE
  8
Engraving
 62
   7
 39
0.400
  6
CONTINUOUS
 10
9.35287
 20
28.12246
 30
 0
 11
9.49413
 21
28.02155
  0
LINE
  8
Engraving
 62
   7
 39
0.400
  6
CONTINUOUS
 10
9.49413
 20
28.02155
 30
 0
 11
9.59504
 21
27.88028
  0
LINE
  8
Engraving
 62
   7
 39
0.400
  6
CONTINUOUS
 10
9.59504
 20
27.88028
 30
 0
 11
9.61522
 21
27.69865
  0
LINE
  8
Engraving
 62
   7
 39
0.400
  6
CONTINUOUS
 10
9.61522
 20
27.69865
 30
 0
 11
9.61522
 21
27.41612
  0
LINE
  8
Engraving
 62
   7
 39
0.400
  6
CONTINUOUS
 10
9.61522
 20
27.41612
 30
 0
 11
9.59504
 21
27.25467
  0
LINE
  8
Engraving
 62
   7
 39
0.400
  6
CONTINUOUS
 10
9.59504
 20
27.25467
 30
 0
 11
9.49413
 21
27.09322
  0
LINE
  8
Engraving
 62
   7
 39
0.400
  6
CONTINUOUS
 10
9.49413
 20
27.09322
 30
 0
 11
9.37305
 21
26.99231
  0
LINE
  8
Engraving
 62
   7
 39
0.400
  6
CONTINUOUS
 10
9.37305
 20
26.99231
 30
 0
 11
9.15106
 21
26.93177
  0
LINE
  8
Engraving
 62
   7
 39
0.400
  6
CONTINUOUS
 10
9.15106
 20
26.93177
 30
 0
 11
8.40435
 21
26.93177
  0
LINE
  8
Engraving
 62
   7
 39
0.400
  6
CONTINUOUS
 10
10.13935
 20
28.18300
 30
 0
 11
10.13935
 21
26.10435
  0
LINE
  8
Engraving
 62
   7
 39
0.400
  6
CONTINUOUS
 10
10.13935
 20
26.10435
 30
 0
 11
10.19990
 21
25.86217
  0
LINE
  8
Engraving
 62
   7
 39
0.400
  6
CONTINUOUS
 10
10.19990
 20
25.86217
 30
 0
 11
10.28062
 21
25.74109
  0
LINE
  8
Engraving
 62
   7
 39
0.400
  6
CONTINUOUS
 10
10.28062
 20
25.74109
 30
 0
 11
10.44207
 21
25.64018
  0
LINE
  8
Engraving
 62
   7
 39
0.400
  6
CONTINUOUS
 10
10.44207
 20
25.64018
 30
 0
 11
10.64388
 21
25.59982
  0
LINE
  8
Engraving
 62
   7
 39
0.400
  6
CONTINUOUS
 10
10.64388
 20
25.59982
 30
 0
 11
10.90624
 21
25.59982
  0
LINE
  8
Engraving
 62
   7
 39
0.400
  6
CONTINUOUS
 10
10.90624
 20
25.59982
 30
 0
 11
11.06769
 21
25.62000
  0
LINE
  8
Engraving
 62
   7
 39
0.400
  6
CONTINUOUS
 10
11.06769
 20
25.62000
 30
 0
 11
11.24931
 21
25.72091
  0
LINE
  8
Engraving
 62
   7
 39
0.400
  6
CONTINUOUS
 10
11.24931
 20
25.72091
 30
 0
 11
11.39058
 21
25.90254
  0
LINE
  8
Engraving
 62
   7
 39
0.400
  6
CONTINUOUS
 10
11.39058
 20
25.90254
 30
 0
 11
11.43094
 21
26.10435
  0
LINE
  8
Engraving
 62
   7
 39
0.400
  6
CONTINUOUS
 10
11.43094
 20
26.10435
 30
 0
 11
11.43094
 21
28.18300
  0
LINE
  8
Engraving
 62
   7
 39
0.400
  6
CONTINUOUS
 10
12.62133
 20
25.62100
 30
 0
 11
12.62133
 21
28.18400
  0
LINE
  8
Engraving
 62
   7
 39
0.400
  6
CONTINUOUS
 10
11.93517
 20
28.18400
 30
 0
 11
13.32767
 21
28.18400
  0
LINE
  8
Engraving
 62
   7
 39
0.400
  6
CONTINUOUS
 10
6.47576
 20
47.81584
 30
 0
 11
6.47576
 21
48.05802
  0
LINE
  8
Engraving
 62
   7
 39
0.400
  6
CONTINUOUS
 10
6.47576
 20
48.05802
 30
 0
 11
6.45558
 21
48.23965
  0
LINE
  8
Engraving
 62
   7
 39
0.400
  6
CONTINUOUS
 10
6.45558
 20
48.23965
 30
 0
 11
6.37486
 21
48.36073
  0
LINE
  8
Engraving
 62
   7
 39
0.400
  6
CONTINUOUS
 10
6.37486
 20
48.36073
 30
 0
 11
6.25377
 21
48.46164
  0
LINE
  8
Engraving
 62
   7
 39
0.400
  6
CONTINUOUS
 10
6.25377
 20
48.46164
 30
 0
 11
6.13269
 21
48.52218
  0
LINE
  8
Engraving
 62
   7
 39
0.400
  6
CONTINUOUS
 10
6.13269
 20
48.52218
 30
 0
 11
6.01160
 21
48.52218
  0
LINE
  8
Engraving
 62
   7
 39
0.400
  6
CONTINUOUS
 10
6.01160
 20
48.52218
 30
 0
 11
5.66852
 21
48.52218
  0
LINE
  8
Engraving
 62
   7
 39
0.400
  6
CONTINUOUS
 10
5.66852
 20
48.52218
 30
 0
 11
5.50707
 21
48.50200
  0
LINE
  8
Engraving
 62
   7
 39
0.400
  6
CONTINUOUS
 10
5.50707
 20
48.50200
 30
 0
 11
5.36580
 21
48.42128
  0
LINE
  8
Engraving
 62
   7
 39
0.400
  6
CONTINUOUS
 10
5.36580
 20
48.42128
 30
 0
 11
5.28508
 21
48.34055
  0
LINE
  8
Engraving
 62
   7
 39
0.400
  6
CONTINUOUS
 10
5.28508
 20
48.34055
 30
 0
 11
5.22454
 21
48.21946
  0
LINE
  8
Engraving
 62
   7
 39
0.400
  6
CONTINUOUS
 10
5.22454
 20
48.21946
 30
 0
 11
5.20435
 21
48.05802
  0
LINE
  8
Engraving
 62
   7
 39
0.400
  6
CONTINUOUS
 10
5.20435
 20
48.05802
 30
 0
 11
5.20435
 21
46.40317
  0
LINE
  8
Engraving
 62
   7
 39
0.400
  6
CONTINUOUS
 10
5.20435
 20
46.40317
 30
 0
 11
5.22454
 21
46.22154
  0
LINE
  8
Engraving
 62
   7
 39
0.400
  6
CONTINUOUS
 10
5.22454
 20
46.22154
 30
 0
 11
5.32544
 21
46.06009
  0
LINE
  8
Engraving
 62
   7
 39
0.400
  6
CONTINUOUS
 10
5.32544
 20
46.06009
 30
 0
 11
5.46671
 21
45.95918
  0
LINE
  8
Engraving
 62
   7
 39
0.400
  6
CONTINUOUS
 10
5.46671
 20
45.95918
 30
 0
 11
5.64834
 21
45.91882
  0
LINE
  8
Engraving
 62
   7
 39
0.400
  6
CONTINUOUS
 10
5.64834
 20
45.91882
 30
 0
 11
5.82997
 21
45.91882
  0
LINE
  8
Engraving
 62
   7
 39
0.400
  6
CONTINUOUS
 10
5.82997
 20
45.91882
 30
 0
 11
6.05196
 21
45.91882
  0
LINE
  8
Engraving
 62
   7
 39
0.400
  6
CONTINUOUS
 10
6.05196
 20
45.91882
 30
 0
 11
6.27395
 21
45.93900
  0
LINE
  8
Engraving
 62
   7
 39
0.400
  6
CONTINUOUS
 10
6.27395
 20
45.93900
 30
 0
 11
6.49594
 21
46.01972
  0
LINE
  8
Engraving
 62
   7
 39
0.400
  6
CONTINUOUS
 10
6.49594
 20
46.01972
 30
 0
 11
6.49594
 21
47.21041
  0
LINE
  8
Engraving
 62
   7
 39
0.400
  6
CONTINUOUS
 10
6.49594
 20
47.21041
 30
 0
 11
5.82997
 21
47.21041
  0
LINE
  8
Engraving
 62
   7
 39
0.400
  6
CONTINUOUS
 10
7.02135
 20
45.94000
 30
 0
 11
7.74787
 21
48.50300
  0
LINE
  8
Engraving
 62
   7
 39
0.400
  6
CONTINUOUS
 10
7.74787
 20
48.50300
 30
 0
 11
7.82860
 21
48.50300
  0
LINE
  8
Engraving
 62
   7
 39
0.400
  6
CONTINUOUS
 10
7.82860
 20
48.50300
 30
 0
 11
8.55512
 21
45.94000
  0
LINE
  8
Engraving
 62
   7
 39
0.400
  6
CONTINUOUS
 10
7.24335
 20
46.72706
 30
 0
 11
8.33313
 21
46.72706
  0
LINE
  8
Engraving
 62
   7
 39
0.400
  6
CONTINUOUS
 10
9.07935
 20
48.50300
 30
 0
 11
9.07935
 21
45.94000
  0
LINE
  8
Engraving
 62
   7
 39
0.400
  6
CONTINUOUS
 10
9.58317
 20
45.94000
 30
 0
 11
9.58317
 21
48.50300
  0
LINE
  8
Engraving
 62
   7
 39
0.400
  6
CONTINUOUS
 10
9.58317
 20
48.50300
 30
 0
 11
9.76480
 21
48.50300
  0
LINE
  8
Engraving
 62
   7
 39
0.400
  6
CONTINUOUS
 10
9.76480
 20
48.50300
 30
 0
 11
10.97567
 21
45.94000
  0
LINE
  8
Engraving
 62
   7
 39
0.400
  6
CONTINUOUS
 10
10.97567
 20
45.94000
 30
 0
 11
10.97567
 21
48.50300
  0
LINE
  8
Engraving
 62
   7
 39
0.200
  6
CONTINUOUS
 10
1.36500
 20
82.56936
 30
 0
 11
3.63500
 21
82.56936
  0
LINE
  8
Engraving
 62
   7
 39
0.200
  6
CONTINUOUS
 10
3.63500
 20
83.01649
 30
 0
 11
1.36500
 21
83.01649
  0
LINE
  8
Engraving
 62
   7
 39
0.200
  6
CONTINUOUS
 10
1.36500
 20
83.01649
 30
 0
 11
1.36500
 21
83.17735
  0
LINE
  8
Engraving
 62
   7
 39
0.200
  6
CONTINUOUS
 10
1.36500
 20
83.17735
 30
 0
 11
3.63500
 21
84.24980
  0
LINE
  8
Engraving
 62
   7
 39
0.200
  6
CONTINUOUS
 10
3.63500
 20
84.24980
 30
 0
 11
1.36500
 21
84.24980
  0
LINE
  8
Engraving
 62
   7
 39
0.200
  6
CONTINUOUS
 10
3.63500
 20
84.71536
 30
 0
 11
1.36500
 21
84.71536
  0
LINE
  8
Engraving
 62
   7
 39
0.200
  6
CONTINUOUS
 10
1.36500
 20
84.71536
 30
 0
 11
1.36500
 21
85.35883
  0
LINE
  8
Engraving
 62
   7
 39
0.200
  6
CONTINUOUS
 10
1.36500
 20
85.35883
 30
 0
 11
1.41862
 21
85.55544
  0
LINE
  8
Engraving
 62
   7
 39
0.200
  6
CONTINUOUS
 10
1.41862
 20
85.55544
 30
 0
 11
1.50799
 21
85.68056
  0
LINE
  8
Engraving
 62
   7
 39
0.200
  6
CONTINUOUS
 10
1.50799
 20
85.68056
 30
 0
 11
1.63311
 21
85.76993
  0
LINE
  8
Engraving
 62
   7
 39
0.200
  6
CONTINUOUS
 10
1.63311
 20
85.76993
 30
 0
 11
1.79398
 21
85.78780
  0
LINE
  8
Engraving
 62
   7
 39
0.200
  6
CONTINUOUS
 10
1.79398
 20
85.78780
 30
 0
 11
2.04421
 21
85.78780
  0
LINE
  8
Engraving
 62
   7
 39
0.200
  6
CONTINUOUS
 10
2.04421
 20
85.78780
 30
 0
 11
2.18720
 21
85.76993
  0
LINE
  8
Engraving
 62
   7
 39
0.200
  6
CONTINUOUS
 10
2.18720
 20
85.76993
 30
 0
 11
2.33020
 21
85.68056
  0
LINE
  8
Engraving
 62
   7
 39
0.200
  6
CONTINUOUS
 10
2.33020
 20
85.68056
 30
 0
 11
2.41957
 21
85.57331
  0
LINE
  8
Engraving
 62
   7
 39
0.200
  6
CONTINUOUS
 10
2.41957
 20
85.57331
 30
 0
 11
2.47319
 21
85.37670
  0
LINE
  8
Engraving
 62
   7
 39
0.200
  6
CONTINUOUS
 10
2.47319
 20
85.37670
 30
 0
 11
2.47319
 21
84.71536
  0
LINE
  8
Engraving
 62
   7
 39
0.200
  6
CONTINUOUS
 10
1.36500
 20
86.25336
 30
 0
 11
3.20602
 21
86.25336
  0
LINE
  8
Engraving
 62
   7
 39
0.200
  6
CONTINUOUS
 10
3.20602
 20
86.25336
 30
 0
 11
3.42051
 21
86.30698
  0
LINE
  8
Engraving
 62
   7
 39
0.200
  6
CONTINUOUS
 10
3.42051
 20
86.30698
 30
 0
 11
3.52776
 21
86.37848
  0
LINE
  8
Engraving
 62
   7
 39
0.200
  6
CONTINUOUS
 10
3.52776
 20
86.37848
 30
 0
 11
3.61713
 21
86.52147
  0
LINE
  8
Engraving
 62
   7
 39
0.200
  6
CONTINUOUS
 10
3.61713
 20
86.52147
 30
 0
 11
3.65287
 21
86.70021
  0
LINE
  8
Engraving
 62
   7
 39
0.200
  6
CONTINUOUS
 10
3.65287
 20
86.70021
 30
 0
 11
3.65287
 21
86.93257
  0
LINE
  8
Engraving
 62
   7
 39
0.200
  6
CONTINUOUS
 10
3.65287
 20
86.93257
 30
 0
 11
3.63500
 21
87.07557
  0
LINE
  8
Engraving
 62
   7
 39
0.200
  6
CONTINUOUS
 10
3.63500
 20
87.07557
 30
 0
 11
3.54563
 21
87.23643
  0
LINE
  8
Engraving
 62
   7
 39
0.200
  6
CONTINUOUS
 10
3.54563
 20
87.23643
 30
 0
 11
3.38476
 21
87.36155
  0
LINE
  8
Engraving
 62
   7
 39
0.200
  6
CONTINUOUS
 10
3.38476
 20
87.36155
 30
 0
 11
3.20602
 21
87.39730
  0
LINE
  8
Engraving
 62
   7
 39
0.200
  6
CONTINUOUS
 10
3.20602
 20
87.39730
 30
 0
 11
1.36500
 21
87.39730
  0
LINE
  8
Engraving
 62
   7
 39
0.200
  6
CONTINUOUS
 10
3.63500
 20
88.45120
 30
 0
 11
1.36500
 21
88.45120
  0
LINE
  8
Engraving
 62
   7
 39
0.200
  6
CONTINUOUS
 10
1.36500
 20
87.84349
 30
 0
 11
1.36500
 21
89.07680
  0
LINE
  8
Engraving
 62
   7
 39
0.200
  6
CONTINUOUS
 10
2.92004
 20
89.54136
 30
 0
 11
3.22390
 21
89.54136
  0
LINE
  8
Engraving
 62
   7
 39
0.200
  6
CONTINUOUS
 10
3.22390
 20
89.54136
 30
 0
 11
3.38476
 21
89.57711
  0
LINE
  8
Engraving
 62
   7
 39
0.200
  6
CONTINUOUS
 10
3.38476
 20
89.57711
 30
 0
 11
3.52776
 21
89.66648
  0
LINE
  8
Engraving
 62
   7
 39
0.200
  6
CONTINUOUS
 10
3.52776
 20
89.66648
 30
 0
 11
3.61713
 21
89.79160
  0
LINE
  8
Engraving
 62
   7
 39
0.200
  6
CONTINUOUS
 10
3.61713
 20
89.79160
 30
 0
 11
3.65287
 21
89.97034
  0
LINE
  8
Engraving
 62
   7
 39
0.200
  6
CONTINUOUS
 10
3.65287
 20
89.97034
 30
 0
 11
3.65287
 21
90.18483
  0
LINE
  8
Engraving
 62
   7
 39
0.200
  6
CONTINUOUS
 10
3.65287
 20
90.18483
 30
 0
 11
3.63500
 21
90.30994
  0
LINE
  8
Engraving
 62
   7
 39
0.200
  6
CONTINUOUS
 10
3.63500
 20
90.30994
 30
 0
 11
3.54563
 21
90.47081
  0
LINE
  8
Engraving
 62
   7
 39
0.200
  6
CONTINUOUS
 10
3.54563
 20
90.47081
 30
 0
 11
3.40264
 21
90.57806
  0
LINE
  8
Engraving
 62
   7
 39
0.200
  6
CONTINUOUS
 10
3.40264
 20
90.57806
 30
 0
 11
3.22390
 21
90.61380
  0
LINE
  8
Engraving
 62
   7
 39
0.200
  6
CONTINUOUS
 10
3.22390
 20
90.61380
 30
 0
 11
3.09878
 21
90.61380
  0
LINE
  8
Engraving
 62
   7
 39
0.200
  6
CONTINUOUS
 10
3.09878
 20
90.61380
 30
 0
 11
2.97366
 21
90.57806
  0
LINE
  8
Engraving
 62
   7
 39
0.200
  6
CONTINUOUS
 10
2.97366
 20
90.57806
 30
 0
 11
2.83067
 21
90.50656
  0
LINE
  8
Engraving
 62
   7
 39
0.200
  6
CONTINUOUS
 10
2.83067
 20
90.50656
 30
 0
 11
2.75917
 21
90.43506
  0
LINE
  8
Engraving
 62
   7
 39
0.200
  6
CONTINUOUS
 10
2.75917
 20
90.43506
 30
 0
 11
2.66980
 21
90.32782
  0
LINE
  8
Engraving
 62
   7
 39
0.200
  6
CONTINUOUS
 10
2.66980
 20
90.32782
 30
 0
 11
2.20508
 21
89.80947
  0
LINE
  8
Engraving
 62
   7
 39
0.200
  6
CONTINUOUS
 10
2.20508
 20
89.80947
 30
 0
 11
2.13358
 21
89.72010
  0
LINE
  8
Engraving
 62
   7
 39
0.200
  6
CONTINUOUS
 10
2.13358
 20
89.72010
 30
 0
 11
2.02634
 21
89.63073
  0
LINE
  8
Engraving
 62
   7
 39
0.200
  6
CONTINUOUS
 10
2.02634
 20
89.63073
 30
 0
 11
1.97272
 21
89.59498
  0
LINE
  8
Engraving
 62
   7
 39
0.200
  6
CONTINUOUS
 10
1.97272
 20
89.59498
 30
 0
 11
1.88335
 21
89.57711
  0
LINE
  8
Engraving
 62
   7
 39
0.200
  6
CONTINUOUS
 10
1.88335
 20
89.57711
 30
 0
 11
1.72248
 21
89.57711
  0
LINE
  8
Engraving
 62
   7
 39
0.200
  6
CONTINUOUS
 10
1.72248
 20
89.57711
 30
 0
 11
1.56161
 21
89.63073
  0
LINE
  8
Engraving
 62
   7
 39
0.200
  6
CONTINUOUS
 10
1.56161
 20
89.63073
 30
 0
 11
1.45437
 21
89.70223
  0
LINE
  8
Engraving
 62
   7
 39
0.200
  6
CONTINUOUS
 10
1.45437
 20
89.70223
 30
 0
 11
1.38287
 21
89.80947
  0
LINE
  8
Engraving
 62
   7
 39
0.200
  6
CONTINUOUS
 10
1.38287
 20
89.80947
 30
 0
 11
1.34713
 21
89.98821
  0
LINE
  8
Engraving
 62
   7
 39
0.200
  6
CONTINUOUS
 10
1.34713
 20
89.98821
 30
 0
 11
1.34713
 21
90.16695
  0
LINE
  8
Engraving
 62
   7
 39
0.200
  6
CONTINUOUS
 10
1.34713
 20
90.16695
 30
 0
 11
1.36500
 21
90.27420
  0
LINE
  8
Engraving
 62
   7
 39
0.200
  6
CONTINUOUS
 10
1.36500
 20
90.27420
 30
 0
 11
1.41862
 21
90.39931
  0
LINE
  8
Engraving
 62
   7
 39
0.200
  6
CONTINUOUS
 10
1.41862
 20
90.39931
 30
 0
 11
1.50799
 21
90.48869
  0
LINE
  8
Engraving
 62
   7
 39
0.200
  6
CONTINUOUS
 10
1.50799
 20
90.48869
 30
 0
 11
1.63311
 21
90.56018
  0
LINE
  8
Engraving
 62
   7
 39
0.200
  6
CONTINUOUS
 10
1.63311
 20
90.56018
 30
 0
 11
1.75823
 21
90.57806
  0
LINE
  8
Engraving
 62
   7
 39
0.200
  6
CONTINUOUS
 10
1.75823
 20
90.57806
 30
 0
 11
1.91909
 21
90.57806
  0
CIRCLE
  8
Contour
 62
   7
 39
0.100
  6
CONTINUOUS
 10
7.50000
 20
125.50000
 30
 0
 40
1.50000
  0
CIRCLE
  8
Contour
 62
   7
 39
0.100
  6
CONTINUOUS
 10
7.50000
 20
3.00000
 30
 0
 40
1.50000
  0
CIRCLE
  8
Contour
 62
   7
 39
0.100
  6
CONTINUOUS
 10
58.30000
 20
125.50000
 30
 0
 40
1.50000
  0
CIRCLE
  8
Contour
 62
   7
 39
0.100
  6
CONTINUOUS
 10
58.30000
 20
3.00000
 30
 0
 40
1.50000
  0
CIRCLE
  8
Contour
 62
   7
 39
0.100
  6
CONTINUOUS
 10
8.09000
 20
109.45000
 30
 0
 40
3.00000
  0
CIRCLE
  8
Contour
 62
   7
 39
0.100
  6
CONTINUOUS
 10
8.09000
 20
94.21000
 30
 0
 40
3.00000
  0
CIRCLE
  8
Contour
 62
   7
 39
0.100
  6
CONTINUOUS
 10
8.09000
 20
78.97000
 30
 0
 40
3.00000
  0
CIRCLE
  8
Contour
 62
   7
 39
0.100
  6
CONTINUOUS
 10
8.09000
 20
63.73000
 30
 0
 40
3.00000
  0
CIRCLE
  8
Contour
 62
   7
 39
0.100
  6
CONTINUOUS
 10
20.79000
 20
26.90000
 30
 0
 40
3.00000
  0
CIRCLE
  8
Contour
 62
   7
 39
0.100
  6
CONTINUOUS
 10
34.13000
 20
26.90000
 30
 0
 40
3.00000
  0
CIRCLE
  8
Contour
 62
   7
 39
0.100
  6
CONTINUOUS
 10
47.47000
 20
26.90000
 30
 0
 40
3.00000
  0
CIRCLE
  8
Contour
 62
   7
 39
0.100
  6
CONTINUOUS
 10
60.81000
 20
26.90000
 30
 0
 40
3.00000
  0
CIRCLE
  8
Contour
 62
   7
 39
0.100
  6
CONTINUOUS
 10
20.79000
 20
109.45000
 30
 0
 40
3.50000
  0
CIRCLE
  8
Contour
 62
   7
 39
0.100
  6
CONTINUOUS
 10
34.13000
 20
109.45000
 30
 0
 40
3.50000
  0
CIRCLE
  8
Contour
 62
   7
 39
0.100
  6
CONTINUOUS
 10
47.47000
 20
109.45000
 30
 0
 40
3.50000
  0
CIRCLE
  8
Contour
 62
   7
 39
0.100
  6
CONTINUOUS
 10
60.81000
 20
109.45000
 30
 0
 40
3.50000
  0
CIRCLE
  8
Contour
 62
   7
 39
0.100
  6
CONTINUOUS
 10
20.79000
 20
94.21000
 30
 0
 40
3.50000
  0
CIRCLE
  8
Contour
 62
   7
 39
0.100
  6
CONTINUOUS
 10
34.13000
 20
94.21000
 30
 0
 40
3.50000
  0
CIRCLE
  8
Contour
 62
   7
 39
0.100
  6
CONTINUOUS
 10
47.47000
 20
94.21000
 30
 0
 40
3.50000
  0
CIRCLE
  8
Contour
 62
   7
 39
0.100
  6
CONTINUOUS
 10
60.81000
 20
94.21000
 30
 0
 40
3.50000
  0
CIRCLE
  8
Contour
 62
   7
 39
0.100
  6
CONTINUOUS
 10
20.79000
 20
78.97000
 30
 0
 40
3.50000
  0
CIRCLE
  8
Contour
 62
   7
 39
0.100
  6
CONTINUOUS
 10
34.13000
 20
78.97000
 30
 0
 40
3.50000
  0
CIRCLE
  8
Contour
 62
   7
 39
0.100
  6
CONTINUOUS
 10
47.47000
 20
78.97000
 30
 0
 40
3.50000
  0
CIRCLE
  8
Contour
 62
   7
 39
0.100
  6
CONTINUOUS
 10
60.81000
 20
78.97000
 30
 0
 40
3.50000
  0
CIRCLE
  8
Contour
 62
   7
 39
0.100
  6
CONTINUOUS
 10
20.79000
 20
63.73000
 30
 0
 40
3.50000
  0
CIRCLE
  8
Contour
 62
   7
 39
0.100
  6
CONTINUOUS
 10
34.13000
 20
63.73000
 30
 0
 40
3.50000
  0
CIRCLE
  8
Contour
 62
   7
 39
0.100
  6
CONTINUOUS
 10
47.47000
 20
63.73000
 30
 0
 40
3.50000
  0
CIRCLE
  8
Contour
 62
   7
 39
0.100
  6
CONTINUOUS
 10
60.81000
 20
63.73000
 30
 0
 40
3.50000
  0
CIRCLE
  8
Contour
 62
   7
 39
0.100
  6
CONTINUOUS
 10
20.79000
 20
47.22000
 30
 0
 40
3.50000
  0
CIRCLE
  8
Contour
 62
   7
 39
0.100
  6
CONTINUOUS
 10
34.13000
 20
47.22000
 30
 0
 40
3.50000
  0
CIRCLE
  8
Contour
 62
   7
 39
0.100
  6
CONTINUOUS
 10
47.47000
 20
47.22000
 30
 0
 40
3.50000
  0
CIRCLE
  8
Contour
 62
   7
 39
0.100
  6
CONTINUOUS
 10
60.81000
 20
47.22000
 30
 0
 40
3.50000
  0
ENDSEC
  0
EOF
