  0
SECTION
  2
HEADER
  9
$MEASUREMENT
  70
  1
  9
$INSUNITS
  70
  4
  0
ENDSEC
  0
SECTION
  2
TABLES
  0
TABLE
  2
LTYPE
 70
     1
  0
LTYPE
  2
CONTINUOUS
 70
    64
  3
Ausgezogene Linie
 72
    65
 73
     0
 40
0.0
  0
ENDTAB
  0
TABLE
  2
LAYER
 70
     3
  0
LAYER
  2
Contour
 70
    64
 62
     7
  6
CONTINUOUS
  0
LAYER
  2
Engraving
 70
    64
 62
     7
  6
CONTINUOUS
  0
LAYER
  2
Reference_points
 70
    64
 62
     1
  6
CONTINUOUS
  0
ENDTAB
  0
TABLE
  2
STYLE
 70
     1
  0
STYLE
  2
TXT
 70
    64
 40
0.0
 41
1.0
 50
0.0
 71
     0
 42
3.500000
  3
TXT
  0
ENDTAB
  0
ENDSEC
  0
SECTION
  2
BLOCKS
  0
ENDSEC
  0
SECTION
  2
ENTITIES
  0
LINE
  8
Contour
 62
   7
 39
0.100
  6
CONTINUOUS
 10
70.78000
 20
128.40000
 30
 0
 11
70.78000
 21
0.00000
  0
LINE
  8
Contour
 62
   7
 39
0.100
  6
CONTINUOUS
 10
70.78000
 20
0.00000
 30
 0
 11
0.00000
 21
0.00000
  0
LINE
  8
Contour
 62
   7
 39
0.100
  6
CONTINUOUS
 10
0.00000
 20
0.00000
 30
 0
 11
0.00000
 21
128.40000
  0
LINE
  8
Contour
 62
   7
 39
0.100
  6
CONTINUOUS
 10
0.00000
 20
128.40000
 30
 0
 11
70.78000
 21
128.40000
  0
LINE
  8
Engraving
 62
   7
 39
0.400
  6
CONTINUOUS
 10
23.82273
 20
4.28200
 30
 0
 11
24.67707
 21
3.00050
  0
LINE
  8
Engraving
 62
   7
 39
0.400
  6
CONTINUOUS
 10
24.67707
 20
3.00050
 30
 0
 11
24.67707
 21
1.71900
  0
LINE
  8
Engraving
 62
   7
 39
0.400
  6
CONTINUOUS
 10
24.67707
 20
1.71900
 30
 0
 11
24.67707
 21
3.00050
  0
LINE
  8
Engraving
 62
   7
 39
0.400
  6
CONTINUOUS
 10
24.67707
 20
3.00050
 30
 0
 11
25.53140
 21
4.28200
  0
LINE
  8
Engraving
 62
   7
 39
0.400
  6
CONTINUOUS
 10
26.21573
 20
2.43094
 30
 0
 11
26.21573
 21
2.71572
  0
ARC
  8
Engraving
 62
   7
 39
0.400
  6
CONTINUOUS
 10
26.92768
 20
2.71572
 30
 0
 40
0.71194
 50
0.00000
 51
180.00000
  0
LINE
  8
Engraving
 62
   7
 39
0.400
  6
CONTINUOUS
 10
27.63962
 20
2.71572
 30
 0
 11
27.63962
 21
2.43094
  0
ARC
  8
Engraving
 62
   7
 39
0.400
  6
CONTINUOUS
 10
26.92768
 20
2.43094
 30
 0
 40
0.71194
 50
-180.00000
 51
0.00000
  0
LINE
  8
Engraving
 62
   7
 39
0.400
  6
CONTINUOUS
 10
28.32373
 20
1.71900
 30
 0
 11
28.32373
 21
3.42767
  0
LINE
  8
Engraving
 62
   7
 39
0.400
  6
CONTINUOUS
 10
28.32373
 20
3.42767
 30
 0
 11
28.32373
 21
2.85811
  0
ARC
  8
Engraving
 62
   7
 39
0.400
  6
CONTINUOUS
 10
28.95304
 20
2.85813
 30
 0
 40
0.62931
 50
140.69073
 51
180.00162
  0
ARC
  8
Engraving
 62
   7
 39
0.400
  6
CONTINUOUS
 10
28.77938
 20
2.99927
 30
 0
 40
0.40553
 50
39.42406
 51
140.57594
  0
LINE
  8
Engraving
 62
   7
 39
0.400
  6
CONTINUOUS
 10
29.74773
 20
4.28200
 30
 0
 11
29.74773
 21
1.71900
  0
LINE
  8
Engraving
 62
   7
 39
0.400
  6
CONTINUOUS
 10
29.74773
 20
1.71900
 30
 0
 11
29.74773
 21
2.28856
  0
LINE
  8
Engraving
 62
   7
 39
0.400
  6
CONTINUOUS
 10
29.74773
 20
2.28856
 30
 0
 11
31.17162
 21
3.42767
  0
LINE
  8
Engraving
 62
   7
 39
0.400
  6
CONTINUOUS
 10
31.17162
 20
3.42767
 30
 0
 11
30.31729
 21
2.74420
  0
LINE
  8
Engraving
 62
   7
 39
0.400
  6
CONTINUOUS
 10
30.31729
 20
2.74420
 30
 0
 11
31.17162
 21
1.71900
  0
LINE
  8
Engraving
 62
   7
 39
0.400
  6
CONTINUOUS
 10
33.67873
 20
1.71900
 30
 0
 11
33.67873
 21
4.28200
  0
LINE
  8
Engraving
 62
   7
 39
0.400
  6
CONTINUOUS
 10
33.67873
 20
4.28200
 30
 0
 11
34.67546
 21
2.43094
  0
LINE
  8
Engraving
 62
   7
 39
0.400
  6
CONTINUOUS
 10
34.67546
 20
2.43094
 30
 0
 11
35.67218
 21
4.28200
  0
LINE
  8
Engraving
 62
   7
 39
0.400
  6
CONTINUOUS
 10
35.67218
 20
4.28200
 30
 0
 11
35.67218
 21
1.71900
  0
LINE
  8
Engraving
 62
   7
 39
0.400
  6
CONTINUOUS
 10
36.35473
 20
2.43094
 30
 0
 11
36.35473
 21
2.71572
  0
ARC
  8
Engraving
 62
   7
 39
0.400
  6
CONTINUOUS
 10
37.06668
 20
2.71572
 30
 0
 40
0.71194
 50
0.00000
 51
180.00000
  0
LINE
  8
Engraving
 62
   7
 39
0.400
  6
CONTINUOUS
 10
37.77862
 20
2.71572
 30
 0
 11
37.77862
 21
2.43094
  0
ARC
  8
Engraving
 62
   7
 39
0.400
  6
CONTINUOUS
 10
37.06668
 20
2.43094
 30
 0
 40
0.71194
 50
-180.00000
 51
0.00000
  0
LINE
  8
Engraving
 62
   7
 39
0.400
  6
CONTINUOUS
 10
39.88562
 20
4.28200
 30
 0
 11
39.88562
 21
2.43094
  0
ARC
  8
Engraving
 62
   7
 39
0.400
  6
CONTINUOUS
 10
39.17368
 20
2.40247
 30
 0
 40
0.71251
 50
-177.70939
 51
2.29061
  0
LINE
  8
Engraving
 62
   7
 39
0.400
  6
CONTINUOUS
 10
38.46173
 20
2.37399
 30
 0
 11
38.46173
 21
2.71572
  0
ARC
  8
Engraving
 62
   7
 39
0.400
  6
CONTINUOUS
 10
39.17368
 20
2.71572
 30
 0
 40
0.71194
 50
0.00000
 51
180.00000
  0
LINE
  8
Engraving
 62
   7
 39
0.400
  6
CONTINUOUS
 10
39.88562
 20
2.71572
 30
 0
 11
39.88562
 21
1.71900
  0
LINE
  8
Engraving
 62
   7
 39
0.400
  6
CONTINUOUS
 10
40.56873
 20
3.42767
 30
 0
 11
40.56873
 21
2.43094
  0
ARC
  8
Engraving
 62
   7
 39
0.400
  6
CONTINUOUS
 10
41.28068
 20
2.43094
 30
 0
 40
0.71194
 50
180.00000
 51
360.00000
  0
LINE
  8
Engraving
 62
   7
 39
0.400
  6
CONTINUOUS
 10
41.99262
 20
2.43094
 30
 0
 11
41.99262
 21
1.71900
  0
LINE
  8
Engraving
 62
   7
 39
0.400
  6
CONTINUOUS
 10
41.99262
 20
1.71900
 30
 0
 11
41.99262
 21
3.42767
  0
LINE
  8
Engraving
 62
   7
 39
0.400
  6
CONTINUOUS
 10
42.67573
 20
4.28200
 30
 0
 11
42.67573
 21
2.06073
  0
ARC
  8
Engraving
 62
   7
 39
0.400
  6
CONTINUOUS
 10
43.02305
 20
2.06064
 30
 0
 40
0.34731
 50
179.98432
 51
259.62682
  0
LINE
  8
Engraving
 62
   7
 39
0.400
  6
CONTINUOUS
 10
45.12458
 20
3.42767
 30
 0
 11
45.12458
 21
2.43094
  0
ARC
  8
Engraving
 62
   7
 39
0.400
  6
CONTINUOUS
 10
44.38416
 20
2.43094
 30
 0
 40
0.74042
 50
-180.00000
 51
0.00000
  0
LINE
  8
Engraving
 62
   7
 39
0.400
  6
CONTINUOUS
 10
43.64373
 20
2.43094
 30
 0
 11
43.64373
 21
2.71572
  0
ARC
  8
Engraving
 62
   7
 39
0.400
  6
CONTINUOUS
 10
44.38416
 20
2.71572
 30
 0
 40
0.74042
 50
0.00000
 51
180.00000
  0
LINE
  8
Engraving
 62
   7
 39
0.400
  6
CONTINUOUS
 10
45.12458
 20
2.71572
 30
 0
 11
45.12458
 21
2.03226
  0
ARC
  8
Engraving
 62
   7
 39
0.400
  6
CONTINUOUS
 10
45.53746
 20
2.07055
 30
 0
 40
0.41466
 50
185.29897
 51
260.11981
  0
LINE
  8
Engraving
 62
   7
 39
0.400
  6
CONTINUOUS
 10
46.14973
 20
1.72000
 30
 0
 11
46.14973
 21
3.42867
  0
LINE
  8
Engraving
 62
   7
 39
0.400
  6
CONTINUOUS
 10
46.14973
 20
3.42867
 30
 0
 11
46.14973
 21
2.85911
  0
ARC
  8
Engraving
 62
   7
 39
0.400
  6
CONTINUOUS
 10
46.77904
 20
2.85913
 30
 0
 40
0.62931
 50
140.69073
 51
180.00162
  0
ARC
  8
Engraving
 62
   7
 39
0.400
  6
CONTINUOUS
 10
46.60538
 20
3.00027
 30
 0
 40
0.40553
 50
39.42406
 51
140.57594
  0
LINE
  8
Engraving
 62
   7
 39
0.400
  6
CONTINUOUS
 10
23.04017
 20
125.47202
 30
 0
 11
24.26471
 21
125.47202
  0
ARC
  8
Engraving
 62
   7
 39
0.400
  6
CONTINUOUS
 10
24.26471
 20
126.12701
 30
 0
 40
0.65499
 50
270.00000
 51
450.00000
  0
LINE
  8
Engraving
 62
   7
 39
0.400
  6
CONTINUOUS
 10
24.26471
 20
126.78200
 30
 0
 11
23.04017
 21
126.78200
  0
LINE
  8
Engraving
 62
   7
 39
0.400
  6
CONTINUOUS
 10
23.04017
 20
126.78200
 30
 0
 11
23.04017
 21
124.21900
  0
LINE
  8
Engraving
 62
   7
 39
0.400
  6
CONTINUOUS
 10
27.08414
 20
125.98462
 30
 0
 11
27.08414
 21
124.21900
  0
LINE
  8
Engraving
 62
   7
 39
0.400
  6
CONTINUOUS
 10
27.08414
 20
124.21900
 30
 0
 11
27.08414
 21
124.50378
  0
ARC
  8
Engraving
 62
   7
 39
0.400
  6
CONTINUOUS
 10
26.48341
 20
124.92316
 30
 0
 40
0.73264
 50
270.21128
 51
325.08067
  0
ARC
  8
Engraving
 62
   7
 39
0.400
  6
CONTINUOUS
 10
26.48736
 20
124.86068
 30
 0
 40
0.67016
 50
206.58821
 51
269.89283
  0
ARC
  8
Engraving
 62
   7
 39
0.400
  6
CONTINUOUS
 10
26.91254
 20
125.07333
 30
 0
 40
1.14555
 50
153.41840
 51
206.58160
  0
ARC
  8
Engraving
 62
   7
 39
0.400
  6
CONTINUOUS
 10
26.48736
 20
125.28599
 30
 0
 40
0.67016
 50
90.10717
 51
153.41179
  0
ARC
  8
Engraving
 62
   7
 39
0.400
  6
CONTINUOUS
 10
26.48341
 20
125.22351
 30
 0
 40
0.73264
 50
34.91933
 51
89.78872
  0
ARC
  8
Engraving
 62
   7
 39
0.400
  6
CONTINUOUS
 10
28.27153
 20
124.63779
 30
 0
 40
0.38282
 50
209.75161
 51
240.24839
  0
ARC
  8
Engraving
 62
   7
 39
0.400
  6
CONTINUOUS
 10
28.45177
 20
124.94730
 30
 0
 40
0.74098
 50
240.02488
 51
299.97512
  0
ARC
  8
Engraving
 62
   7
 39
0.400
  6
CONTINUOUS
 10
28.62324
 20
124.64268
 30
 0
 40
0.39145
 50
300.51006
 51
433.17548
  0
LINE
  8
Engraving
 62
   7
 39
0.400
  6
CONTINUOUS
 10
28.73654
 20
125.01738
 30
 0
 11
28.16699
 21
125.18824
  0
ARC
  8
Engraving
 62
   7
 39
0.400
  6
CONTINUOUS
 10
28.27657
 20
125.53560
 30
 0
 40
0.36424
 50
122.37233
 51
252.49048
  0
ARC
  8
Engraving
 62
   7
 39
0.400
  6
CONTINUOUS
 10
28.45465
 20
125.25689
 30
 0
 40
0.69499
 50
42.82637
 51
122.46887
  0
ARC
  8
Engraving
 62
   7
 39
0.400
  6
CONTINUOUS
 10
30.20853
 20
124.63779
 30
 0
 40
0.38282
 50
209.75161
 51
240.24839
  0
ARC
  8
Engraving
 62
   7
 39
0.400
  6
CONTINUOUS
 10
30.38877
 20
124.94730
 30
 0
 40
0.74098
 50
240.02488
 51
299.97512
  0
ARC
  8
Engraving
 62
   7
 39
0.400
  6
CONTINUOUS
 10
30.56024
 20
124.64268
 30
 0
 40
0.39145
 50
300.51006
 51
433.17548
  0
LINE
  8
Engraving
 62
   7
 39
0.400
  6
CONTINUOUS
 10
30.67354
 20
125.01738
 30
 0
 11
30.10399
 21
125.18824
  0
ARC
  8
Engraving
 62
   7
 39
0.400
  6
CONTINUOUS
 10
30.21357
 20
125.53560
 30
 0
 40
0.36424
 50
122.37233
 51
252.49048
  0
ARC
  8
Engraving
 62
   7
 39
0.400
  6
CONTINUOUS
 10
30.39165
 20
125.25689
 30
 0
 40
0.69499
 50
42.82637
 51
122.46887
  0
LINE
  8
Engraving
 62
   7
 39
0.400
  6
CONTINUOUS
 10
31.81317
 20
126.81148
 30
 0
 11
31.81317
 21
126.58366
  0
LINE
  8
Engraving
 62
   7
 39
0.400
  6
CONTINUOUS
 10
31.81317
 20
126.01410
 30
 0
 11
31.81317
 21
124.22000
  0
LINE
  8
Engraving
 62
   7
 39
0.400
  6
CONTINUOUS
 10
32.63969
 20
126.01410
 30
 0
 11
33.32316
 21
124.22000
  0
LINE
  8
Engraving
 62
   7
 39
0.400
  6
CONTINUOUS
 10
33.32316
 20
124.22000
 30
 0
 11
33.40859
 21
124.22000
  0
LINE
  8
Engraving
 62
   7
 39
0.400
  6
CONTINUOUS
 10
33.40859
 20
124.22000
 30
 0
 11
34.09206
 21
126.01410
  0
LINE
  8
Engraving
 62
   7
 39
0.400
  6
CONTINUOUS
 10
34.94717
 20
125.18824
 30
 0
 11
36.31410
 21
125.18824
  0
ARC
  8
Engraving
 62
   7
 39
0.400
  6
CONTINUOUS
 10
35.46958
 20
125.21918
 30
 0
 40
0.84508
 50
357.90238
 51
390.17011
  0
ARC
  8
Engraving
 62
   7
 39
0.400
  6
CONTINUOUS
 10
35.65809
 20
125.33146
 30
 0
 40
0.62569
 50
29.95629
 51
89.90654
  0
ARC
  8
Engraving
 62
   7
 39
0.400
  6
CONTINUOUS
 10
35.66036
 20
125.28699
 30
 0
 40
0.67016
 50
90.10717
 51
153.41179
  0
ARC
  8
Engraving
 62
   7
 39
0.400
  6
CONTINUOUS
 10
36.08554
 20
125.07433
 30
 0
 40
1.14555
 50
153.41840
 51
206.58160
  0
ARC
  8
Engraving
 62
   7
 39
0.400
  6
CONTINUOUS
 10
35.66036
 20
124.86168
 30
 0
 40
0.67016
 50
206.58821
 51
269.89283
  0
ARC
  8
Engraving
 62
   7
 39
0.400
  6
CONTINUOUS
 10
35.65641
 20
124.92416
 30
 0
 40
0.73264
 50
270.21128
 51
325.08067
  0
LINE
  8
Engraving
 62
   7
 39
0.400
  6
CONTINUOUS
 10
37.16817
 20
124.22000
 30
 0
 11
37.16817
 21
126.78300
  0
LINE
  8
Engraving
 62
   7
 39
0.400
  6
CONTINUOUS
 10
37.16817
 20
126.78300
 30
 0
 11
37.31056
 21
126.78300
  0
LINE
  8
Engraving
 62
   7
 39
0.400
  6
CONTINUOUS
 10
37.31056
 20
126.78300
 30
 0
 11
38.30728
 21
124.22000
  0
LINE
  8
Engraving
 62
   7
 39
0.400
  6
CONTINUOUS
 10
38.30728
 20
124.22000
 30
 0
 11
39.30400
 21
126.78300
  0
LINE
  8
Engraving
 62
   7
 39
0.400
  6
CONTINUOUS
 10
39.30400
 20
126.78300
 30
 0
 11
39.44639
 21
126.78300
  0
LINE
  8
Engraving
 62
   7
 39
0.400
  6
CONTINUOUS
 10
39.44639
 20
126.78300
 30
 0
 11
39.44639
 21
124.22000
  0
LINE
  8
Engraving
 62
   7
 39
0.400
  6
CONTINUOUS
 10
41.61014
 20
125.98562
 30
 0
 11
41.61014
 21
124.22000
  0
LINE
  8
Engraving
 62
   7
 39
0.400
  6
CONTINUOUS
 10
41.61014
 20
124.22000
 30
 0
 11
41.61014
 21
124.50478
  0
ARC
  8
Engraving
 62
   7
 39
0.400
  6
CONTINUOUS
 10
41.00941
 20
124.92416
 30
 0
 40
0.73264
 50
270.21128
 51
325.08067
  0
ARC
  8
Engraving
 62
   7
 39
0.400
  6
CONTINUOUS
 10
41.01336
 20
124.86168
 30
 0
 40
0.67016
 50
206.58821
 51
269.89283
  0
ARC
  8
Engraving
 62
   7
 39
0.400
  6
CONTINUOUS
 10
41.43854
 20
125.07433
 30
 0
 40
1.14555
 50
153.41840
 51
206.58160
  0
ARC
  8
Engraving
 62
   7
 39
0.400
  6
CONTINUOUS
 10
41.01336
 20
125.28699
 30
 0
 40
0.67016
 50
90.10717
 51
153.41179
  0
ARC
  8
Engraving
 62
   7
 39
0.400
  6
CONTINUOUS
 10
41.00941
 20
125.22451
 30
 0
 40
0.73264
 50
34.91933
 51
89.78872
  0
LINE
  8
Engraving
 62
   7
 39
0.400
  6
CONTINUOUS
 10
42.43569
 20
125.98662
 30
 0
 11
43.14763
 21
125.98662
  0
LINE
  8
Engraving
 62
   7
 39
0.400
  6
CONTINUOUS
 10
42.77742
 20
126.78400
 30
 0
 11
42.77742
 21
124.22100
  0
LINE
  8
Engraving
 62
   7
 39
0.400
  6
CONTINUOUS
 10
44.00117
 20
126.01510
 30
 0
 11
44.00117
 21
124.22100
  0
LINE
  8
Engraving
 62
   7
 39
0.400
  6
CONTINUOUS
 10
44.00117
 20
124.22100
 30
 0
 11
44.00117
 21
125.38859
  0
ARC
  8
Engraving
 62
   7
 39
0.400
  6
CONTINUOUS
 10
44.73664
 20
125.27017
 30
 0
 40
0.74495
 50
89.61947
 51
170.85324
  0
LINE
  8
Engraving
 62
   7
 39
0.400
  6
CONTINUOUS
 10
45.59517
 20
126.81248
 30
 0
 11
45.59517
 21
126.58466
  0
LINE
  8
Engraving
 62
   7
 39
0.400
  6
CONTINUOUS
 10
45.59517
 20
126.01510
 30
 0
 11
45.59517
 21
124.22100
  0
LINE
  8
Engraving
 62
   7
 39
0.400
  6
CONTINUOUS
 10
46.56308
 20
126.01510
 30
 0
 11
47.70219
 21
124.22100
  0
LINE
  8
Engraving
 62
   7
 39
0.400
  6
CONTINUOUS
 10
46.42069
 20
124.22100
 30
 0
 11
47.55980
 21
126.01510
  0
LINE
  8
Engraving
 62
   7
 39
0.400
  6
CONTINUOUS
 10
20.80017
 20
42.15200
 30
 0
 11
20.80017
 21
39.58900
  0
ARC
  8
Engraving
 62
   7
 39
0.400
  6
CONTINUOUS
 10
33.99099
 20
41.49943
 30
 0
 40
0.61019
 50
118.02066
 51
169.47166
  0
ARC
  8
Engraving
 62
   7
 39
0.400
  6
CONTINUOUS
 10
34.18846
 20
41.13840
 30
 0
 40
1.02167
 50
61.71531
 51
118.28469
  0
ARC
  8
Engraving
 62
   7
 39
0.400
  6
CONTINUOUS
 10
34.35742
 20
41.49701
 30
 0
 40
0.62617
 50
-59.78085
 51
59.78085
  0
LINE
  8
Engraving
 62
   7
 39
0.400
  6
CONTINUOUS
 10
34.67258
 20
40.95593
 30
 0
 11
33.70433
 21
40.35790
  0
ARC
  8
Engraving
 62
   7
 39
0.400
  6
CONTINUOUS
 10
34.18058
 20
39.59021
 30
 0
 40
0.90341
 50
121.81387
 51
180.07692
  0
LINE
  8
Engraving
 62
   7
 39
0.400
  6
CONTINUOUS
 10
33.27717
 20
39.58900
 30
 0
 11
34.98583
 21
39.58900
  0
LINE
  8
Engraving
 62
   7
 39
0.400
  6
CONTINUOUS
 10
46.58817
 20
42.15200
 30
 0
 11
48.15444
 21
42.15200
  0
ARC
  8
Engraving
 62
   7
 39
0.400
  6
CONTINUOUS
 10
46.65055
 20
42.53707
 30
 0
 40
1.55241
 50
289.06860
 51
345.63799
  0
ARC
  8
Engraving
 62
   7
 39
0.400
  6
CONTINUOUS
 10
47.49946
 20
39.73512
 30
 0
 40
1.37778
 50
75.63893
 51
104.36107
  0
ARC
  8
Engraving
 62
   7
 39
0.400
  6
CONTINUOUS
 10
47.65183
 20
40.34273
 30
 0
 40
0.75136
 50
30.85748
 51
75.40272
  0
ARC
  8
Engraving
 62
   7
 39
0.400
  6
CONTINUOUS
 10
47.67601
 20
40.35109
 30
 0
 40
0.72634
 50
-35.36110
 51
31.27028
  0
ARC
  8
Engraving
 62
   7
 39
0.400
  6
CONTINUOUS
 10
47.67036
 20
40.34646
 30
 0
 40
0.72831
 50
285.88223
 51
325.19313
  0
ARC
  8
Engraving
 62
   7
 39
0.400
  6
CONTINUOUS
 10
47.42960
 20
41.13329
 30
 0
 40
1.55107
 50
257.76003
 51
286.48217
  0
ARC
  8
Engraving
 62
   7
 39
0.400
  6
CONTINUOUS
 10
47.26034
 20
40.40054
 30
 0
 40
0.79916
 50
208.74918
 51
258.48212
  0
LINE
  8
Engraving
 62
   7
 39
0.400
  6
CONTINUOUS
 10
61.87852
 20
40.44333
 30
 0
 11
59.74269
 21
40.44333
  0
LINE
  8
Engraving
 62
   7
 39
0.400
  6
CONTINUOUS
 10
59.74269
 20
40.44333
 30
 0
 11
59.74269
 21
40.58572
  0
LINE
  8
Engraving
 62
   7
 39
0.400
  6
CONTINUOUS
 10
59.74269
 20
40.58572
 30
 0
 11
61.16658
 21
42.15200
  0
LINE
  8
Engraving
 62
   7
 39
0.400
  6
CONTINUOUS
 10
61.16658
 20
42.15200
 30
 0
 11
61.30897
 21
42.15200
  0
LINE
  8
Engraving
 62
   7
 39
0.400
  6
CONTINUOUS
 10
61.30897
 20
42.15200
 30
 0
 11
61.30897
 21
39.58900
  0
LINE
  8
Engraving
 62
   7
 39
0.400
  6
CONTINUOUS
 10
6.81800
 20
105.46035
 30
 0
 11
9.38100
 21
105.46035
  0
LINE
  8
Engraving
 62
   7
 39
0.400
  6
CONTINUOUS
 10
9.38100
 20
105.96517
 30
 0
 11
6.81800
 21
105.96517
  0
LINE
  8
Engraving
 62
   7
 39
0.400
  6
CONTINUOUS
 10
6.81800
 20
105.96517
 30
 0
 11
6.81800
 21
106.14680
  0
LINE
  8
Engraving
 62
   7
 39
0.400
  6
CONTINUOUS
 10
6.81800
 20
106.14680
 30
 0
 11
9.38100
 21
107.35767
  0
LINE
  8
Engraving
 62
   7
 39
0.400
  6
CONTINUOUS
 10
9.38100
 20
107.35767
 30
 0
 11
6.81800
 21
107.35767
  0
LINE
  8
Engraving
 62
   7
 39
0.400
  6
CONTINUOUS
 10
9.38100
 20
107.88335
 30
 0
 11
6.81800
 21
107.88335
  0
LINE
  8
Engraving
 62
   7
 39
0.400
  6
CONTINUOUS
 10
6.81800
 20
107.88335
 30
 0
 11
6.81800
 21
108.60987
  0
LINE
  8
Engraving
 62
   7
 39
0.400
  6
CONTINUOUS
 10
6.81800
 20
108.60987
 30
 0
 11
6.87854
 21
108.83187
  0
LINE
  8
Engraving
 62
   7
 39
0.400
  6
CONTINUOUS
 10
6.87854
 20
108.83187
 30
 0
 11
6.97945
 21
108.97313
  0
LINE
  8
Engraving
 62
   7
 39
0.400
  6
CONTINUOUS
 10
6.97945
 20
108.97313
 30
 0
 11
7.12072
 21
109.07404
  0
LINE
  8
Engraving
 62
   7
 39
0.400
  6
CONTINUOUS
 10
7.12072
 20
109.07404
 30
 0
 11
7.30235
 21
109.09422
  0
LINE
  8
Engraving
 62
   7
 39
0.400
  6
CONTINUOUS
 10
7.30235
 20
109.09422
 30
 0
 11
7.58488
 21
109.09422
  0
LINE
  8
Engraving
 62
   7
 39
0.400
  6
CONTINUOUS
 10
7.58488
 20
109.09422
 30
 0
 11
7.74633
 21
109.07404
  0
LINE
  8
Engraving
 62
   7
 39
0.400
  6
CONTINUOUS
 10
7.74633
 20
109.07404
 30
 0
 11
7.90778
 21
108.97313
  0
LINE
  8
Engraving
 62
   7
 39
0.400
  6
CONTINUOUS
 10
7.90778
 20
108.97313
 30
 0
 11
8.00869
 21
108.85205
  0
LINE
  8
Engraving
 62
   7
 39
0.400
  6
CONTINUOUS
 10
8.00869
 20
108.85205
 30
 0
 11
8.06923
 21
108.63006
  0
LINE
  8
Engraving
 62
   7
 39
0.400
  6
CONTINUOUS
 10
8.06923
 20
108.63006
 30
 0
 11
8.06923
 21
107.88335
  0
LINE
  8
Engraving
 62
   7
 39
0.400
  6
CONTINUOUS
 10
6.81800
 20
109.61935
 30
 0
 11
8.89665
 21
109.61935
  0
LINE
  8
Engraving
 62
   7
 39
0.400
  6
CONTINUOUS
 10
8.89665
 20
109.61935
 30
 0
 11
9.13883
 21
109.67990
  0
LINE
  8
Engraving
 62
   7
 39
0.400
  6
CONTINUOUS
 10
9.13883
 20
109.67990
 30
 0
 11
9.25991
 21
109.76062
  0
LINE
  8
Engraving
 62
   7
 39
0.400
  6
CONTINUOUS
 10
9.25991
 20
109.76062
 30
 0
 11
9.36082
 21
109.92207
  0
LINE
  8
Engraving
 62
   7
 39
0.400
  6
CONTINUOUS
 10
9.36082
 20
109.92207
 30
 0
 11
9.40118
 21
110.12388
  0
LINE
  8
Engraving
 62
   7
 39
0.400
  6
CONTINUOUS
 10
9.40118
 20
110.12388
 30
 0
 11
9.40118
 21
110.38624
  0
LINE
  8
Engraving
 62
   7
 39
0.400
  6
CONTINUOUS
 10
9.40118
 20
110.38624
 30
 0
 11
9.38100
 21
110.54769
  0
LINE
  8
Engraving
 62
   7
 39
0.400
  6
CONTINUOUS
 10
9.38100
 20
110.54769
 30
 0
 11
9.28009
 21
110.72931
  0
LINE
  8
Engraving
 62
   7
 39
0.400
  6
CONTINUOUS
 10
9.28009
 20
110.72931
 30
 0
 11
9.09846
 21
110.87058
  0
LINE
  8
Engraving
 62
   7
 39
0.400
  6
CONTINUOUS
 10
9.09846
 20
110.87058
 30
 0
 11
8.89665
 21
110.91094
  0
LINE
  8
Engraving
 62
   7
 39
0.400
  6
CONTINUOUS
 10
8.89665
 20
110.91094
 30
 0
 11
6.81800
 21
110.91094
  0
LINE
  8
Engraving
 62
   7
 39
0.400
  6
CONTINUOUS
 10
9.38000
 20
112.10133
 30
 0
 11
6.81700
 21
112.10133
  0
LINE
  8
Engraving
 62
   7
 39
0.400
  6
CONTINUOUS
 10
6.81700
 20
111.41517
 30
 0
 11
6.81700
 21
112.80767
  0
LINE
  8
Engraving
 62
   7
 39
0.400
  6
CONTINUOUS
 10
8.57276
 20
113.33235
 30
 0
 11
8.91583
 21
113.33235
  0
LINE
  8
Engraving
 62
   7
 39
0.400
  6
CONTINUOUS
 10
8.91583
 20
113.33235
 30
 0
 11
9.09746
 21
113.37272
  0
LINE
  8
Engraving
 62
   7
 39
0.400
  6
CONTINUOUS
 10
9.09746
 20
113.37272
 30
 0
 11
9.25891
 21
113.47362
  0
LINE
  8
Engraving
 62
   7
 39
0.400
  6
CONTINUOUS
 10
9.25891
 20
113.47362
 30
 0
 11
9.35982
 21
113.61489
  0
LINE
  8
Engraving
 62
   7
 39
0.400
  6
CONTINUOUS
 10
9.35982
 20
113.61489
 30
 0
 11
9.40018
 21
113.81670
  0
LINE
  8
Engraving
 62
   7
 39
0.400
  6
CONTINUOUS
 10
9.40018
 20
113.81670
 30
 0
 11
9.40018
 21
114.05887
  0
LINE
  8
Engraving
 62
   7
 39
0.400
  6
CONTINUOUS
 10
9.40018
 20
114.05887
 30
 0
 11
9.38000
 21
114.20014
  0
LINE
  8
Engraving
 62
   7
 39
0.400
  6
CONTINUOUS
 10
9.38000
 20
114.20014
 30
 0
 11
9.27909
 21
114.38177
  0
LINE
  8
Engraving
 62
   7
 39
0.400
  6
CONTINUOUS
 10
9.27909
 20
114.38177
 30
 0
 11
9.11765
 21
114.50286
  0
LINE
  8
Engraving
 62
   7
 39
0.400
  6
CONTINUOUS
 10
9.11765
 20
114.50286
 30
 0
 11
8.91583
 21
114.54322
  0
LINE
  8
Engraving
 62
   7
 39
0.400
  6
CONTINUOUS
 10
8.91583
 20
114.54322
 30
 0
 11
8.77457
 21
114.54322
  0
LINE
  8
Engraving
 62
   7
 39
0.400
  6
CONTINUOUS
 10
8.77457
 20
114.54322
 30
 0
 11
8.63330
 21
114.50286
  0
LINE
  8
Engraving
 62
   7
 39
0.400
  6
CONTINUOUS
 10
8.63330
 20
114.50286
 30
 0
 11
8.47185
 21
114.42213
  0
LINE
  8
Engraving
 62
   7
 39
0.400
  6
CONTINUOUS
 10
8.47185
 20
114.42213
 30
 0
 11
8.39113
 21
114.34141
  0
LINE
  8
Engraving
 62
   7
 39
0.400
  6
CONTINUOUS
 10
8.39113
 20
114.34141
 30
 0
 11
8.29022
 21
114.22032
  0
LINE
  8
Engraving
 62
   7
 39
0.400
  6
CONTINUOUS
 10
8.29022
 20
114.22032
 30
 0
 11
7.76551
 21
113.63507
  0
LINE
  8
Engraving
 62
   7
 39
0.400
  6
CONTINUOUS
 10
7.76551
 20
113.63507
 30
 0
 11
7.68479
 21
113.53417
  0
LINE
  8
Engraving
 62
   7
 39
0.400
  6
CONTINUOUS
 10
7.68479
 20
113.53417
 30
 0
 11
7.56370
 21
113.43326
  0
LINE
  8
Engraving
 62
   7
 39
0.400
  6
CONTINUOUS
 10
7.56370
 20
113.43326
 30
 0
 11
7.50316
 21
113.39290
  0
LINE
  8
Engraving
 62
   7
 39
0.400
  6
CONTINUOUS
 10
7.50316
 20
113.39290
 30
 0
 11
7.40225
 21
113.37272
  0
LINE
  8
Engraving
 62
   7
 39
0.400
  6
CONTINUOUS
 10
7.40225
 20
113.37272
 30
 0
 11
7.22062
 21
113.37272
  0
LINE
  8
Engraving
 62
   7
 39
0.400
  6
CONTINUOUS
 10
7.22062
 20
113.37272
 30
 0
 11
7.03899
 21
113.43326
  0
LINE
  8
Engraving
 62
   7
 39
0.400
  6
CONTINUOUS
 10
7.03899
 20
113.43326
 30
 0
 11
6.91791
 21
113.51398
  0
LINE
  8
Engraving
 62
   7
 39
0.400
  6
CONTINUOUS
 10
6.91791
 20
113.51398
 30
 0
 11
6.83718
 21
113.63507
  0
LINE
  8
Engraving
 62
   7
 39
0.400
  6
CONTINUOUS
 10
6.83718
 20
113.63507
 30
 0
 11
6.79682
 21
113.83688
  0
LINE
  8
Engraving
 62
   7
 39
0.400
  6
CONTINUOUS
 10
6.79682
 20
113.83688
 30
 0
 11
6.79682
 21
114.03869
  0
LINE
  8
Engraving
 62
   7
 39
0.400
  6
CONTINUOUS
 10
6.79682
 20
114.03869
 30
 0
 11
6.81700
 21
114.15978
  0
LINE
  8
Engraving
 62
   7
 39
0.400
  6
CONTINUOUS
 10
6.81700
 20
114.15978
 30
 0
 11
6.87754
 21
114.30105
  0
LINE
  8
Engraving
 62
   7
 39
0.400
  6
CONTINUOUS
 10
6.87754
 20
114.30105
 30
 0
 11
6.97845
 21
114.40195
  0
LINE
  8
Engraving
 62
   7
 39
0.400
  6
CONTINUOUS
 10
6.97845
 20
114.40195
 30
 0
 11
7.11972
 21
114.48268
  0
LINE
  8
Engraving
 62
   7
 39
0.400
  6
CONTINUOUS
 10
7.11972
 20
114.48268
 30
 0
 11
7.26098
 21
114.50286
  0
LINE
  8
Engraving
 62
   7
 39
0.400
  6
CONTINUOUS
 10
7.26098
 20
114.50286
 30
 0
 11
7.44261
 21
114.50286
  0
LINE
  8
Engraving
 62
   7
 39
0.400
  6
CONTINUOUS
 10
1.99617
 20
29.13059
 30
 0
 11
1.99617
 21
28.30317
  0
LINE
  8
Engraving
 62
   7
 39
0.400
  6
CONTINUOUS
 10
1.99617
 20
28.30317
 30
 0
 11
2.03654
 21
28.10135
  0
LINE
  8
Engraving
 62
   7
 39
0.400
  6
CONTINUOUS
 10
2.03654
 20
28.10135
 30
 0
 11
2.11726
 21
27.98027
  0
LINE
  8
Engraving
 62
   7
 39
0.400
  6
CONTINUOUS
 10
2.11726
 20
27.98027
 30
 0
 11
2.21817
 21
27.89954
  0
LINE
  8
Engraving
 62
   7
 39
0.400
  6
CONTINUOUS
 10
2.21817
 20
27.89954
 30
 0
 11
2.35943
 21
27.81882
  0
LINE
  8
Engraving
 62
   7
 39
0.400
  6
CONTINUOUS
 10
2.35943
 20
27.81882
 30
 0
 11
2.48052
 21
27.81882
  0
LINE
  8
Engraving
 62
   7
 39
0.400
  6
CONTINUOUS
 10
2.48052
 20
27.81882
 30
 0
 11
2.80342
 21
27.81882
  0
LINE
  8
Engraving
 62
   7
 39
0.400
  6
CONTINUOUS
 10
2.80342
 20
27.81882
 30
 0
 11
2.98505
 21
27.83900
  0
LINE
  8
Engraving
 62
   7
 39
0.400
  6
CONTINUOUS
 10
2.98505
 20
27.83900
 30
 0
 11
3.12631
 21
27.91972
  0
LINE
  8
Engraving
 62
   7
 39
0.400
  6
CONTINUOUS
 10
3.12631
 20
27.91972
 30
 0
 11
3.24740
 21
28.08117
  0
LINE
  8
Engraving
 62
   7
 39
0.400
  6
CONTINUOUS
 10
3.24740
 20
28.08117
 30
 0
 11
3.30794
 21
28.30317
  0
LINE
  8
Engraving
 62
   7
 39
0.400
  6
CONTINUOUS
 10
3.30794
 20
28.30317
 30
 0
 11
3.30794
 21
29.93783
  0
LINE
  8
Engraving
 62
   7
 39
0.400
  6
CONTINUOUS
 10
3.30794
 20
29.93783
 30
 0
 11
3.26758
 21
30.09928
  0
LINE
  8
Engraving
 62
   7
 39
0.400
  6
CONTINUOUS
 10
3.26758
 20
30.09928
 30
 0
 11
3.18686
 21
30.26073
  0
LINE
  8
Engraving
 62
   7
 39
0.400
  6
CONTINUOUS
 10
3.18686
 20
30.26073
 30
 0
 11
3.08595
 21
30.34146
  0
LINE
  8
Engraving
 62
   7
 39
0.400
  6
CONTINUOUS
 10
3.08595
 20
30.34146
 30
 0
 11
2.98505
 21
30.40200
  0
LINE
  8
Engraving
 62
   7
 39
0.400
  6
CONTINUOUS
 10
2.98505
 20
30.40200
 30
 0
 11
2.80342
 21
30.42218
  0
LINE
  8
Engraving
 62
   7
 39
0.400
  6
CONTINUOUS
 10
2.80342
 20
30.42218
 30
 0
 11
2.48052
 21
30.42218
  0
LINE
  8
Engraving
 62
   7
 39
0.400
  6
CONTINUOUS
 10
2.48052
 20
30.42218
 30
 0
 11
2.31907
 21
30.40200
  0
LINE
  8
Engraving
 62
   7
 39
0.400
  6
CONTINUOUS
 10
2.31907
 20
30.40200
 30
 0
 11
2.17780
 21
30.32128
  0
LINE
  8
Engraving
 62
   7
 39
0.400
  6
CONTINUOUS
 10
2.17780
 20
30.32128
 30
 0
 11
2.07690
 21
30.22037
  0
LINE
  8
Engraving
 62
   7
 39
0.400
  6
CONTINUOUS
 10
2.07690
 20
30.22037
 30
 0
 11
2.01635
 21
30.09928
  0
LINE
  8
Engraving
 62
   7
 39
0.400
  6
CONTINUOUS
 10
2.01635
 20
30.09928
 30
 0
 11
1.99617
 21
29.93783
  0
LINE
  8
Engraving
 62
   7
 39
0.400
  6
CONTINUOUS
 10
1.99617
 20
29.93783
 30
 0
 11
1.99617
 21
29.13059
  0
LINE
  8
Engraving
 62
   7
 39
0.400
  6
CONTINUOUS
 10
3.83335
 20
30.40200
 30
 0
 11
3.83335
 21
28.32335
  0
LINE
  8
Engraving
 62
   7
 39
0.400
  6
CONTINUOUS
 10
3.83335
 20
28.32335
 30
 0
 11
3.89390
 21
28.08117
  0
LINE
  8
Engraving
 62
   7
 39
0.400
  6
CONTINUOUS
 10
3.89390
 20
28.08117
 30
 0
 11
3.97462
 21
27.96009
  0
LINE
  8
Engraving
 62
   7
 39
0.400
  6
CONTINUOUS
 10
3.97462
 20
27.96009
 30
 0
 11
4.13607
 21
27.85918
  0
LINE
  8
Engraving
 62
   7
 39
0.400
  6
CONTINUOUS
 10
4.13607
 20
27.85918
 30
 0
 11
4.33788
 21
27.81882
  0
LINE
  8
Engraving
 62
   7
 39
0.400
  6
CONTINUOUS
 10
4.33788
 20
27.81882
 30
 0
 11
4.60024
 21
27.81882
  0
LINE
  8
Engraving
 62
   7
 39
0.400
  6
CONTINUOUS
 10
4.60024
 20
27.81882
 30
 0
 11
4.76169
 21
27.83900
  0
LINE
  8
Engraving
 62
   7
 39
0.400
  6
CONTINUOUS
 10
4.76169
 20
27.83900
 30
 0
 11
4.94331
 21
27.93991
  0
LINE
  8
Engraving
 62
   7
 39
0.400
  6
CONTINUOUS
 10
4.94331
 20
27.93991
 30
 0
 11
5.08458
 21
28.12154
  0
LINE
  8
Engraving
 62
   7
 39
0.400
  6
CONTINUOUS
 10
5.08458
 20
28.12154
 30
 0
 11
5.12494
 21
28.32335
  0
LINE
  8
Engraving
 62
   7
 39
0.400
  6
CONTINUOUS
 10
5.12494
 20
28.32335
 30
 0
 11
5.12494
 21
30.40200
  0
LINE
  8
Engraving
 62
   7
 39
0.400
  6
CONTINUOUS
 10
6.31633
 20
27.84000
 30
 0
 11
6.31633
 21
30.40300
  0
LINE
  8
Engraving
 62
   7
 39
0.400
  6
CONTINUOUS
 10
5.63017
 20
30.40300
 30
 0
 11
7.02267
 21
30.40300
  0
LINE
  8
Engraving
 62
   7
 39
0.400
  6
CONTINUOUS
 10
7.54835
 20
27.84000
 30
 0
 11
7.54835
 21
30.40300
  0
LINE
  8
Engraving
 62
   7
 39
0.400
  6
CONTINUOUS
 10
7.54835
 20
30.40300
 30
 0
 11
8.27487
 21
30.40300
  0
LINE
  8
Engraving
 62
   7
 39
0.400
  6
CONTINUOUS
 10
8.27487
 20
30.40300
 30
 0
 11
8.49687
 21
30.34246
  0
LINE
  8
Engraving
 62
   7
 39
0.400
  6
CONTINUOUS
 10
8.49687
 20
30.34246
 30
 0
 11
8.63813
 21
30.24155
  0
LINE
  8
Engraving
 62
   7
 39
0.400
  6
CONTINUOUS
 10
8.63813
 20
30.24155
 30
 0
 11
8.73904
 21
30.10028
  0
LINE
  8
Engraving
 62
   7
 39
0.400
  6
CONTINUOUS
 10
8.73904
 20
30.10028
 30
 0
 11
8.75922
 21
29.91865
  0
LINE
  8
Engraving
 62
   7
 39
0.400
  6
CONTINUOUS
 10
8.75922
 20
29.91865
 30
 0
 11
8.75922
 21
29.63612
  0
LINE
  8
Engraving
 62
   7
 39
0.400
  6
CONTINUOUS
 10
8.75922
 20
29.63612
 30
 0
 11
8.73904
 21
29.47467
  0
LINE
  8
Engraving
 62
   7
 39
0.400
  6
CONTINUOUS
 10
8.73904
 20
29.47467
 30
 0
 11
8.63813
 21
29.31322
  0
LINE
  8
Engraving
 62
   7
 39
0.400
  6
CONTINUOUS
 10
8.63813
 20
29.31322
 30
 0
 11
8.51705
 21
29.21231
  0
LINE
  8
Engraving
 62
   7
 39
0.400
  6
CONTINUOUS
 10
8.51705
 20
29.21231
 30
 0
 11
8.29506
 21
29.15177
  0
LINE
  8
Engraving
 62
   7
 39
0.400
  6
CONTINUOUS
 10
8.29506
 20
29.15177
 30
 0
 11
7.54835
 21
29.15177
  0
LINE
  8
Engraving
 62
   7
 39
0.400
  6
CONTINUOUS
 10
9.28335
 20
30.40300
 30
 0
 11
9.28335
 21
28.32435
  0
LINE
  8
Engraving
 62
   7
 39
0.400
  6
CONTINUOUS
 10
9.28335
 20
28.32435
 30
 0
 11
9.34390
 21
28.08217
  0
LINE
  8
Engraving
 62
   7
 39
0.400
  6
CONTINUOUS
 10
9.34390
 20
28.08217
 30
 0
 11
9.42462
 21
27.96109
  0
LINE
  8
Engraving
 62
   7
 39
0.400
  6
CONTINUOUS
 10
9.42462
 20
27.96109
 30
 0
 11
9.58607
 21
27.86018
  0
LINE
  8
Engraving
 62
   7
 39
0.400
  6
CONTINUOUS
 10
9.58607
 20
27.86018
 30
 0
 11
9.78788
 21
27.81982
  0
LINE
  8
Engraving
 62
   7
 39
0.400
  6
CONTINUOUS
 10
9.78788
 20
27.81982
 30
 0
 11
10.05024
 21
27.81982
  0
LINE
  8
Engraving
 62
   7
 39
0.400
  6
CONTINUOUS
 10
10.05024
 20
27.81982
 30
 0
 11
10.21169
 21
27.84000
  0
LINE
  8
Engraving
 62
   7
 39
0.400
  6
CONTINUOUS
 10
10.21169
 20
27.84000
 30
 0
 11
10.39331
 21
27.94091
  0
LINE
  8
Engraving
 62
   7
 39
0.400
  6
CONTINUOUS
 10
10.39331
 20
27.94091
 30
 0
 11
10.53458
 21
28.12254
  0
LINE
  8
Engraving
 62
   7
 39
0.400
  6
CONTINUOUS
 10
10.53458
 20
28.12254
 30
 0
 11
10.57494
 21
28.32435
  0
LINE
  8
Engraving
 62
   7
 39
0.400
  6
CONTINUOUS
 10
10.57494
 20
28.32435
 30
 0
 11
10.57494
 21
30.40300
  0
LINE
  8
Engraving
 62
   7
 39
0.400
  6
CONTINUOUS
 10
11.76533
 20
27.84100
 30
 0
 11
11.76533
 21
30.40400
  0
LINE
  8
Engraving
 62
   7
 39
0.400
  6
CONTINUOUS
 10
11.07917
 20
30.40400
 30
 0
 11
12.47167
 21
30.40400
  0
LINE
  8
Engraving
 62
   7
 39
0.400
  6
CONTINUOUS
 10
12.99635
 20
28.64824
 30
 0
 11
12.99635
 21
28.30517
  0
LINE
  8
Engraving
 62
   7
 39
0.400
  6
CONTINUOUS
 10
12.99635
 20
28.30517
 30
 0
 11
13.03672
 21
28.12354
  0
LINE
  8
Engraving
 62
   7
 39
0.400
  6
CONTINUOUS
 10
13.03672
 20
28.12354
 30
 0
 11
13.13762
 21
27.96209
  0
LINE
  8
Engraving
 62
   7
 39
0.400
  6
CONTINUOUS
 10
13.13762
 20
27.96209
 30
 0
 11
13.27889
 21
27.86118
  0
LINE
  8
Engraving
 62
   7
 39
0.400
  6
CONTINUOUS
 10
13.27889
 20
27.86118
 30
 0
 11
13.48070
 21
27.82082
  0
LINE
  8
Engraving
 62
   7
 39
0.400
  6
CONTINUOUS
 10
13.48070
 20
27.82082
 30
 0
 11
13.72287
 21
27.82082
  0
LINE
  8
Engraving
 62
   7
 39
0.400
  6
CONTINUOUS
 10
13.72287
 20
27.82082
 30
 0
 11
13.86414
 21
27.84100
  0
LINE
  8
Engraving
 62
   7
 39
0.400
  6
CONTINUOUS
 10
13.86414
 20
27.84100
 30
 0
 11
14.04577
 21
27.94191
  0
LINE
  8
Engraving
 62
   7
 39
0.400
  6
CONTINUOUS
 10
14.04577
 20
27.94191
 30
 0
 11
14.16686
 21
28.10335
  0
LINE
  8
Engraving
 62
   7
 39
0.400
  6
CONTINUOUS
 10
14.16686
 20
28.10335
 30
 0
 11
14.20722
 21
28.30517
  0
LINE
  8
Engraving
 62
   7
 39
0.400
  6
CONTINUOUS
 10
14.20722
 20
28.30517
 30
 0
 11
14.20722
 21
28.44643
  0
LINE
  8
Engraving
 62
   7
 39
0.400
  6
CONTINUOUS
 10
14.20722
 20
28.44643
 30
 0
 11
14.16686
 21
28.58770
  0
LINE
  8
Engraving
 62
   7
 39
0.400
  6
CONTINUOUS
 10
14.16686
 20
28.58770
 30
 0
 11
14.08613
 21
28.74915
  0
LINE
  8
Engraving
 62
   7
 39
0.400
  6
CONTINUOUS
 10
14.08613
 20
28.74915
 30
 0
 11
14.00541
 21
28.82987
  0
LINE
  8
Engraving
 62
   7
 39
0.400
  6
CONTINUOUS
 10
14.00541
 20
28.82987
 30
 0
 11
13.88432
 21
28.93078
  0
LINE
  8
Engraving
 62
   7
 39
0.400
  6
CONTINUOUS
 10
13.88432
 20
28.93078
 30
 0
 11
13.29907
 21
29.45549
  0
LINE
  8
Engraving
 62
   7
 39
0.400
  6
CONTINUOUS
 10
13.29907
 20
29.45549
 30
 0
 11
13.19817
 21
29.53621
  0
LINE
  8
Engraving
 62
   7
 39
0.400
  6
CONTINUOUS
 10
13.19817
 20
29.53621
 30
 0
 11
13.09726
 21
29.65730
  0
LINE
  8
Engraving
 62
   7
 39
0.400
  6
CONTINUOUS
 10
13.09726
 20
29.65730
 30
 0
 11
13.05690
 21
29.71784
  0
LINE
  8
Engraving
 62
   7
 39
0.400
  6
CONTINUOUS
 10
13.05690
 20
29.71784
 30
 0
 11
13.03672
 21
29.81875
  0
LINE
  8
Engraving
 62
   7
 39
0.400
  6
CONTINUOUS
 10
13.03672
 20
29.81875
 30
 0
 11
13.03672
 21
30.00038
  0
LINE
  8
Engraving
 62
   7
 39
0.400
  6
CONTINUOUS
 10
13.03672
 20
30.00038
 30
 0
 11
13.09726
 21
30.18201
  0
LINE
  8
Engraving
 62
   7
 39
0.400
  6
CONTINUOUS
 10
13.09726
 20
30.18201
 30
 0
 11
13.17798
 21
30.30309
  0
LINE
  8
Engraving
 62
   7
 39
0.400
  6
CONTINUOUS
 10
13.17798
 20
30.30309
 30
 0
 11
13.29907
 21
30.38382
  0
LINE
  8
Engraving
 62
   7
 39
0.400
  6
CONTINUOUS
 10
13.29907
 20
30.38382
 30
 0
 11
13.50088
 21
30.42418
  0
LINE
  8
Engraving
 62
   7
 39
0.400
  6
CONTINUOUS
 10
13.50088
 20
30.42418
 30
 0
 11
13.70269
 21
30.42418
  0
LINE
  8
Engraving
 62
   7
 39
0.400
  6
CONTINUOUS
 10
13.70269
 20
30.42418
 30
 0
 11
13.82378
 21
30.40400
  0
LINE
  8
Engraving
 62
   7
 39
0.400
  6
CONTINUOUS
 10
13.82378
 20
30.40400
 30
 0
 11
13.96505
 21
30.34346
  0
LINE
  8
Engraving
 62
   7
 39
0.400
  6
CONTINUOUS
 10
13.96505
 20
30.34346
 30
 0
 11
14.06595
 21
30.24255
  0
LINE
  8
Engraving
 62
   7
 39
0.400
  6
CONTINUOUS
 10
14.06595
 20
30.24255
 30
 0
 11
14.14668
 21
30.10128
  0
LINE
  8
Engraving
 62
   7
 39
0.400
  6
CONTINUOUS
 10
14.14668
 20
30.10128
 30
 0
 11
14.16686
 21
29.96002
  0
LINE
  8
Engraving
 62
   7
 39
0.400
  6
CONTINUOUS
 10
14.16686
 20
29.96002
 30
 0
 11
14.16686
 21
29.77839
  0
LINE
  8
Engraving
 62
   7
 39
0.400
  6
CONTINUOUS
 10
20.80017
 20
111.28200
 30
 0
 11
20.80017
 21
108.71900
  0
ARC
  8
Engraving
 62
   7
 39
0.400
  6
CONTINUOUS
 10
33.99099
 20
110.62943
 30
 0
 40
0.61019
 50
118.02066
 51
169.47166
  0
ARC
  8
Engraving
 62
   7
 39
0.400
  6
CONTINUOUS
 10
34.18846
 20
110.26840
 30
 0
 40
1.02167
 50
61.71531
 51
118.28469
  0
ARC
  8
Engraving
 62
   7
 39
0.400
  6
CONTINUOUS
 10
34.35742
 20
110.62701
 30
 0
 40
0.62617
 50
-59.78085
 51
59.78085
  0
LINE
  8
Engraving
 62
   7
 39
0.400
  6
CONTINUOUS
 10
34.67258
 20
110.08593
 30
 0
 11
33.70433
 21
109.48790
  0
ARC
  8
Engraving
 62
   7
 39
0.400
  6
CONTINUOUS
 10
34.18058
 20
108.72021
 30
 0
 40
0.90341
 50
121.81387
 51
180.07692
  0
LINE
  8
Engraving
 62
   7
 39
0.400
  6
CONTINUOUS
 10
33.27717
 20
108.71900
 30
 0
 11
34.98583
 21
108.71900
  0
LINE
  8
Engraving
 62
   7
 39
0.400
  6
CONTINUOUS
 10
46.58817
 20
111.28200
 30
 0
 11
48.15444
 21
111.28200
  0
ARC
  8
Engraving
 62
   7
 39
0.400
  6
CONTINUOUS
 10
46.65055
 20
111.66707
 30
 0
 40
1.55241
 50
289.06860
 51
345.63799
  0
ARC
  8
Engraving
 62
   7
 39
0.400
  6
CONTINUOUS
 10
47.49946
 20
108.86512
 30
 0
 40
1.37778
 50
75.63893
 51
104.36107
  0
ARC
  8
Engraving
 62
   7
 39
0.400
  6
CONTINUOUS
 10
47.65183
 20
109.47273
 30
 0
 40
0.75136
 50
30.85748
 51
75.40272
  0
ARC
  8
Engraving
 62
   7
 39
0.400
  6
CONTINUOUS
 10
47.67601
 20
109.48109
 30
 0
 40
0.72634
 50
-35.36110
 51
31.27028
  0
ARC
  8
Engraving
 62
   7
 39
0.400
  6
CONTINUOUS
 10
47.67036
 20
109.47646
 30
 0
 40
0.72831
 50
285.88223
 51
325.19313
  0
ARC
  8
Engraving
 62
   7
 39
0.400
  6
CONTINUOUS
 10
47.42960
 20
110.26329
 30
 0
 40
1.55107
 50
257.76003
 51
286.48217
  0
ARC
  8
Engraving
 62
   7
 39
0.400
  6
CONTINUOUS
 10
47.26034
 20
109.53054
 30
 0
 40
0.79916
 50
208.74918
 51
258.48212
  0
LINE
  8
Engraving
 62
   7
 39
0.400
  6
CONTINUOUS
 10
61.87852
 20
109.57333
 30
 0
 11
59.74269
 21
109.57333
  0
LINE
  8
Engraving
 62
   7
 39
0.400
  6
CONTINUOUS
 10
59.74269
 20
109.57333
 30
 0
 11
59.74269
 21
109.71572
  0
LINE
  8
Engraving
 62
   7
 39
0.400
  6
CONTINUOUS
 10
59.74269
 20
109.71572
 30
 0
 11
61.16658
 21
111.28200
  0
LINE
  8
Engraving
 62
   7
 39
0.400
  6
CONTINUOUS
 10
61.16658
 20
111.28200
 30
 0
 11
61.30897
 21
111.28200
  0
LINE
  8
Engraving
 62
   7
 39
0.400
  6
CONTINUOUS
 10
61.30897
 20
111.28200
 30
 0
 11
61.30897
 21
108.71900
  0
CIRCLE
  8
Contour
 62
   7
 39
0.100
  6
CONTINUOUS
 10
7.50000
 20
125.50000
 30
 0
 40
1.50000
  0
CIRCLE
  8
Contour
 62
   7
 39
0.100
  6
CONTINUOUS
 10
7.50000
 20
3.00000
 30
 0
 40
1.50000
  0
CIRCLE
  8
Contour
 62
   7
 39
0.100
  6
CONTINUOUS
 10
58.30000
 20
125.50000
 30
 0
 40
1.50000
  0
CIRCLE
  8
Contour
 62
   7
 39
0.100
  6
CONTINUOUS
 10
58.30000
 20
3.00000
 30
 0
 40
1.50000
  0
CIRCLE
  8
Contour
 62
   7
 39
0.100
  6
CONTINUOUS
 10
20.79500
 20
98.34500
 30
 0
 40
3.50000
  0
CIRCLE
  8
Contour
 62
   7
 39
0.100
  6
CONTINUOUS
 10
34.13500
 20
98.34500
 30
 0
 40
3.50000
  0
CIRCLE
  8
Contour
 62
   7
 39
0.100
  6
CONTINUOUS
 10
47.47500
 20
98.34500
 30
 0
 40
3.50000
  0
CIRCLE
  8
Contour
 62
   7
 39
0.100
  6
CONTINUOUS
 10
60.81500
 20
98.34500
 30
 0
 40
3.50000
  0
CIRCLE
  8
Contour
 62
   7
 39
0.100
  6
CONTINUOUS
 10
20.79500
 20
83.10500
 30
 0
 40
3.50000
  0
CIRCLE
  8
Contour
 62
   7
 39
0.100
  6
CONTINUOUS
 10
34.13500
 20
83.10500
 30
 0
 40
3.50000
  0
CIRCLE
  8
Contour
 62
   7
 39
0.100
  6
CONTINUOUS
 10
47.47500
 20
83.10500
 30
 0
 40
3.50000
  0
CIRCLE
  8
Contour
 62
   7
 39
0.100
  6
CONTINUOUS
 10
60.81500
 20
83.10500
 30
 0
 40
3.50000
  0
CIRCLE
  8
Contour
 62
   7
 39
0.100
  6
CONTINUOUS
 10
20.79500
 20
67.86500
 30
 0
 40
3.50000
  0
CIRCLE
  8
Contour
 62
   7
 39
0.100
  6
CONTINUOUS
 10
34.13500
 20
67.86500
 30
 0
 40
3.50000
  0
CIRCLE
  8
Contour
 62
   7
 39
0.100
  6
CONTINUOUS
 10
47.47500
 20
67.86500
 30
 0
 40
3.50000
  0
CIRCLE
  8
Contour
 62
   7
 39
0.100
  6
CONTINUOUS
 10
60.81500
 20
67.86500
 30
 0
 40
3.50000
  0
CIRCLE
  8
Contour
 62
   7
 39
0.100
  6
CONTINUOUS
 10
20.79500
 20
52.62500
 30
 0
 40
3.50000
  0
CIRCLE
  8
Contour
 62
   7
 39
0.100
  6
CONTINUOUS
 10
34.13500
 20
52.62500
 30
 0
 40
3.50000
  0
CIRCLE
  8
Contour
 62
   7
 39
0.100
  6
CONTINUOUS
 10
47.47500
 20
52.62500
 30
 0
 40
3.50000
  0
CIRCLE
  8
Contour
 62
   7
 39
0.100
  6
CONTINUOUS
 10
60.81500
 20
52.62500
 30
 0
 40
3.50000
  0
CIRCLE
  8
Contour
 62
   7
 39
0.100
  6
CONTINUOUS
 10
8.09500
 20
98.34500
 30
 0
 40
3.00000
  0
CIRCLE
  8
Contour
 62
   7
 39
0.100
  6
CONTINUOUS
 10
8.09500
 20
83.10500
 30
 0
 40
3.00000
  0
CIRCLE
  8
Contour
 62
   7
 39
0.100
  6
CONTINUOUS
 10
8.09500
 20
67.86500
 30
 0
 40
3.00000
  0
CIRCLE
  8
Contour
 62
   7
 39
0.100
  6
CONTINUOUS
 10
8.09500
 20
52.62500
 30
 0
 40
3.00000
  0
CIRCLE
  8
Contour
 62
   7
 39
0.100
  6
CONTINUOUS
 10
20.79500
 20
29.12500
 30
 0
 40
3.00000
  0
CIRCLE
  8
Contour
 62
   7
 39
0.100
  6
CONTINUOUS
 10
34.13500
 20
29.12500
 30
 0
 40
3.00000
  0
CIRCLE
  8
Contour
 62
   7
 39
0.100
  6
CONTINUOUS
 10
47.47500
 20
29.12500
 30
 0
 40
3.00000
  0
CIRCLE
  8
Contour
 62
   7
 39
0.100
  6
CONTINUOUS
 10
60.81500
 20
29.12500
 30
 0
 40
3.00000
  0
ENDSEC
  0
EOF
