  0
SECTION
  2
HEADER
  9
$MEASUREMENT
  70
  1
  9
$INSUNITS
  70
  4
  0
ENDSEC
  0
SECTION
  2
TABLES
  0
TABLE
  2
LTYPE
 70
     1
  0
LTYPE
  2
CONTINUOUS
 70
    64
  3
Ausgezogene Linie
 72
    65
 73
     0
 40
0.0
  0
ENDTAB
  0
TABLE
  2
LAYER
 70
     3
  0
LAYER
  2
Contour
 70
    64
 62
     7
  6
CONTINUOUS
  0
LAYER
  2
Engraving
 70
    64
 62
     7
  6
CONTINUOUS
  0
LAYER
  2
Reference_points
 70
    64
 62
     1
  6
CONTINUOUS
  0
ENDTAB
  0
TABLE
  2
STYLE
 70
     1
  0
STYLE
  2
TXT
 70
    64
 40
0.0
 41
1.0
 50
0.0
 71
     0
 42
3.500000
  3
TXT
  0
ENDTAB
  0
ENDSEC
  0
SECTION
  2
BLOCKS
  0
ENDSEC
  0
SECTION
  2
ENTITIES
  0
LINE
  8
Contour
 62
   7
 39
0.100
  6
CONTINUOUS
 10
60.62000
 20
128.40000
 30
 0
 11
60.62000
 21
0.00000
  0
LINE
  8
Contour
 62
   7
 39
0.100
  6
CONTINUOUS
 10
60.62000
 20
0.00000
 30
 0
 11
0.00000
 21
0.00000
  0
LINE
  8
Contour
 62
   7
 39
0.100
  6
CONTINUOUS
 10
0.00000
 20
0.00000
 30
 0
 11
0.00000
 21
128.40000
  0
LINE
  8
Contour
 62
   7
 39
0.100
  6
CONTINUOUS
 10
0.00000
 20
128.40000
 30
 0
 11
60.62000
 21
128.40000
  0
LINE
  8
Engraving
 62
   7
 39
0.400
  6
CONTINUOUS
 10
26.59735
 20
113.93200
 30
 0
 11
26.59735
 21
111.36900
  0
LINE
  8
Engraving
 62
   7
 39
0.400
  6
CONTINUOUS
 10
27.10217
 20
111.36900
 30
 0
 11
27.10217
 21
113.16512
  0
LINE
  8
Engraving
 62
   7
 39
0.400
  6
CONTINUOUS
 10
27.10217
 20
113.16512
 30
 0
 11
27.10217
 21
112.98349
  0
LINE
  8
Engraving
 62
   7
 39
0.400
  6
CONTINUOUS
 10
27.10217
 20
112.98349
 30
 0
 11
27.24344
 21
113.06421
  0
LINE
  8
Engraving
 62
   7
 39
0.400
  6
CONTINUOUS
 10
27.24344
 20
113.06421
 30
 0
 11
27.38471
 21
113.12476
  0
LINE
  8
Engraving
 62
   7
 39
0.400
  6
CONTINUOUS
 10
27.38471
 20
113.12476
 30
 0
 11
27.46543
 21
113.16512
  0
LINE
  8
Engraving
 62
   7
 39
0.400
  6
CONTINUOUS
 10
27.46543
 20
113.16512
 30
 0
 11
27.64706
 21
113.18530
  0
LINE
  8
Engraving
 62
   7
 39
0.400
  6
CONTINUOUS
 10
27.64706
 20
113.18530
 30
 0
 11
27.82869
 21
113.16512
  0
LINE
  8
Engraving
 62
   7
 39
0.400
  6
CONTINUOUS
 10
27.82869
 20
113.16512
 30
 0
 11
27.99014
 21
113.06421
  0
LINE
  8
Engraving
 62
   7
 39
0.400
  6
CONTINUOUS
 10
27.99014
 20
113.06421
 30
 0
 11
28.09105
 21
112.94313
  0
LINE
  8
Engraving
 62
   7
 39
0.400
  6
CONTINUOUS
 10
28.09105
 20
112.94313
 30
 0
 11
28.13141
 21
112.72113
  0
LINE
  8
Engraving
 62
   7
 39
0.400
  6
CONTINUOUS
 10
28.13141
 20
112.72113
 30
 0
 11
28.13141
 21
111.36900
  0
LINE
  8
Engraving
 62
   7
 39
0.400
  6
CONTINUOUS
 10
28.63617
 20
110.70302
 30
 0
 11
28.63617
 21
113.16512
  0
LINE
  8
Engraving
 62
   7
 39
0.400
  6
CONTINUOUS
 10
28.63617
 20
113.16512
 30
 0
 11
28.63617
 21
113.06421
  0
LINE
  8
Engraving
 62
   7
 39
0.400
  6
CONTINUOUS
 10
28.63617
 20
113.06421
 30
 0
 11
28.77744
 21
113.12476
  0
LINE
  8
Engraving
 62
   7
 39
0.400
  6
CONTINUOUS
 10
28.77744
 20
113.12476
 30
 0
 11
28.91871
 21
113.16512
  0
LINE
  8
Engraving
 62
   7
 39
0.400
  6
CONTINUOUS
 10
28.91871
 20
113.16512
 30
 0
 11
29.05998
 21
113.18530
  0
LINE
  8
Engraving
 62
   7
 39
0.400
  6
CONTINUOUS
 10
29.05998
 20
113.18530
 30
 0
 11
29.20124
 21
113.18530
  0
LINE
  8
Engraving
 62
   7
 39
0.400
  6
CONTINUOUS
 10
29.20124
 20
113.18530
 30
 0
 11
29.36269
 21
113.16512
  0
LINE
  8
Engraving
 62
   7
 39
0.400
  6
CONTINUOUS
 10
29.36269
 20
113.16512
 30
 0
 11
29.50396
 21
113.08439
  0
LINE
  8
Engraving
 62
   7
 39
0.400
  6
CONTINUOUS
 10
29.50396
 20
113.08439
 30
 0
 11
29.62505
 21
112.96331
  0
LINE
  8
Engraving
 62
   7
 39
0.400
  6
CONTINUOUS
 10
29.62505
 20
112.96331
 30
 0
 11
29.68559
 21
112.84222
  0
LINE
  8
Engraving
 62
   7
 39
0.400
  6
CONTINUOUS
 10
29.68559
 20
112.84222
 30
 0
 11
29.70577
 21
112.72113
  0
LINE
  8
Engraving
 62
   7
 39
0.400
  6
CONTINUOUS
 10
29.70577
 20
112.72113
 30
 0
 11
29.70577
 21
111.81298
  0
LINE
  8
Engraving
 62
   7
 39
0.400
  6
CONTINUOUS
 10
29.70577
 20
111.81298
 30
 0
 11
29.66541
 21
111.61117
  0
LINE
  8
Engraving
 62
   7
 39
0.400
  6
CONTINUOUS
 10
29.66541
 20
111.61117
 30
 0
 11
29.56450
 21
111.49009
  0
LINE
  8
Engraving
 62
   7
 39
0.400
  6
CONTINUOUS
 10
29.56450
 20
111.49009
 30
 0
 11
29.42324
 21
111.38918
  0
LINE
  8
Engraving
 62
   7
 39
0.400
  6
CONTINUOUS
 10
29.42324
 20
111.38918
 30
 0
 11
29.22143
 21
111.34882
  0
LINE
  8
Engraving
 62
   7
 39
0.400
  6
CONTINUOUS
 10
29.22143
 20
111.34882
 30
 0
 11
29.05998
 21
111.34882
  0
LINE
  8
Engraving
 62
   7
 39
0.400
  6
CONTINUOUS
 10
29.05998
 20
111.34882
 30
 0
 11
28.87835
 21
111.38918
  0
LINE
  8
Engraving
 62
   7
 39
0.400
  6
CONTINUOUS
 10
28.87835
 20
111.38918
 30
 0
 11
28.73708
 21
111.49009
  0
LINE
  8
Engraving
 62
   7
 39
0.400
  6
CONTINUOUS
 10
28.73708
 20
111.49009
 30
 0
 11
28.63617
 21
111.67172
  0
LINE
  8
Engraving
 62
   7
 39
0.400
  6
CONTINUOUS
 10
31.24041
 20
113.16512
 30
 0
 11
31.24041
 21
111.36900
  0
LINE
  8
Engraving
 62
   7
 39
0.400
  6
CONTINUOUS
 10
31.24041
 20
111.36900
 30
 0
 11
31.24041
 21
111.55063
  0
LINE
  8
Engraving
 62
   7
 39
0.400
  6
CONTINUOUS
 10
31.24041
 20
111.55063
 30
 0
 11
31.09914
 21
111.44972
  0
LINE
  8
Engraving
 62
   7
 39
0.400
  6
CONTINUOUS
 10
31.09914
 20
111.44972
 30
 0
 11
30.97806
 21
111.40936
  0
LINE
  8
Engraving
 62
   7
 39
0.400
  6
CONTINUOUS
 10
30.97806
 20
111.40936
 30
 0
 11
30.87715
 21
111.36900
  0
LINE
  8
Engraving
 62
   7
 39
0.400
  6
CONTINUOUS
 10
30.87715
 20
111.36900
 30
 0
 11
30.71570
 21
111.34882
  0
LINE
  8
Engraving
 62
   7
 39
0.400
  6
CONTINUOUS
 10
30.71570
 20
111.34882
 30
 0
 11
30.53407
 21
111.36900
  0
LINE
  8
Engraving
 62
   7
 39
0.400
  6
CONTINUOUS
 10
30.53407
 20
111.36900
 30
 0
 11
30.37262
 21
111.46991
  0
LINE
  8
Engraving
 62
   7
 39
0.400
  6
CONTINUOUS
 10
30.37262
 20
111.46991
 30
 0
 11
30.27172
 21
111.59099
  0
LINE
  8
Engraving
 62
   7
 39
0.400
  6
CONTINUOUS
 10
30.27172
 20
111.59099
 30
 0
 11
30.21117
 21
111.81298
  0
LINE
  8
Engraving
 62
   7
 39
0.400
  6
CONTINUOUS
 10
30.21117
 20
111.81298
 30
 0
 11
30.21117
 21
113.16512
  0
LINE
  8
Engraving
 62
   7
 39
0.400
  6
CONTINUOUS
 10
32.16798
 20
113.46883
 30
 0
 11
32.16798
 21
111.63235
  0
LINE
  8
Engraving
 62
   7
 39
0.400
  6
CONTINUOUS
 10
32.16798
 20
111.63235
 30
 0
 11
32.18816
 21
111.51127
  0
LINE
  8
Engraving
 62
   7
 39
0.400
  6
CONTINUOUS
 10
32.18816
 20
111.51127
 30
 0
 11
32.22852
 21
111.41036
  0
LINE
  8
Engraving
 62
   7
 39
0.400
  6
CONTINUOUS
 10
32.22852
 20
111.41036
 30
 0
 11
32.30924
 21
111.37000
  0
LINE
  8
Engraving
 62
   7
 39
0.400
  6
CONTINUOUS
 10
32.30924
 20
111.37000
 30
 0
 11
32.57160
 21
111.39018
  0
LINE
  8
Engraving
 62
   7
 39
0.400
  6
CONTINUOUS
 10
31.76435
 20
113.18630
 30
 0
 11
32.55142
 21
113.18630
  0
LINE
  8
Engraving
 62
   7
 39
0.400
  6
CONTINUOUS
 10
33.07517
 20
111.99661
 30
 0
 11
33.07517
 21
111.71408
  0
LINE
  8
Engraving
 62
   7
 39
0.400
  6
CONTINUOUS
 10
33.07517
 20
111.71408
 30
 0
 11
33.09535
 21
111.57281
  0
LINE
  8
Engraving
 62
   7
 39
0.400
  6
CONTINUOUS
 10
33.09535
 20
111.57281
 30
 0
 11
33.19626
 21
111.45172
  0
LINE
  8
Engraving
 62
   7
 39
0.400
  6
CONTINUOUS
 10
33.19626
 20
111.45172
 30
 0
 11
33.31735
 21
111.37100
  0
LINE
  8
Engraving
 62
   7
 39
0.400
  6
CONTINUOUS
 10
33.31735
 20
111.37100
 30
 0
 11
33.45861
 21
111.35082
  0
LINE
  8
Engraving
 62
   7
 39
0.400
  6
CONTINUOUS
 10
33.45861
 20
111.35082
 30
 0
 11
33.64024
 21
111.35082
  0
LINE
  8
Engraving
 62
   7
 39
0.400
  6
CONTINUOUS
 10
33.64024
 20
111.35082
 30
 0
 11
33.76133
 21
111.37100
  0
LINE
  8
Engraving
 62
   7
 39
0.400
  6
CONTINUOUS
 10
33.76133
 20
111.37100
 30
 0
 11
33.90260
 21
111.45172
  0
LINE
  8
Engraving
 62
   7
 39
0.400
  6
CONTINUOUS
 10
33.90260
 20
111.45172
 30
 0
 11
33.98332
 21
111.55263
  0
LINE
  8
Engraving
 62
   7
 39
0.400
  6
CONTINUOUS
 10
33.98332
 20
111.55263
 30
 0
 11
34.02369
 21
111.71408
  0
LINE
  8
Engraving
 62
   7
 39
0.400
  6
CONTINUOUS
 10
34.02369
 20
111.71408
 30
 0
 11
34.02369
 21
111.81498
  0
LINE
  8
Engraving
 62
   7
 39
0.400
  6
CONTINUOUS
 10
34.02369
 20
111.81498
 30
 0
 11
34.00350
 21
111.93607
  0
LINE
  8
Engraving
 62
   7
 39
0.400
  6
CONTINUOUS
 10
34.00350
 20
111.93607
 30
 0
 11
33.94296
 21
112.03698
  0
LINE
  8
Engraving
 62
   7
 39
0.400
  6
CONTINUOUS
 10
33.94296
 20
112.03698
 30
 0
 11
33.86224
 21
112.09752
  0
LINE
  8
Engraving
 62
   7
 39
0.400
  6
CONTINUOUS
 10
33.86224
 20
112.09752
 30
 0
 11
33.80169
 21
112.13788
  0
LINE
  8
Engraving
 62
   7
 39
0.400
  6
CONTINUOUS
 10
33.80169
 20
112.13788
 30
 0
 11
33.33753
 21
112.50114
  0
LINE
  8
Engraving
 62
   7
 39
0.400
  6
CONTINUOUS
 10
33.33753
 20
112.50114
 30
 0
 11
33.21644
 21
112.58187
  0
LINE
  8
Engraving
 62
   7
 39
0.400
  6
CONTINUOUS
 10
33.21644
 20
112.58187
 30
 0
 11
33.15590
 21
112.66259
  0
LINE
  8
Engraving
 62
   7
 39
0.400
  6
CONTINUOUS
 10
33.15590
 20
112.66259
 30
 0
 11
33.09535
 21
112.76350
  0
LINE
  8
Engraving
 62
   7
 39
0.400
  6
CONTINUOUS
 10
33.09535
 20
112.76350
 30
 0
 11
33.09535
 21
112.84422
  0
LINE
  8
Engraving
 62
   7
 39
0.400
  6
CONTINUOUS
 10
33.09535
 20
112.84422
 30
 0
 11
33.11554
 21
112.90476
  0
LINE
  8
Engraving
 62
   7
 39
0.400
  6
CONTINUOUS
 10
33.11554
 20
112.90476
 30
 0
 11
33.15590
 21
113.02585
  0
LINE
  8
Engraving
 62
   7
 39
0.400
  6
CONTINUOUS
 10
33.15590
 20
113.02585
 30
 0
 11
33.21644
 21
113.10657
  0
LINE
  8
Engraving
 62
   7
 39
0.400
  6
CONTINUOUS
 10
33.21644
 20
113.10657
 30
 0
 11
33.31735
 21
113.16712
  0
LINE
  8
Engraving
 62
   7
 39
0.400
  6
CONTINUOUS
 10
33.31735
 20
113.16712
 30
 0
 11
33.47880
 21
113.20748
  0
LINE
  8
Engraving
 62
   7
 39
0.400
  6
CONTINUOUS
 10
33.47880
 20
113.20748
 30
 0
 11
33.62006
 21
113.20748
  0
LINE
  8
Engraving
 62
   7
 39
0.400
  6
CONTINUOUS
 10
33.62006
 20
113.20748
 30
 0
 11
33.72097
 21
113.18730
  0
LINE
  8
Engraving
 62
   7
 39
0.400
  6
CONTINUOUS
 10
33.72097
 20
113.18730
 30
 0
 11
33.84206
 21
113.12676
  0
LINE
  8
Engraving
 62
   7
 39
0.400
  6
CONTINUOUS
 10
33.84206
 20
113.12676
 30
 0
 11
33.92278
 21
113.04603
  0
LINE
  8
Engraving
 62
   7
 39
0.400
  6
CONTINUOUS
 10
33.92278
 20
113.04603
 30
 0
 11
33.98332
 21
112.94513
  0
LINE
  8
Engraving
 62
   7
 39
0.400
  6
CONTINUOUS
 10
33.98332
 20
112.94513
 30
 0
 11
34.00350
 21
112.84422
  0
LINE
  8
Engraving
 62
   7
 39
0.400
  6
CONTINUOUS
 10
34.00350
 20
112.84422
 30
 0
 11
34.00350
 21
112.68277
  0
LINE
  8
Engraving
 62
   7
 39
0.400
  6
CONTINUOUS
 10
25.27517
 20
30.07059
 30
 0
 11
25.27517
 21
29.24317
  0
LINE
  8
Engraving
 62
   7
 39
0.400
  6
CONTINUOUS
 10
25.27517
 20
29.24317
 30
 0
 11
25.31554
 21
29.04135
  0
LINE
  8
Engraving
 62
   7
 39
0.400
  6
CONTINUOUS
 10
25.31554
 20
29.04135
 30
 0
 11
25.39626
 21
28.92027
  0
LINE
  8
Engraving
 62
   7
 39
0.400
  6
CONTINUOUS
 10
25.39626
 20
28.92027
 30
 0
 11
25.49717
 21
28.83954
  0
LINE
  8
Engraving
 62
   7
 39
0.400
  6
CONTINUOUS
 10
25.49717
 20
28.83954
 30
 0
 11
25.63843
 21
28.75882
  0
LINE
  8
Engraving
 62
   7
 39
0.400
  6
CONTINUOUS
 10
25.63843
 20
28.75882
 30
 0
 11
25.75952
 21
28.75882
  0
LINE
  8
Engraving
 62
   7
 39
0.400
  6
CONTINUOUS
 10
25.75952
 20
28.75882
 30
 0
 11
26.08242
 21
28.75882
  0
LINE
  8
Engraving
 62
   7
 39
0.400
  6
CONTINUOUS
 10
26.08242
 20
28.75882
 30
 0
 11
26.26405
 21
28.77900
  0
LINE
  8
Engraving
 62
   7
 39
0.400
  6
CONTINUOUS
 10
26.26405
 20
28.77900
 30
 0
 11
26.40531
 21
28.85972
  0
LINE
  8
Engraving
 62
   7
 39
0.400
  6
CONTINUOUS
 10
26.40531
 20
28.85972
 30
 0
 11
26.52640
 21
29.02117
  0
LINE
  8
Engraving
 62
   7
 39
0.400
  6
CONTINUOUS
 10
26.52640
 20
29.02117
 30
 0
 11
26.58694
 21
29.24317
  0
LINE
  8
Engraving
 62
   7
 39
0.400
  6
CONTINUOUS
 10
26.58694
 20
29.24317
 30
 0
 11
26.58694
 21
30.87783
  0
LINE
  8
Engraving
 62
   7
 39
0.400
  6
CONTINUOUS
 10
26.58694
 20
30.87783
 30
 0
 11
26.54658
 21
31.03928
  0
LINE
  8
Engraving
 62
   7
 39
0.400
  6
CONTINUOUS
 10
26.54658
 20
31.03928
 30
 0
 11
26.46586
 21
31.20073
  0
LINE
  8
Engraving
 62
   7
 39
0.400
  6
CONTINUOUS
 10
26.46586
 20
31.20073
 30
 0
 11
26.36495
 21
31.28146
  0
LINE
  8
Engraving
 62
   7
 39
0.400
  6
CONTINUOUS
 10
26.36495
 20
31.28146
 30
 0
 11
26.26405
 21
31.34200
  0
LINE
  8
Engraving
 62
   7
 39
0.400
  6
CONTINUOUS
 10
26.26405
 20
31.34200
 30
 0
 11
26.08242
 21
31.36218
  0
LINE
  8
Engraving
 62
   7
 39
0.400
  6
CONTINUOUS
 10
26.08242
 20
31.36218
 30
 0
 11
25.75952
 21
31.36218
  0
LINE
  8
Engraving
 62
   7
 39
0.400
  6
CONTINUOUS
 10
25.75952
 20
31.36218
 30
 0
 11
25.59807
 21
31.34200
  0
LINE
  8
Engraving
 62
   7
 39
0.400
  6
CONTINUOUS
 10
25.59807
 20
31.34200
 30
 0
 11
25.45680
 21
31.26128
  0
LINE
  8
Engraving
 62
   7
 39
0.400
  6
CONTINUOUS
 10
25.45680
 20
31.26128
 30
 0
 11
25.35590
 21
31.16037
  0
LINE
  8
Engraving
 62
   7
 39
0.400
  6
CONTINUOUS
 10
25.35590
 20
31.16037
 30
 0
 11
25.29535
 21
31.03928
  0
LINE
  8
Engraving
 62
   7
 39
0.400
  6
CONTINUOUS
 10
25.29535
 20
31.03928
 30
 0
 11
25.27517
 21
30.87783
  0
LINE
  8
Engraving
 62
   7
 39
0.400
  6
CONTINUOUS
 10
25.27517
 20
30.87783
 30
 0
 11
25.27517
 21
30.07059
  0
LINE
  8
Engraving
 62
   7
 39
0.400
  6
CONTINUOUS
 10
28.12141
 20
30.57512
 30
 0
 11
28.12141
 21
28.77900
  0
LINE
  8
Engraving
 62
   7
 39
0.400
  6
CONTINUOUS
 10
28.12141
 20
28.77900
 30
 0
 11
28.12141
 21
28.96063
  0
LINE
  8
Engraving
 62
   7
 39
0.400
  6
CONTINUOUS
 10
28.12141
 20
28.96063
 30
 0
 11
27.98014
 21
28.85972
  0
LINE
  8
Engraving
 62
   7
 39
0.400
  6
CONTINUOUS
 10
27.98014
 20
28.85972
 30
 0
 11
27.85906
 21
28.81936
  0
LINE
  8
Engraving
 62
   7
 39
0.400
  6
CONTINUOUS
 10
27.85906
 20
28.81936
 30
 0
 11
27.75815
 21
28.77900
  0
LINE
  8
Engraving
 62
   7
 39
0.400
  6
CONTINUOUS
 10
27.75815
 20
28.77900
 30
 0
 11
27.59670
 21
28.75882
  0
LINE
  8
Engraving
 62
   7
 39
0.400
  6
CONTINUOUS
 10
27.59670
 20
28.75882
 30
 0
 11
27.41507
 21
28.77900
  0
LINE
  8
Engraving
 62
   7
 39
0.400
  6
CONTINUOUS
 10
27.41507
 20
28.77900
 30
 0
 11
27.25362
 21
28.87991
  0
LINE
  8
Engraving
 62
   7
 39
0.400
  6
CONTINUOUS
 10
27.25362
 20
28.87991
 30
 0
 11
27.15272
 21
29.00099
  0
LINE
  8
Engraving
 62
   7
 39
0.400
  6
CONTINUOUS
 10
27.15272
 20
29.00099
 30
 0
 11
27.09217
 21
29.22298
  0
LINE
  8
Engraving
 62
   7
 39
0.400
  6
CONTINUOUS
 10
27.09217
 20
29.22298
 30
 0
 11
27.09217
 21
30.57512
  0
LINE
  8
Engraving
 62
   7
 39
0.400
  6
CONTINUOUS
 10
29.04998
 20
30.87883
 30
 0
 11
29.04998
 21
29.04235
  0
LINE
  8
Engraving
 62
   7
 39
0.400
  6
CONTINUOUS
 10
29.04998
 20
29.04235
 30
 0
 11
29.07016
 21
28.92127
  0
LINE
  8
Engraving
 62
   7
 39
0.400
  6
CONTINUOUS
 10
29.07016
 20
28.92127
 30
 0
 11
29.11052
 21
28.82036
  0
LINE
  8
Engraving
 62
   7
 39
0.400
  6
CONTINUOUS
 10
29.11052
 20
28.82036
 30
 0
 11
29.19124
 21
28.78000
  0
LINE
  8
Engraving
 62
   7
 39
0.400
  6
CONTINUOUS
 10
29.19124
 20
28.78000
 30
 0
 11
29.45360
 21
28.80018
  0
LINE
  8
Engraving
 62
   7
 39
0.400
  6
CONTINUOUS
 10
28.64635
 20
30.59630
 30
 0
 11
29.43342
 21
30.59630
  0
LINE
  8
Engraving
 62
   7
 39
0.400
  6
CONTINUOUS
 10
29.95817
 20
28.11502
 30
 0
 11
29.95817
 21
30.57712
  0
LINE
  8
Engraving
 62
   7
 39
0.400
  6
CONTINUOUS
 10
29.95817
 20
30.57712
 30
 0
 11
29.95817
 21
30.47621
  0
LINE
  8
Engraving
 62
   7
 39
0.400
  6
CONTINUOUS
 10
29.95817
 20
30.47621
 30
 0
 11
30.09944
 21
30.53676
  0
LINE
  8
Engraving
 62
   7
 39
0.400
  6
CONTINUOUS
 10
30.09944
 20
30.53676
 30
 0
 11
30.24071
 21
30.57712
  0
LINE
  8
Engraving
 62
   7
 39
0.400
  6
CONTINUOUS
 10
30.24071
 20
30.57712
 30
 0
 11
30.38198
 21
30.59730
  0
LINE
  8
Engraving
 62
   7
 39
0.400
  6
CONTINUOUS
 10
30.38198
 20
30.59730
 30
 0
 11
30.52324
 21
30.59730
  0
LINE
  8
Engraving
 62
   7
 39
0.400
  6
CONTINUOUS
 10
30.52324
 20
30.59730
 30
 0
 11
30.68469
 21
30.57712
  0
LINE
  8
Engraving
 62
   7
 39
0.400
  6
CONTINUOUS
 10
30.68469
 20
30.57712
 30
 0
 11
30.82596
 21
30.49639
  0
LINE
  8
Engraving
 62
   7
 39
0.400
  6
CONTINUOUS
 10
30.82596
 20
30.49639
 30
 0
 11
30.94705
 21
30.37531
  0
LINE
  8
Engraving
 62
   7
 39
0.400
  6
CONTINUOUS
 10
30.94705
 20
30.37531
 30
 0
 11
31.00759
 21
30.25422
  0
LINE
  8
Engraving
 62
   7
 39
0.400
  6
CONTINUOUS
 10
31.00759
 20
30.25422
 30
 0
 11
31.02777
 21
30.13313
  0
LINE
  8
Engraving
 62
   7
 39
0.400
  6
CONTINUOUS
 10
31.02777
 20
30.13313
 30
 0
 11
31.02777
 21
29.22498
  0
LINE
  8
Engraving
 62
   7
 39
0.400
  6
CONTINUOUS
 10
31.02777
 20
29.22498
 30
 0
 11
30.98741
 21
29.02317
  0
LINE
  8
Engraving
 62
   7
 39
0.400
  6
CONTINUOUS
 10
30.98741
 20
29.02317
 30
 0
 11
30.88650
 21
28.90209
  0
LINE
  8
Engraving
 62
   7
 39
0.400
  6
CONTINUOUS
 10
30.88650
 20
28.90209
 30
 0
 11
30.74524
 21
28.80118
  0
LINE
  8
Engraving
 62
   7
 39
0.400
  6
CONTINUOUS
 10
30.74524
 20
28.80118
 30
 0
 11
30.54343
 21
28.76082
  0
LINE
  8
Engraving
 62
   7
 39
0.400
  6
CONTINUOUS
 10
30.54343
 20
28.76082
 30
 0
 11
30.38198
 21
28.76082
  0
LINE
  8
Engraving
 62
   7
 39
0.400
  6
CONTINUOUS
 10
30.38198
 20
28.76082
 30
 0
 11
30.20035
 21
28.80118
  0
LINE
  8
Engraving
 62
   7
 39
0.400
  6
CONTINUOUS
 10
30.20035
 20
28.80118
 30
 0
 11
30.05908
 21
28.90209
  0
LINE
  8
Engraving
 62
   7
 39
0.400
  6
CONTINUOUS
 10
30.05908
 20
28.90209
 30
 0
 11
29.95817
 21
29.08372
  0
LINE
  8
Engraving
 62
   7
 39
0.400
  6
CONTINUOUS
 10
32.56141
 20
30.57712
 30
 0
 11
32.56141
 21
28.78100
  0
LINE
  8
Engraving
 62
   7
 39
0.400
  6
CONTINUOUS
 10
32.56141
 20
28.78100
 30
 0
 11
32.56141
 21
28.96263
  0
LINE
  8
Engraving
 62
   7
 39
0.400
  6
CONTINUOUS
 10
32.56141
 20
28.96263
 30
 0
 11
32.42014
 21
28.86172
  0
LINE
  8
Engraving
 62
   7
 39
0.400
  6
CONTINUOUS
 10
32.42014
 20
28.86172
 30
 0
 11
32.29906
 21
28.82136
  0
LINE
  8
Engraving
 62
   7
 39
0.400
  6
CONTINUOUS
 10
32.29906
 20
28.82136
 30
 0
 11
32.19815
 21
28.78100
  0
LINE
  8
Engraving
 62
   7
 39
0.400
  6
CONTINUOUS
 10
32.19815
 20
28.78100
 30
 0
 11
32.03670
 21
28.76082
  0
LINE
  8
Engraving
 62
   7
 39
0.400
  6
CONTINUOUS
 10
32.03670
 20
28.76082
 30
 0
 11
31.85507
 21
28.78100
  0
LINE
  8
Engraving
 62
   7
 39
0.400
  6
CONTINUOUS
 10
31.85507
 20
28.78100
 30
 0
 11
31.69362
 21
28.88191
  0
LINE
  8
Engraving
 62
   7
 39
0.400
  6
CONTINUOUS
 10
31.69362
 20
28.88191
 30
 0
 11
31.59272
 21
29.00299
  0
LINE
  8
Engraving
 62
   7
 39
0.400
  6
CONTINUOUS
 10
31.59272
 20
29.00299
 30
 0
 11
31.53217
 21
29.22498
  0
LINE
  8
Engraving
 62
   7
 39
0.400
  6
CONTINUOUS
 10
31.53217
 20
29.22498
 30
 0
 11
31.53217
 21
30.57712
  0
LINE
  8
Engraving
 62
   7
 39
0.400
  6
CONTINUOUS
 10
33.48898
 20
30.88083
 30
 0
 11
33.48898
 21
29.04435
  0
LINE
  8
Engraving
 62
   7
 39
0.400
  6
CONTINUOUS
 10
33.48898
 20
29.04435
 30
 0
 11
33.50916
 21
28.92327
  0
LINE
  8
Engraving
 62
   7
 39
0.400
  6
CONTINUOUS
 10
33.50916
 20
28.92327
 30
 0
 11
33.54952
 21
28.82236
  0
LINE
  8
Engraving
 62
   7
 39
0.400
  6
CONTINUOUS
 10
33.54952
 20
28.82236
 30
 0
 11
33.63024
 21
28.78200
  0
LINE
  8
Engraving
 62
   7
 39
0.400
  6
CONTINUOUS
 10
33.63024
 20
28.78200
 30
 0
 11
33.89260
 21
28.80218
  0
LINE
  8
Engraving
 62
   7
 39
0.400
  6
CONTINUOUS
 10
33.08535
 20
30.59830
 30
 0
 11
33.87242
 21
30.59830
  0
LINE
  8
Engraving
 62
   7
 39
0.400
  6
CONTINUOUS
 10
34.39617
 20
29.40861
 30
 0
 11
34.39617
 21
29.12608
  0
LINE
  8
Engraving
 62
   7
 39
0.400
  6
CONTINUOUS
 10
34.39617
 20
29.12608
 30
 0
 11
34.41635
 21
28.98481
  0
LINE
  8
Engraving
 62
   7
 39
0.400
  6
CONTINUOUS
 10
34.41635
 20
28.98481
 30
 0
 11
34.51726
 21
28.86372
  0
LINE
  8
Engraving
 62
   7
 39
0.400
  6
CONTINUOUS
 10
34.51726
 20
28.86372
 30
 0
 11
34.63835
 21
28.78300
  0
LINE
  8
Engraving
 62
   7
 39
0.400
  6
CONTINUOUS
 10
34.63835
 20
28.78300
 30
 0
 11
34.77961
 21
28.76282
  0
LINE
  8
Engraving
 62
   7
 39
0.400
  6
CONTINUOUS
 10
34.77961
 20
28.76282
 30
 0
 11
34.96124
 21
28.76282
  0
LINE
  8
Engraving
 62
   7
 39
0.400
  6
CONTINUOUS
 10
34.96124
 20
28.76282
 30
 0
 11
35.08233
 21
28.78300
  0
LINE
  8
Engraving
 62
   7
 39
0.400
  6
CONTINUOUS
 10
35.08233
 20
28.78300
 30
 0
 11
35.22360
 21
28.86372
  0
LINE
  8
Engraving
 62
   7
 39
0.400
  6
CONTINUOUS
 10
35.22360
 20
28.86372
 30
 0
 11
35.30432
 21
28.96463
  0
LINE
  8
Engraving
 62
   7
 39
0.400
  6
CONTINUOUS
 10
35.30432
 20
28.96463
 30
 0
 11
35.34469
 21
29.12608
  0
LINE
  8
Engraving
 62
   7
 39
0.400
  6
CONTINUOUS
 10
35.34469
 20
29.12608
 30
 0
 11
35.34469
 21
29.22698
  0
LINE
  8
Engraving
 62
   7
 39
0.400
  6
CONTINUOUS
 10
35.34469
 20
29.22698
 30
 0
 11
35.32450
 21
29.34807
  0
LINE
  8
Engraving
 62
   7
 39
0.400
  6
CONTINUOUS
 10
35.32450
 20
29.34807
 30
 0
 11
35.26396
 21
29.44898
  0
LINE
  8
Engraving
 62
   7
 39
0.400
  6
CONTINUOUS
 10
35.26396
 20
29.44898
 30
 0
 11
35.18324
 21
29.50952
  0
LINE
  8
Engraving
 62
   7
 39
0.400
  6
CONTINUOUS
 10
35.18324
 20
29.50952
 30
 0
 11
35.12269
 21
29.54988
  0
LINE
  8
Engraving
 62
   7
 39
0.400
  6
CONTINUOUS
 10
35.12269
 20
29.54988
 30
 0
 11
34.65853
 21
29.91314
  0
LINE
  8
Engraving
 62
   7
 39
0.400
  6
CONTINUOUS
 10
34.65853
 20
29.91314
 30
 0
 11
34.53744
 21
29.99387
  0
LINE
  8
Engraving
 62
   7
 39
0.400
  6
CONTINUOUS
 10
34.53744
 20
29.99387
 30
 0
 11
34.47690
 21
30.07459
  0
LINE
  8
Engraving
 62
   7
 39
0.400
  6
CONTINUOUS
 10
34.47690
 20
30.07459
 30
 0
 11
34.41635
 21
30.17550
  0
LINE
  8
Engraving
 62
   7
 39
0.400
  6
CONTINUOUS
 10
34.41635
 20
30.17550
 30
 0
 11
34.41635
 21
30.25622
  0
LINE
  8
Engraving
 62
   7
 39
0.400
  6
CONTINUOUS
 10
34.41635
 20
30.25622
 30
 0
 11
34.43654
 21
30.31676
  0
LINE
  8
Engraving
 62
   7
 39
0.400
  6
CONTINUOUS
 10
34.43654
 20
30.31676
 30
 0
 11
34.47690
 21
30.43785
  0
LINE
  8
Engraving
 62
   7
 39
0.400
  6
CONTINUOUS
 10
34.47690
 20
30.43785
 30
 0
 11
34.53744
 21
30.51857
  0
LINE
  8
Engraving
 62
   7
 39
0.400
  6
CONTINUOUS
 10
34.53744
 20
30.51857
 30
 0
 11
34.63835
 21
30.57912
  0
LINE
  8
Engraving
 62
   7
 39
0.400
  6
CONTINUOUS
 10
34.63835
 20
30.57912
 30
 0
 11
34.79980
 21
30.61948
  0
LINE
  8
Engraving
 62
   7
 39
0.400
  6
CONTINUOUS
 10
34.79980
 20
30.61948
 30
 0
 11
34.94106
 21
30.61948
  0
LINE
  8
Engraving
 62
   7
 39
0.400
  6
CONTINUOUS
 10
34.94106
 20
30.61948
 30
 0
 11
35.04197
 21
30.59930
  0
LINE
  8
Engraving
 62
   7
 39
0.400
  6
CONTINUOUS
 10
35.04197
 20
30.59930
 30
 0
 11
35.16306
 21
30.53876
  0
LINE
  8
Engraving
 62
   7
 39
0.400
  6
CONTINUOUS
 10
35.16306
 20
30.53876
 30
 0
 11
35.24378
 21
30.45803
  0
LINE
  8
Engraving
 62
   7
 39
0.400
  6
CONTINUOUS
 10
35.24378
 20
30.45803
 30
 0
 11
35.30432
 21
30.35713
  0
LINE
  8
Engraving
 62
   7
 39
0.400
  6
CONTINUOUS
 10
35.30432
 20
30.35713
 30
 0
 11
35.32450
 21
30.25622
  0
LINE
  8
Engraving
 62
   7
 39
0.400
  6
CONTINUOUS
 10
35.32450
 20
30.25622
 30
 0
 11
35.32450
 21
30.09477
  0
LINE
  8
Engraving
 62
   7
 39
0.400
  6
CONTINUOUS
 10
22.65239
 20
4.28200
 30
 0
 11
21.92587
 21
2.92987
  0
LINE
  8
Engraving
 62
   7
 39
0.400
  6
CONTINUOUS
 10
21.92587
 20
2.92987
 30
 0
 11
21.19935
 21
4.28200
  0
LINE
  8
Engraving
 62
   7
 39
0.400
  6
CONTINUOUS
 10
21.92587
 20
2.92987
 30
 0
 11
21.92587
 21
1.71900
  0
LINE
  8
Engraving
 62
   7
 39
0.400
  6
CONTINUOUS
 10
23.15717
 20
2.62715
 30
 0
 11
23.15717
 21
2.14280
  0
LINE
  8
Engraving
 62
   7
 39
0.400
  6
CONTINUOUS
 10
23.15717
 20
2.14280
 30
 0
 11
23.19754
 21
1.96117
  0
LINE
  8
Engraving
 62
   7
 39
0.400
  6
CONTINUOUS
 10
23.19754
 20
1.96117
 30
 0
 11
23.29844
 21
1.81991
  0
LINE
  8
Engraving
 62
   7
 39
0.400
  6
CONTINUOUS
 10
23.29844
 20
1.81991
 30
 0
 11
23.48007
 21
1.71900
  0
LINE
  8
Engraving
 62
   7
 39
0.400
  6
CONTINUOUS
 10
23.48007
 20
1.71900
 30
 0
 11
23.62134
 21
1.69882
  0
LINE
  8
Engraving
 62
   7
 39
0.400
  6
CONTINUOUS
 10
23.62134
 20
1.69882
 30
 0
 11
23.80297
 21
1.69882
  0
LINE
  8
Engraving
 62
   7
 39
0.400
  6
CONTINUOUS
 10
23.80297
 20
1.69882
 30
 0
 11
23.96442
 21
1.73918
  0
LINE
  8
Engraving
 62
   7
 39
0.400
  6
CONTINUOUS
 10
23.96442
 20
1.73918
 30
 0
 11
24.08550
 21
1.84009
  0
LINE
  8
Engraving
 62
   7
 39
0.400
  6
CONTINUOUS
 10
24.08550
 20
1.84009
 30
 0
 11
24.18641
 21
2.00154
  0
LINE
  8
Engraving
 62
   7
 39
0.400
  6
CONTINUOUS
 10
24.18641
 20
2.00154
 30
 0
 11
24.22677
 21
2.14280
  0
LINE
  8
Engraving
 62
   7
 39
0.400
  6
CONTINUOUS
 10
24.22677
 20
2.14280
 30
 0
 11
24.22677
 21
3.07113
  0
LINE
  8
Engraving
 62
   7
 39
0.400
  6
CONTINUOUS
 10
24.22677
 20
3.07113
 30
 0
 11
24.16623
 21
3.29313
  0
LINE
  8
Engraving
 62
   7
 39
0.400
  6
CONTINUOUS
 10
24.16623
 20
3.29313
 30
 0
 11
24.06532
 21
3.41421
  0
LINE
  8
Engraving
 62
   7
 39
0.400
  6
CONTINUOUS
 10
24.06532
 20
3.41421
 30
 0
 11
23.92406
 21
3.51512
  0
LINE
  8
Engraving
 62
   7
 39
0.400
  6
CONTINUOUS
 10
23.92406
 20
3.51512
 30
 0
 11
23.76261
 21
3.53530
  0
LINE
  8
Engraving
 62
   7
 39
0.400
  6
CONTINUOUS
 10
23.76261
 20
3.53530
 30
 0
 11
23.62134
 21
3.53530
  0
LINE
  8
Engraving
 62
   7
 39
0.400
  6
CONTINUOUS
 10
23.62134
 20
3.53530
 30
 0
 11
23.41953
 21
3.49494
  0
LINE
  8
Engraving
 62
   7
 39
0.400
  6
CONTINUOUS
 10
23.41953
 20
3.49494
 30
 0
 11
23.27826
 21
3.39403
  0
LINE
  8
Engraving
 62
   7
 39
0.400
  6
CONTINUOUS
 10
23.27826
 20
3.39403
 30
 0
 11
23.19754
 21
3.27294
  0
LINE
  8
Engraving
 62
   7
 39
0.400
  6
CONTINUOUS
 10
23.19754
 20
3.27294
 30
 0
 11
23.15717
 21
3.07113
  0
LINE
  8
Engraving
 62
   7
 39
0.400
  6
CONTINUOUS
 10
23.15717
 20
3.07113
 30
 0
 11
23.15717
 21
2.62715
  0
LINE
  8
Engraving
 62
   7
 39
0.400
  6
CONTINUOUS
 10
24.75235
 20
1.71900
 30
 0
 11
24.75235
 21
3.51512
  0
LINE
  8
Engraving
 62
   7
 39
0.400
  6
CONTINUOUS
 10
24.75235
 20
3.51512
 30
 0
 11
24.75235
 21
3.35367
  0
LINE
  8
Engraving
 62
   7
 39
0.400
  6
CONTINUOUS
 10
24.75235
 20
3.35367
 30
 0
 11
24.97435
 21
3.45457
  0
LINE
  8
Engraving
 62
   7
 39
0.400
  6
CONTINUOUS
 10
24.97435
 20
3.45457
 30
 0
 11
25.11561
 21
3.51512
  0
LINE
  8
Engraving
 62
   7
 39
0.400
  6
CONTINUOUS
 10
25.11561
 20
3.51512
 30
 0
 11
25.29724
 21
3.53530
  0
LINE
  8
Engraving
 62
   7
 39
0.400
  6
CONTINUOUS
 10
25.29724
 20
3.53530
 30
 0
 11
25.45869
 21
3.53530
  0
LINE
  8
Engraving
 62
   7
 39
0.400
  6
CONTINUOUS
 10
25.94317
 20
4.28200
 30
 0
 11
25.94317
 21
1.71900
  0
LINE
  8
Engraving
 62
   7
 39
0.400
  6
CONTINUOUS
 10
27.07331
 20
3.51512
 30
 0
 11
25.94317
 21
2.72806
  0
LINE
  8
Engraving
 62
   7
 39
0.400
  6
CONTINUOUS
 10
25.94317
 20
2.72806
 30
 0
 11
26.20553
 21
2.90969
  0
LINE
  8
Engraving
 62
   7
 39
0.400
  6
CONTINUOUS
 10
26.20553
 20
2.90969
 30
 0
 11
27.09350
 21
1.71900
  0
LINE
  8
Engraving
 62
   7
 39
0.400
  6
CONTINUOUS
 10
29.61717
 20
1.71900
 30
 0
 11
29.61717
 21
4.28200
  0
LINE
  8
Engraving
 62
   7
 39
0.400
  6
CONTINUOUS
 10
29.61717
 20
4.28200
 30
 0
 11
29.79880
 21
4.28200
  0
LINE
  8
Engraving
 62
   7
 39
0.400
  6
CONTINUOUS
 10
29.79880
 20
4.28200
 30
 0
 11
30.54550
 21
1.71900
  0
LINE
  8
Engraving
 62
   7
 39
0.400
  6
CONTINUOUS
 10
30.54550
 20
1.71900
 30
 0
 11
31.27202
 21
4.28200
  0
LINE
  8
Engraving
 62
   7
 39
0.400
  6
CONTINUOUS
 10
31.27202
 20
4.28200
 30
 0
 11
31.45365
 21
4.28200
  0
LINE
  8
Engraving
 62
   7
 39
0.400
  6
CONTINUOUS
 10
31.45365
 20
4.28200
 30
 0
 11
31.45365
 21
1.71900
  0
LINE
  8
Engraving
 62
   7
 39
0.400
  6
CONTINUOUS
 10
31.95817
 20
2.62715
 30
 0
 11
31.95817
 21
2.14280
  0
LINE
  8
Engraving
 62
   7
 39
0.400
  6
CONTINUOUS
 10
31.95817
 20
2.14280
 30
 0
 11
31.99854
 21
1.96117
  0
LINE
  8
Engraving
 62
   7
 39
0.400
  6
CONTINUOUS
 10
31.99854
 20
1.96117
 30
 0
 11
32.09944
 21
1.81991
  0
LINE
  8
Engraving
 62
   7
 39
0.400
  6
CONTINUOUS
 10
32.09944
 20
1.81991
 30
 0
 11
32.28107
 21
1.71900
  0
LINE
  8
Engraving
 62
   7
 39
0.400
  6
CONTINUOUS
 10
32.28107
 20
1.71900
 30
 0
 11
32.42234
 21
1.69882
  0
LINE
  8
Engraving
 62
   7
 39
0.400
  6
CONTINUOUS
 10
32.42234
 20
1.69882
 30
 0
 11
32.60397
 21
1.69882
  0
LINE
  8
Engraving
 62
   7
 39
0.400
  6
CONTINUOUS
 10
32.60397
 20
1.69882
 30
 0
 11
32.76542
 21
1.73918
  0
LINE
  8
Engraving
 62
   7
 39
0.400
  6
CONTINUOUS
 10
32.76542
 20
1.73918
 30
 0
 11
32.88650
 21
1.84009
  0
LINE
  8
Engraving
 62
   7
 39
0.400
  6
CONTINUOUS
 10
32.88650
 20
1.84009
 30
 0
 11
32.98741
 21
2.00154
  0
LINE
  8
Engraving
 62
   7
 39
0.400
  6
CONTINUOUS
 10
32.98741
 20
2.00154
 30
 0
 11
33.02777
 21
2.14280
  0
LINE
  8
Engraving
 62
   7
 39
0.400
  6
CONTINUOUS
 10
33.02777
 20
2.14280
 30
 0
 11
33.02777
 21
3.07113
  0
LINE
  8
Engraving
 62
   7
 39
0.400
  6
CONTINUOUS
 10
33.02777
 20
3.07113
 30
 0
 11
32.96723
 21
3.29313
  0
LINE
  8
Engraving
 62
   7
 39
0.400
  6
CONTINUOUS
 10
32.96723
 20
3.29313
 30
 0
 11
32.86632
 21
3.41421
  0
LINE
  8
Engraving
 62
   7
 39
0.400
  6
CONTINUOUS
 10
32.86632
 20
3.41421
 30
 0
 11
32.72506
 21
3.51512
  0
LINE
  8
Engraving
 62
   7
 39
0.400
  6
CONTINUOUS
 10
32.72506
 20
3.51512
 30
 0
 11
32.56361
 21
3.53530
  0
LINE
  8
Engraving
 62
   7
 39
0.400
  6
CONTINUOUS
 10
32.56361
 20
3.53530
 30
 0
 11
32.42234
 21
3.53530
  0
LINE
  8
Engraving
 62
   7
 39
0.400
  6
CONTINUOUS
 10
32.42234
 20
3.53530
 30
 0
 11
32.22053
 21
3.49494
  0
LINE
  8
Engraving
 62
   7
 39
0.400
  6
CONTINUOUS
 10
32.22053
 20
3.49494
 30
 0
 11
32.07926
 21
3.39403
  0
LINE
  8
Engraving
 62
   7
 39
0.400
  6
CONTINUOUS
 10
32.07926
 20
3.39403
 30
 0
 11
31.99854
 21
3.27294
  0
LINE
  8
Engraving
 62
   7
 39
0.400
  6
CONTINUOUS
 10
31.99854
 20
3.27294
 30
 0
 11
31.95817
 21
3.07113
  0
LINE
  8
Engraving
 62
   7
 39
0.400
  6
CONTINUOUS
 10
31.95817
 20
3.07113
 30
 0
 11
31.95817
 21
2.62715
  0
LINE
  8
Engraving
 62
   7
 39
0.400
  6
CONTINUOUS
 10
34.60177
 20
4.28200
 30
 0
 11
34.60177
 21
1.71900
  0
LINE
  8
Engraving
 62
   7
 39
0.400
  6
CONTINUOUS
 10
34.60177
 20
1.71900
 30
 0
 11
34.60177
 21
1.81991
  0
LINE
  8
Engraving
 62
   7
 39
0.400
  6
CONTINUOUS
 10
34.60177
 20
1.81991
 30
 0
 11
34.46050
 21
1.75936
  0
LINE
  8
Engraving
 62
   7
 39
0.400
  6
CONTINUOUS
 10
34.46050
 20
1.75936
 30
 0
 11
34.31924
 21
1.71900
  0
LINE
  8
Engraving
 62
   7
 39
0.400
  6
CONTINUOUS
 10
34.31924
 20
1.71900
 30
 0
 11
34.15779
 21
1.69882
  0
LINE
  8
Engraving
 62
   7
 39
0.400
  6
CONTINUOUS
 10
34.15779
 20
1.69882
 30
 0
 11
34.03670
 21
1.69882
  0
LINE
  8
Engraving
 62
   7
 39
0.400
  6
CONTINUOUS
 10
34.03670
 20
1.69882
 30
 0
 11
33.87525
 21
1.71900
  0
LINE
  8
Engraving
 62
   7
 39
0.400
  6
CONTINUOUS
 10
33.87525
 20
1.71900
 30
 0
 11
33.73398
 21
1.79972
  0
LINE
  8
Engraving
 62
   7
 39
0.400
  6
CONTINUOUS
 10
33.73398
 20
1.79972
 30
 0
 11
33.61290
 21
1.90063
  0
LINE
  8
Engraving
 62
   7
 39
0.400
  6
CONTINUOUS
 10
33.61290
 20
1.90063
 30
 0
 11
33.55235
 21
2.04190
  0
LINE
  8
Engraving
 62
   7
 39
0.400
  6
CONTINUOUS
 10
33.55235
 20
2.04190
 30
 0
 11
33.53217
 21
2.16298
  0
LINE
  8
Engraving
 62
   7
 39
0.400
  6
CONTINUOUS
 10
33.53217
 20
2.16298
 30
 0
 11
33.53217
 21
3.07113
  0
LINE
  8
Engraving
 62
   7
 39
0.400
  6
CONTINUOUS
 10
33.53217
 20
3.07113
 30
 0
 11
33.57254
 21
3.27294
  0
LINE
  8
Engraving
 62
   7
 39
0.400
  6
CONTINUOUS
 10
33.57254
 20
3.27294
 30
 0
 11
33.67344
 21
3.39403
  0
LINE
  8
Engraving
 62
   7
 39
0.400
  6
CONTINUOUS
 10
33.67344
 20
3.39403
 30
 0
 11
33.81471
 21
3.49494
  0
LINE
  8
Engraving
 62
   7
 39
0.400
  6
CONTINUOUS
 10
33.81471
 20
3.49494
 30
 0
 11
34.01652
 21
3.53530
  0
LINE
  8
Engraving
 62
   7
 39
0.400
  6
CONTINUOUS
 10
34.01652
 20
3.53530
 30
 0
 11
34.15779
 21
3.53530
  0
LINE
  8
Engraving
 62
   7
 39
0.400
  6
CONTINUOUS
 10
34.15779
 20
3.53530
 30
 0
 11
34.35960
 21
3.49494
  0
LINE
  8
Engraving
 62
   7
 39
0.400
  6
CONTINUOUS
 10
34.35960
 20
3.49494
 30
 0
 11
34.50087
 21
3.39403
  0
LINE
  8
Engraving
 62
   7
 39
0.400
  6
CONTINUOUS
 10
34.50087
 20
3.39403
 30
 0
 11
34.60177
 21
3.19222
  0
LINE
  8
Engraving
 62
   7
 39
0.400
  6
CONTINUOUS
 10
36.13541
 20
3.51512
 30
 0
 11
36.13541
 21
1.71900
  0
LINE
  8
Engraving
 62
   7
 39
0.400
  6
CONTINUOUS
 10
36.13541
 20
1.71900
 30
 0
 11
36.13541
 21
1.90063
  0
LINE
  8
Engraving
 62
   7
 39
0.400
  6
CONTINUOUS
 10
36.13541
 20
1.90063
 30
 0
 11
35.99414
 21
1.79972
  0
LINE
  8
Engraving
 62
   7
 39
0.400
  6
CONTINUOUS
 10
35.99414
 20
1.79972
 30
 0
 11
35.87306
 21
1.75936
  0
LINE
  8
Engraving
 62
   7
 39
0.400
  6
CONTINUOUS
 10
35.87306
 20
1.75936
 30
 0
 11
35.77215
 21
1.71900
  0
LINE
  8
Engraving
 62
   7
 39
0.400
  6
CONTINUOUS
 10
35.77215
 20
1.71900
 30
 0
 11
35.61070
 21
1.69882
  0
LINE
  8
Engraving
 62
   7
 39
0.400
  6
CONTINUOUS
 10
35.61070
 20
1.69882
 30
 0
 11
35.42907
 21
1.71900
  0
LINE
  8
Engraving
 62
   7
 39
0.400
  6
CONTINUOUS
 10
35.42907
 20
1.71900
 30
 0
 11
35.26762
 21
1.81991
  0
LINE
  8
Engraving
 62
   7
 39
0.400
  6
CONTINUOUS
 10
35.26762
 20
1.81991
 30
 0
 11
35.16672
 21
1.94099
  0
LINE
  8
Engraving
 62
   7
 39
0.400
  6
CONTINUOUS
 10
35.16672
 20
1.94099
 30
 0
 11
35.10617
 21
2.16298
  0
LINE
  8
Engraving
 62
   7
 39
0.400
  6
CONTINUOUS
 10
35.10617
 20
2.16298
 30
 0
 11
35.10617
 21
3.51512
  0
LINE
  8
Engraving
 62
   7
 39
0.400
  6
CONTINUOUS
 10
36.65935
 20
1.72000
 30
 0
 11
36.65935
 21
4.28300
  0
LINE
  8
Engraving
 62
   7
 39
0.400
  6
CONTINUOUS
 10
37.20354
 20
2.91069
 30
 0
 11
37.20354
 21
3.13268
  0
LINE
  8
Engraving
 62
   7
 39
0.400
  6
CONTINUOUS
 10
37.20354
 20
3.13268
 30
 0
 11
37.24390
 21
3.29413
  0
LINE
  8
Engraving
 62
   7
 39
0.400
  6
CONTINUOUS
 10
37.24390
 20
3.29413
 30
 0
 11
37.32462
 21
3.41521
  0
LINE
  8
Engraving
 62
   7
 39
0.400
  6
CONTINUOUS
 10
37.32462
 20
3.41521
 30
 0
 11
37.44571
 21
3.49594
  0
LINE
  8
Engraving
 62
   7
 39
0.400
  6
CONTINUOUS
 10
37.44571
 20
3.49594
 30
 0
 11
37.62734
 21
3.53630
  0
LINE
  8
Engraving
 62
   7
 39
0.400
  6
CONTINUOUS
 10
37.62734
 20
3.53630
 30
 0
 11
37.78879
 21
3.53630
  0
LINE
  8
Engraving
 62
   7
 39
0.400
  6
CONTINUOUS
 10
37.78879
 20
3.53630
 30
 0
 11
37.97042
 21
3.49594
  0
LINE
  8
Engraving
 62
   7
 39
0.400
  6
CONTINUOUS
 10
37.97042
 20
3.49594
 30
 0
 11
38.07132
 21
3.41521
  0
LINE
  8
Engraving
 62
   7
 39
0.400
  6
CONTINUOUS
 10
38.07132
 20
3.41521
 30
 0
 11
38.15205
 21
3.31431
  0
LINE
  8
Engraving
 62
   7
 39
0.400
  6
CONTINUOUS
 10
38.15205
 20
3.31431
 30
 0
 11
38.19241
 21
3.13268
  0
LINE
  8
Engraving
 62
   7
 39
0.400
  6
CONTINUOUS
 10
38.19241
 20
3.13268
 30
 0
 11
38.19241
 21
1.72000
  0
LINE
  8
Engraving
 62
   7
 39
0.400
  6
CONTINUOUS
 10
38.19241
 20
1.72000
 30
 0
 11
38.19241
 21
1.82091
  0
LINE
  8
Engraving
 62
   7
 39
0.400
  6
CONTINUOUS
 10
38.19241
 20
1.82091
 30
 0
 11
38.07132
 21
1.78054
  0
LINE
  8
Engraving
 62
   7
 39
0.400
  6
CONTINUOUS
 10
38.07132
 20
1.78054
 30
 0
 11
37.88969
 21
1.72000
  0
LINE
  8
Engraving
 62
   7
 39
0.400
  6
CONTINUOUS
 10
37.88969
 20
1.72000
 30
 0
 11
37.72824
 21
1.69982
  0
LINE
  8
Engraving
 62
   7
 39
0.400
  6
CONTINUOUS
 10
37.72824
 20
1.69982
 30
 0
 11
37.58698
 21
1.69982
  0
LINE
  8
Engraving
 62
   7
 39
0.400
  6
CONTINUOUS
 10
37.58698
 20
1.69982
 30
 0
 11
37.46589
 21
1.72000
  0
LINE
  8
Engraving
 62
   7
 39
0.400
  6
CONTINUOUS
 10
37.46589
 20
1.72000
 30
 0
 11
37.34480
 21
1.78054
  0
LINE
  8
Engraving
 62
   7
 39
0.400
  6
CONTINUOUS
 10
37.34480
 20
1.78054
 30
 0
 11
37.22372
 21
1.92181
  0
LINE
  8
Engraving
 62
   7
 39
0.400
  6
CONTINUOUS
 10
37.22372
 20
1.92181
 30
 0
 11
37.18335
 21
2.10344
  0
LINE
  8
Engraving
 62
   7
 39
0.400
  6
CONTINUOUS
 10
37.18335
 20
2.10344
 30
 0
 11
37.18335
 21
2.30525
  0
LINE
  8
Engraving
 62
   7
 39
0.400
  6
CONTINUOUS
 10
37.18335
 20
2.30525
 30
 0
 11
37.22372
 21
2.50706
  0
LINE
  8
Engraving
 62
   7
 39
0.400
  6
CONTINUOUS
 10
37.22372
 20
2.50706
 30
 0
 11
37.30444
 21
2.62815
  0
LINE
  8
Engraving
 62
   7
 39
0.400
  6
CONTINUOUS
 10
37.30444
 20
2.62815
 30
 0
 11
37.42553
 21
2.70887
  0
LINE
  8
Engraving
 62
   7
 39
0.400
  6
CONTINUOUS
 10
37.42553
 20
2.70887
 30
 0
 11
37.58698
 21
2.74924
  0
LINE
  8
Engraving
 62
   7
 39
0.400
  6
CONTINUOUS
 10
37.58698
 20
2.74924
 30
 0
 11
38.19241
 21
2.74924
  0
LINE
  8
Engraving
 62
   7
 39
0.400
  6
CONTINUOUS
 10
38.71635
 20
1.72000
 30
 0
 11
38.71635
 21
3.51612
  0
LINE
  8
Engraving
 62
   7
 39
0.400
  6
CONTINUOUS
 10
38.71635
 20
3.51612
 30
 0
 11
38.71635
 21
3.35467
  0
LINE
  8
Engraving
 62
   7
 39
0.400
  6
CONTINUOUS
 10
38.71635
 20
3.35467
 30
 0
 11
38.93835
 21
3.45557
  0
LINE
  8
Engraving
 62
   7
 39
0.400
  6
CONTINUOUS
 10
38.93835
 20
3.45557
 30
 0
 11
39.07961
 21
3.51612
  0
LINE
  8
Engraving
 62
   7
 39
0.400
  6
CONTINUOUS
 10
39.07961
 20
3.51612
 30
 0
 11
39.26124
 21
3.53630
  0
LINE
  8
Engraving
 62
   7
 39
0.400
  6
CONTINUOUS
 10
39.26124
 20
3.53630
 30
 0
 11
39.42269
 21
3.53630
  0
LINE
  8
Engraving
 62
   7
 39
0.400
  6
CONTINUOUS
 10
18.56535
 20
123.30700
 30
 0
 11
18.56535
 21
125.87000
  0
LINE
  8
Engraving
 62
   7
 39
0.400
  6
CONTINUOUS
 10
18.56535
 20
125.87000
 30
 0
 11
19.29187
 21
125.87000
  0
LINE
  8
Engraving
 62
   7
 39
0.400
  6
CONTINUOUS
 10
19.29187
 20
125.87000
 30
 0
 11
19.51387
 21
125.80946
  0
LINE
  8
Engraving
 62
   7
 39
0.400
  6
CONTINUOUS
 10
19.51387
 20
125.80946
 30
 0
 11
19.65513
 21
125.70855
  0
LINE
  8
Engraving
 62
   7
 39
0.400
  6
CONTINUOUS
 10
19.65513
 20
125.70855
 30
 0
 11
19.75604
 21
125.56728
  0
LINE
  8
Engraving
 62
   7
 39
0.400
  6
CONTINUOUS
 10
19.75604
 20
125.56728
 30
 0
 11
19.77622
 21
125.38565
  0
LINE
  8
Engraving
 62
   7
 39
0.400
  6
CONTINUOUS
 10
19.77622
 20
125.38565
 30
 0
 11
19.77622
 21
125.10312
  0
LINE
  8
Engraving
 62
   7
 39
0.400
  6
CONTINUOUS
 10
19.77622
 20
125.10312
 30
 0
 11
19.75604
 21
124.94167
  0
LINE
  8
Engraving
 62
   7
 39
0.400
  6
CONTINUOUS
 10
19.75604
 20
124.94167
 30
 0
 11
19.65513
 21
124.78022
  0
LINE
  8
Engraving
 62
   7
 39
0.400
  6
CONTINUOUS
 10
19.65513
 20
124.78022
 30
 0
 11
19.53405
 21
124.67931
  0
LINE
  8
Engraving
 62
   7
 39
0.400
  6
CONTINUOUS
 10
19.53405
 20
124.67931
 30
 0
 11
19.31206
 21
124.61877
  0
LINE
  8
Engraving
 62
   7
 39
0.400
  6
CONTINUOUS
 10
19.31206
 20
124.61877
 30
 0
 11
18.56535
 21
124.61877
  0
LINE
  8
Engraving
 62
   7
 39
0.400
  6
CONTINUOUS
 10
20.30135
 20
123.30700
 30
 0
 11
21.02787
 21
125.87000
  0
LINE
  8
Engraving
 62
   7
 39
0.400
  6
CONTINUOUS
 10
21.02787
 20
125.87000
 30
 0
 11
21.10860
 21
125.87000
  0
LINE
  8
Engraving
 62
   7
 39
0.400
  6
CONTINUOUS
 10
21.10860
 20
125.87000
 30
 0
 11
21.83512
 21
123.30700
  0
LINE
  8
Engraving
 62
   7
 39
0.400
  6
CONTINUOUS
 10
20.52335
 20
124.09406
 30
 0
 11
21.61313
 21
124.09406
  0
LINE
  8
Engraving
 62
   7
 39
0.400
  6
CONTINUOUS
 10
22.36035
 20
124.11424
 30
 0
 11
22.36035
 21
123.77117
  0
LINE
  8
Engraving
 62
   7
 39
0.400
  6
CONTINUOUS
 10
22.36035
 20
123.77117
 30
 0
 11
22.40072
 21
123.58954
  0
LINE
  8
Engraving
 62
   7
 39
0.400
  6
CONTINUOUS
 10
22.40072
 20
123.58954
 30
 0
 11
22.50162
 21
123.42809
  0
LINE
  8
Engraving
 62
   7
 39
0.400
  6
CONTINUOUS
 10
22.50162
 20
123.42809
 30
 0
 11
22.64289
 21
123.32718
  0
LINE
  8
Engraving
 62
   7
 39
0.400
  6
CONTINUOUS
 10
22.64289
 20
123.32718
 30
 0
 11
22.84470
 21
123.28682
  0
LINE
  8
Engraving
 62
   7
 39
0.400
  6
CONTINUOUS
 10
22.84470
 20
123.28682
 30
 0
 11
23.08687
 21
123.28682
  0
LINE
  8
Engraving
 62
   7
 39
0.400
  6
CONTINUOUS
 10
23.08687
 20
123.28682
 30
 0
 11
23.22814
 21
123.30700
  0
LINE
  8
Engraving
 62
   7
 39
0.400
  6
CONTINUOUS
 10
23.22814
 20
123.30700
 30
 0
 11
23.40977
 21
123.40791
  0
LINE
  8
Engraving
 62
   7
 39
0.400
  6
CONTINUOUS
 10
23.40977
 20
123.40791
 30
 0
 11
23.53086
 21
123.56935
  0
LINE
  8
Engraving
 62
   7
 39
0.400
  6
CONTINUOUS
 10
23.53086
 20
123.56935
 30
 0
 11
23.57122
 21
123.77117
  0
LINE
  8
Engraving
 62
   7
 39
0.400
  6
CONTINUOUS
 10
23.57122
 20
123.77117
 30
 0
 11
23.57122
 21
123.91243
  0
LINE
  8
Engraving
 62
   7
 39
0.400
  6
CONTINUOUS
 10
23.57122
 20
123.91243
 30
 0
 11
23.53086
 21
124.05370
  0
LINE
  8
Engraving
 62
   7
 39
0.400
  6
CONTINUOUS
 10
23.53086
 20
124.05370
 30
 0
 11
23.45013
 21
124.21515
  0
LINE
  8
Engraving
 62
   7
 39
0.400
  6
CONTINUOUS
 10
23.45013
 20
124.21515
 30
 0
 11
23.36941
 21
124.29587
  0
LINE
  8
Engraving
 62
   7
 39
0.400
  6
CONTINUOUS
 10
23.36941
 20
124.29587
 30
 0
 11
23.24832
 21
124.39678
  0
LINE
  8
Engraving
 62
   7
 39
0.400
  6
CONTINUOUS
 10
23.24832
 20
124.39678
 30
 0
 11
22.66307
 21
124.92149
  0
LINE
  8
Engraving
 62
   7
 39
0.400
  6
CONTINUOUS
 10
22.66307
 20
124.92149
 30
 0
 11
22.56217
 21
125.00221
  0
LINE
  8
Engraving
 62
   7
 39
0.400
  6
CONTINUOUS
 10
22.56217
 20
125.00221
 30
 0
 11
22.46126
 21
125.12330
  0
LINE
  8
Engraving
 62
   7
 39
0.400
  6
CONTINUOUS
 10
22.46126
 20
125.12330
 30
 0
 11
22.42090
 21
125.18384
  0
LINE
  8
Engraving
 62
   7
 39
0.400
  6
CONTINUOUS
 10
22.42090
 20
125.18384
 30
 0
 11
22.40072
 21
125.28475
  0
LINE
  8
Engraving
 62
   7
 39
0.400
  6
CONTINUOUS
 10
22.40072
 20
125.28475
 30
 0
 11
22.40072
 21
125.46638
  0
LINE
  8
Engraving
 62
   7
 39
0.400
  6
CONTINUOUS
 10
22.40072
 20
125.46638
 30
 0
 11
22.46126
 21
125.64801
  0
LINE
  8
Engraving
 62
   7
 39
0.400
  6
CONTINUOUS
 10
22.46126
 20
125.64801
 30
 0
 11
22.54198
 21
125.76909
  0
LINE
  8
Engraving
 62
   7
 39
0.400
  6
CONTINUOUS
 10
22.54198
 20
125.76909
 30
 0
 11
22.66307
 21
125.84982
  0
LINE
  8
Engraving
 62
   7
 39
0.400
  6
CONTINUOUS
 10
22.66307
 20
125.84982
 30
 0
 11
22.86488
 21
125.89018
  0
LINE
  8
Engraving
 62
   7
 39
0.400
  6
CONTINUOUS
 10
22.86488
 20
125.89018
 30
 0
 11
23.06669
 21
125.89018
  0
LINE
  8
Engraving
 62
   7
 39
0.400
  6
CONTINUOUS
 10
23.06669
 20
125.89018
 30
 0
 11
23.18778
 21
125.87000
  0
LINE
  8
Engraving
 62
   7
 39
0.400
  6
CONTINUOUS
 10
23.18778
 20
125.87000
 30
 0
 11
23.32905
 21
125.80946
  0
LINE
  8
Engraving
 62
   7
 39
0.400
  6
CONTINUOUS
 10
23.32905
 20
125.80946
 30
 0
 11
23.42995
 21
125.70855
  0
LINE
  8
Engraving
 62
   7
 39
0.400
  6
CONTINUOUS
 10
23.42995
 20
125.70855
 30
 0
 11
23.51068
 21
125.56728
  0
LINE
  8
Engraving
 62
   7
 39
0.400
  6
CONTINUOUS
 10
23.51068
 20
125.56728
 30
 0
 11
23.53086
 21
125.42602
  0
LINE
  8
Engraving
 62
   7
 39
0.400
  6
CONTINUOUS
 10
23.53086
 20
125.42602
 30
 0
 11
23.53086
 21
125.24439
  0
LINE
  8
Engraving
 62
   7
 39
0.400
  6
CONTINUOUS
 10
24.09635
 20
124.11424
 30
 0
 11
24.09635
 21
123.77117
  0
LINE
  8
Engraving
 62
   7
 39
0.400
  6
CONTINUOUS
 10
24.09635
 20
123.77117
 30
 0
 11
24.13672
 21
123.58954
  0
LINE
  8
Engraving
 62
   7
 39
0.400
  6
CONTINUOUS
 10
24.13672
 20
123.58954
 30
 0
 11
24.23762
 21
123.42809
  0
LINE
  8
Engraving
 62
   7
 39
0.400
  6
CONTINUOUS
 10
24.23762
 20
123.42809
 30
 0
 11
24.37889
 21
123.32718
  0
LINE
  8
Engraving
 62
   7
 39
0.400
  6
CONTINUOUS
 10
24.37889
 20
123.32718
 30
 0
 11
24.58070
 21
123.28682
  0
LINE
  8
Engraving
 62
   7
 39
0.400
  6
CONTINUOUS
 10
24.58070
 20
123.28682
 30
 0
 11
24.82287
 21
123.28682
  0
LINE
  8
Engraving
 62
   7
 39
0.400
  6
CONTINUOUS
 10
24.82287
 20
123.28682
 30
 0
 11
24.96414
 21
123.30700
  0
LINE
  8
Engraving
 62
   7
 39
0.400
  6
CONTINUOUS
 10
24.96414
 20
123.30700
 30
 0
 11
25.14577
 21
123.40791
  0
LINE
  8
Engraving
 62
   7
 39
0.400
  6
CONTINUOUS
 10
25.14577
 20
123.40791
 30
 0
 11
25.26686
 21
123.56935
  0
LINE
  8
Engraving
 62
   7
 39
0.400
  6
CONTINUOUS
 10
25.26686
 20
123.56935
 30
 0
 11
25.30722
 21
123.77117
  0
LINE
  8
Engraving
 62
   7
 39
0.400
  6
CONTINUOUS
 10
25.30722
 20
123.77117
 30
 0
 11
25.30722
 21
123.91243
  0
LINE
  8
Engraving
 62
   7
 39
0.400
  6
CONTINUOUS
 10
25.30722
 20
123.91243
 30
 0
 11
25.26686
 21
124.05370
  0
LINE
  8
Engraving
 62
   7
 39
0.400
  6
CONTINUOUS
 10
25.26686
 20
124.05370
 30
 0
 11
25.18613
 21
124.21515
  0
LINE
  8
Engraving
 62
   7
 39
0.400
  6
CONTINUOUS
 10
25.18613
 20
124.21515
 30
 0
 11
25.10541
 21
124.29587
  0
LINE
  8
Engraving
 62
   7
 39
0.400
  6
CONTINUOUS
 10
25.10541
 20
124.29587
 30
 0
 11
24.98432
 21
124.39678
  0
LINE
  8
Engraving
 62
   7
 39
0.400
  6
CONTINUOUS
 10
24.98432
 20
124.39678
 30
 0
 11
24.39907
 21
124.92149
  0
LINE
  8
Engraving
 62
   7
 39
0.400
  6
CONTINUOUS
 10
24.39907
 20
124.92149
 30
 0
 11
24.29817
 21
125.00221
  0
LINE
  8
Engraving
 62
   7
 39
0.400
  6
CONTINUOUS
 10
24.29817
 20
125.00221
 30
 0
 11
24.19726
 21
125.12330
  0
LINE
  8
Engraving
 62
   7
 39
0.400
  6
CONTINUOUS
 10
24.19726
 20
125.12330
 30
 0
 11
24.15690
 21
125.18384
  0
LINE
  8
Engraving
 62
   7
 39
0.400
  6
CONTINUOUS
 10
24.15690
 20
125.18384
 30
 0
 11
24.13672
 21
125.28475
  0
LINE
  8
Engraving
 62
   7
 39
0.400
  6
CONTINUOUS
 10
24.13672
 20
125.28475
 30
 0
 11
24.13672
 21
125.46638
  0
LINE
  8
Engraving
 62
   7
 39
0.400
  6
CONTINUOUS
 10
24.13672
 20
125.46638
 30
 0
 11
24.19726
 21
125.64801
  0
LINE
  8
Engraving
 62
   7
 39
0.400
  6
CONTINUOUS
 10
24.19726
 20
125.64801
 30
 0
 11
24.27798
 21
125.76909
  0
LINE
  8
Engraving
 62
   7
 39
0.400
  6
CONTINUOUS
 10
24.27798
 20
125.76909
 30
 0
 11
24.39907
 21
125.84982
  0
LINE
  8
Engraving
 62
   7
 39
0.400
  6
CONTINUOUS
 10
24.39907
 20
125.84982
 30
 0
 11
24.60088
 21
125.89018
  0
LINE
  8
Engraving
 62
   7
 39
0.400
  6
CONTINUOUS
 10
24.60088
 20
125.89018
 30
 0
 11
24.80269
 21
125.89018
  0
LINE
  8
Engraving
 62
   7
 39
0.400
  6
CONTINUOUS
 10
24.80269
 20
125.89018
 30
 0
 11
24.92378
 21
125.87000
  0
LINE
  8
Engraving
 62
   7
 39
0.400
  6
CONTINUOUS
 10
24.92378
 20
125.87000
 30
 0
 11
25.06505
 21
125.80946
  0
LINE
  8
Engraving
 62
   7
 39
0.400
  6
CONTINUOUS
 10
25.06505
 20
125.80946
 30
 0
 11
25.16595
 21
125.70855
  0
LINE
  8
Engraving
 62
   7
 39
0.400
  6
CONTINUOUS
 10
25.16595
 20
125.70855
 30
 0
 11
25.24668
 21
125.56728
  0
LINE
  8
Engraving
 62
   7
 39
0.400
  6
CONTINUOUS
 10
25.24668
 20
125.56728
 30
 0
 11
25.26686
 21
125.42602
  0
LINE
  8
Engraving
 62
   7
 39
0.400
  6
CONTINUOUS
 10
25.26686
 20
125.42602
 30
 0
 11
25.26686
 21
125.24439
  0
LINE
  8
Engraving
 62
   7
 39
0.400
  6
CONTINUOUS
 10
25.83235
 20
125.87000
 30
 0
 11
25.83235
 21
123.30700
  0
LINE
  8
Engraving
 62
   7
 39
0.400
  6
CONTINUOUS
 10
26.35735
 20
125.87000
 30
 0
 11
27.08387
 21
123.30700
  0
LINE
  8
Engraving
 62
   7
 39
0.400
  6
CONTINUOUS
 10
27.08387
 20
123.30700
 30
 0
 11
27.81039
 21
125.87000
  0
LINE
  8
Engraving
 62
   7
 39
0.400
  6
CONTINUOUS
 10
29.36459
 20
125.87000
 30
 0
 11
28.31517
 21
125.87000
  0
LINE
  8
Engraving
 62
   7
 39
0.400
  6
CONTINUOUS
 10
28.31517
 20
125.87000
 30
 0
 11
28.31517
 21
123.30700
  0
LINE
  8
Engraving
 62
   7
 39
0.400
  6
CONTINUOUS
 10
28.31517
 20
123.30700
 30
 0
 11
29.38477
 21
123.30700
  0
LINE
  8
Engraving
 62
   7
 39
0.400
  6
CONTINUOUS
 10
29.32423
 20
124.61877
 30
 0
 11
28.31517
 21
124.61877
  0
LINE
  8
Engraving
 62
   7
 39
0.400
  6
CONTINUOUS
 10
31.90817
 20
123.30700
 30
 0
 11
31.90817
 21
125.87000
  0
LINE
  8
Engraving
 62
   7
 39
0.400
  6
CONTINUOUS
 10
31.90817
 20
125.87000
 30
 0
 11
32.08980
 21
125.87000
  0
LINE
  8
Engraving
 62
   7
 39
0.400
  6
CONTINUOUS
 10
32.08980
 20
125.87000
 30
 0
 11
32.83650
 21
123.30700
  0
LINE
  8
Engraving
 62
   7
 39
0.400
  6
CONTINUOUS
 10
32.83650
 20
123.30700
 30
 0
 11
33.56302
 21
125.87000
  0
LINE
  8
Engraving
 62
   7
 39
0.400
  6
CONTINUOUS
 10
33.56302
 20
125.87000
 30
 0
 11
33.74465
 21
125.87000
  0
LINE
  8
Engraving
 62
   7
 39
0.400
  6
CONTINUOUS
 10
33.74465
 20
125.87000
 30
 0
 11
33.74465
 21
123.30700
  0
LINE
  8
Engraving
 62
   7
 39
0.400
  6
CONTINUOUS
 10
34.26935
 20
123.30700
 30
 0
 11
34.99587
 21
125.87000
  0
LINE
  8
Engraving
 62
   7
 39
0.400
  6
CONTINUOUS
 10
34.99587
 20
125.87000
 30
 0
 11
35.07660
 21
125.87000
  0
LINE
  8
Engraving
 62
   7
 39
0.400
  6
CONTINUOUS
 10
35.07660
 20
125.87000
 30
 0
 11
35.80312
 21
123.30700
  0
LINE
  8
Engraving
 62
   7
 39
0.400
  6
CONTINUOUS
 10
34.49135
 20
124.09406
 30
 0
 11
35.58113
 21
124.09406
  0
LINE
  8
Engraving
 62
   7
 39
0.400
  6
CONTINUOUS
 10
36.99333
 20
123.30700
 30
 0
 11
36.99333
 21
125.87000
  0
LINE
  8
Engraving
 62
   7
 39
0.400
  6
CONTINUOUS
 10
36.30717
 20
125.87000
 30
 0
 11
37.69967
 21
125.87000
  0
LINE
  8
Engraving
 62
   7
 39
0.400
  6
CONTINUOUS
 10
38.97106
 20
124.61877
 30
 0
 11
39.15269
 21
124.61877
  0
LINE
  8
Engraving
 62
   7
 39
0.400
  6
CONTINUOUS
 10
39.15269
 20
124.61877
 30
 0
 11
39.31413
 21
124.51787
  0
LINE
  8
Engraving
 62
   7
 39
0.400
  6
CONTINUOUS
 10
39.31413
 20
124.51787
 30
 0
 11
39.41504
 21
124.37660
  0
LINE
  8
Engraving
 62
   7
 39
0.400
  6
CONTINUOUS
 10
39.41504
 20
124.37660
 30
 0
 11
39.43522
 21
124.23533
  0
LINE
  8
Engraving
 62
   7
 39
0.400
  6
CONTINUOUS
 10
39.43522
 20
124.23533
 30
 0
 11
39.43522
 21
123.60972
  0
LINE
  8
Engraving
 62
   7
 39
0.400
  6
CONTINUOUS
 10
39.43522
 20
123.60972
 30
 0
 11
39.45540
 21
123.46845
  0
LINE
  8
Engraving
 62
   7
 39
0.400
  6
CONTINUOUS
 10
39.45540
 20
123.46845
 30
 0
 11
39.47558
 21
123.30700
  0
LINE
  8
Engraving
 62
   7
 39
0.400
  6
CONTINUOUS
 10
38.22435
 20
123.30700
 30
 0
 11
38.22435
 21
125.87000
  0
LINE
  8
Engraving
 62
   7
 39
0.400
  6
CONTINUOUS
 10
38.22435
 20
125.87000
 30
 0
 11
38.95087
 21
125.87000
  0
LINE
  8
Engraving
 62
   7
 39
0.400
  6
CONTINUOUS
 10
38.95087
 20
125.87000
 30
 0
 11
39.17287
 21
125.80946
  0
LINE
  8
Engraving
 62
   7
 39
0.400
  6
CONTINUOUS
 10
39.17287
 20
125.80946
 30
 0
 11
39.31413
 21
125.70855
  0
LINE
  8
Engraving
 62
   7
 39
0.400
  6
CONTINUOUS
 10
39.31413
 20
125.70855
 30
 0
 11
39.41504
 21
125.56728
  0
LINE
  8
Engraving
 62
   7
 39
0.400
  6
CONTINUOUS
 10
39.41504
 20
125.56728
 30
 0
 11
39.43522
 21
125.38565
  0
LINE
  8
Engraving
 62
   7
 39
0.400
  6
CONTINUOUS
 10
39.43522
 20
125.38565
 30
 0
 11
39.43522
 21
125.10312
  0
LINE
  8
Engraving
 62
   7
 39
0.400
  6
CONTINUOUS
 10
39.43522
 20
125.10312
 30
 0
 11
39.41504
 21
124.94167
  0
LINE
  8
Engraving
 62
   7
 39
0.400
  6
CONTINUOUS
 10
39.41504
 20
124.94167
 30
 0
 11
39.31413
 21
124.78022
  0
LINE
  8
Engraving
 62
   7
 39
0.400
  6
CONTINUOUS
 10
39.31413
 20
124.78022
 30
 0
 11
39.19305
 21
124.67931
  0
LINE
  8
Engraving
 62
   7
 39
0.400
  6
CONTINUOUS
 10
39.19305
 20
124.67931
 30
 0
 11
38.97106
 21
124.61877
  0
LINE
  8
Engraving
 62
   7
 39
0.400
  6
CONTINUOUS
 10
38.97106
 20
124.61877
 30
 0
 11
38.22435
 21
124.61877
  0
LINE
  8
Engraving
 62
   7
 39
0.400
  6
CONTINUOUS
 10
39.99935
 20
125.87000
 30
 0
 11
39.99935
 21
123.30700
  0
LINE
  8
Engraving
 62
   7
 39
0.400
  6
CONTINUOUS
 10
40.56372
 20
125.87000
 30
 0
 11
42.05712
 21
123.30700
  0
LINE
  8
Engraving
 62
   7
 39
0.400
  6
CONTINUOUS
 10
40.50317
 20
123.30700
 30
 0
 11
41.99657
 21
125.87000
  0
LINE
  8
Engraving
 62
   7
 39
0.400
  6
CONTINUOUS
 10
9.73835
 20
15.77747
 30
 0
 11
10.00071
 21
15.95910
  0
LINE
  8
Engraving
 62
   7
 39
0.400
  6
CONTINUOUS
 10
10.00071
 20
15.95910
 30
 0
 11
10.26306
 21
16.28200
  0
LINE
  8
Engraving
 62
   7
 39
0.400
  6
CONTINUOUS
 10
10.26306
 20
16.28200
 30
 0
 11
10.26306
 21
13.71900
  0
ARC
  8
Engraving
 62
   7
 39
0.400
  6
CONTINUOUS
 10
23.34764
 20
15.73006
 30
 0
 40
0.58860
 50
103.59010
 51
197.25422
  0
ARC
  8
Engraving
 62
   7
 39
0.400
  6
CONTINUOUS
 10
23.36663
 20
15.77203
 30
 0
 40
0.55300
 50
6.85332
 51
106.52541
  0
ARC
  8
Engraving
 62
   7
 39
0.400
  6
CONTINUOUS
 10
22.69317
 20
15.65672
 30
 0
 40
1.23587
 50
-32.62504
 51
8.43552
  0
ARC
  8
Engraving
 62
   7
 39
0.400
  6
CONTINUOUS
 10
21.20491
 20
16.50927
 30
 0
 40
2.95016
 50
312.79903
 51
329.01325
  0
LINE
  8
Engraving
 62
   7
 39
0.400
  6
CONTINUOUS
 10
23.20934
 20
14.34461
 30
 0
 11
22.74517
 21
13.86027
  0
LINE
  8
Engraving
 62
   7
 39
0.400
  6
CONTINUOUS
 10
22.74517
 20
13.86027
 30
 0
 11
22.74517
 21
13.71900
  0
LINE
  8
Engraving
 62
   7
 39
0.400
  6
CONTINUOUS
 10
22.74517
 20
13.71900
 30
 0
 11
23.93586
 21
13.71900
  0
LINE
  8
Engraving
 62
   7
 39
0.400
  6
CONTINUOUS
 10
23.93586
 20
13.71900
 30
 0
 11
22.74517
 21
13.71900
  0
LINE
  8
Engraving
 62
   7
 39
0.400
  6
CONTINUOUS
 10
36.10517
 20
14.46570
 30
 0
 11
36.10517
 21
14.22353
  0
LINE
  8
Engraving
 62
   7
 39
0.400
  6
CONTINUOUS
 10
36.10517
 20
14.22353
 30
 0
 11
36.14554
 21
14.02172
  0
LINE
  8
Engraving
 62
   7
 39
0.400
  6
CONTINUOUS
 10
36.14554
 20
14.02172
 30
 0
 11
36.24644
 21
13.88045
  0
LINE
  8
Engraving
 62
   7
 39
0.400
  6
CONTINUOUS
 10
36.24644
 20
13.88045
 30
 0
 11
36.36753
 21
13.77954
  0
LINE
  8
Engraving
 62
   7
 39
0.400
  6
CONTINUOUS
 10
36.36753
 20
13.77954
 30
 0
 11
36.56934
 21
13.71900
  0
LINE
  8
Engraving
 62
   7
 39
0.400
  6
CONTINUOUS
 10
36.56934
 20
13.71900
 30
 0
 11
36.67024
 21
13.69882
  0
LINE
  8
Engraving
 62
   7
 39
0.400
  6
CONTINUOUS
 10
36.67024
 20
13.69882
 30
 0
 11
36.85187
 21
13.71900
  0
LINE
  8
Engraving
 62
   7
 39
0.400
  6
CONTINUOUS
 10
36.85187
 20
13.71900
 30
 0
 11
36.99314
 21
13.77954
  0
LINE
  8
Engraving
 62
   7
 39
0.400
  6
CONTINUOUS
 10
36.99314
 20
13.77954
 30
 0
 11
37.11423
 21
13.88045
  0
LINE
  8
Engraving
 62
   7
 39
0.400
  6
CONTINUOUS
 10
37.11423
 20
13.88045
 30
 0
 11
37.21513
 21
14.02172
  0
LINE
  8
Engraving
 62
   7
 39
0.400
  6
CONTINUOUS
 10
37.21513
 20
14.02172
 30
 0
 11
37.25550
 21
14.22353
  0
LINE
  8
Engraving
 62
   7
 39
0.400
  6
CONTINUOUS
 10
37.25550
 20
14.22353
 30
 0
 11
37.25550
 21
14.68769
  0
LINE
  8
Engraving
 62
   7
 39
0.400
  6
CONTINUOUS
 10
37.25550
 20
14.68769
 30
 0
 11
37.21513
 21
14.86932
  0
LINE
  8
Engraving
 62
   7
 39
0.400
  6
CONTINUOUS
 10
37.21513
 20
14.86932
 30
 0
 11
37.11423
 21
15.01059
  0
LINE
  8
Engraving
 62
   7
 39
0.400
  6
CONTINUOUS
 10
37.11423
 20
15.01059
 30
 0
 11
36.93260
 21
15.09131
  0
LINE
  8
Engraving
 62
   7
 39
0.400
  6
CONTINUOUS
 10
36.93260
 20
15.09131
 30
 0
 11
36.44825
 21
15.09131
  0
LINE
  8
Engraving
 62
   7
 39
0.400
  6
CONTINUOUS
 10
36.44825
 20
15.09131
 30
 0
 11
36.93260
 21
15.09131
  0
LINE
  8
Engraving
 62
   7
 39
0.400
  6
CONTINUOUS
 10
36.93260
 20
15.09131
 30
 0
 11
37.09405
 21
15.21240
  0
LINE
  8
Engraving
 62
   7
 39
0.400
  6
CONTINUOUS
 10
37.09405
 20
15.21240
 30
 0
 11
37.19495
 21
15.31331
  0
LINE
  8
Engraving
 62
   7
 39
0.400
  6
CONTINUOUS
 10
37.19495
 20
15.31331
 30
 0
 11
37.21513
 21
15.45457
  0
LINE
  8
Engraving
 62
   7
 39
0.400
  6
CONTINUOUS
 10
37.21513
 20
15.45457
 30
 0
 11
37.21513
 21
15.83802
  0
LINE
  8
Engraving
 62
   7
 39
0.400
  6
CONTINUOUS
 10
37.21513
 20
15.83802
 30
 0
 11
37.19495
 21
15.99946
  0
LINE
  8
Engraving
 62
   7
 39
0.400
  6
CONTINUOUS
 10
37.19495
 20
15.99946
 30
 0
 11
37.11423
 21
16.14073
  0
LINE
  8
Engraving
 62
   7
 39
0.400
  6
CONTINUOUS
 10
37.11423
 20
16.14073
 30
 0
 11
36.99314
 21
16.26182
  0
LINE
  8
Engraving
 62
   7
 39
0.400
  6
CONTINUOUS
 10
36.99314
 20
16.26182
 30
 0
 11
36.85187
 21
16.30218
  0
LINE
  8
Engraving
 62
   7
 39
0.400
  6
CONTINUOUS
 10
36.85187
 20
16.30218
 30
 0
 11
36.73079
 21
16.32236
  0
LINE
  8
Engraving
 62
   7
 39
0.400
  6
CONTINUOUS
 10
36.73079
 20
16.32236
 30
 0
 11
36.62988
 21
16.32236
  0
LINE
  8
Engraving
 62
   7
 39
0.400
  6
CONTINUOUS
 10
36.62988
 20
16.32236
 30
 0
 11
36.46843
 21
16.30218
  0
LINE
  8
Engraving
 62
   7
 39
0.400
  6
CONTINUOUS
 10
36.46843
 20
16.30218
 30
 0
 11
36.32717
 21
16.22146
  0
LINE
  8
Engraving
 62
   7
 39
0.400
  6
CONTINUOUS
 10
36.32717
 20
16.22146
 30
 0
 11
36.22626
 21
16.12055
  0
LINE
  8
Engraving
 62
   7
 39
0.400
  6
CONTINUOUS
 10
36.22626
 20
16.12055
 30
 0
 11
36.16572
 21
15.97928
  0
LINE
  8
Engraving
 62
   7
 39
0.400
  6
CONTINUOUS
 10
36.16572
 20
15.97928
 30
 0
 11
36.12535
 21
15.83802
  0
LINE
  8
Engraving
 62
   7
 39
0.400
  6
CONTINUOUS
 10
36.12535
 20
15.83802
 30
 0
 11
36.12535
 21
15.59584
  0
LINE
  8
Engraving
 62
   7
 39
0.400
  6
CONTINUOUS
 10
50.29350
 20
13.71900
 30
 0
 11
50.29350
 21
16.28200
  0
LINE
  8
Engraving
 62
   7
 39
0.400
  6
CONTINUOUS
 10
50.29350
 20
16.28200
 30
 0
 11
50.19260
 21
16.28200
  0
LINE
  8
Engraving
 62
   7
 39
0.400
  6
CONTINUOUS
 10
50.19260
 20
16.28200
 30
 0
 11
49.36517
 21
14.48588
  0
LINE
  8
Engraving
 62
   7
 39
0.400
  6
CONTINUOUS
 10
49.36517
 20
14.48588
 30
 0
 11
50.67694
 21
14.48588
  0
CIRCLE
  8
Contour
 62
   7
 39
0.100
  6
CONTINUOUS
 10
7.50000
 20
125.50000
 30
 0
 40
1.50000
  0
CIRCLE
  8
Contour
 62
   7
 39
0.100
  6
CONTINUOUS
 10
7.50000
 20
3.00000
 30
 0
 40
1.50000
  0
CIRCLE
  8
Contour
 62
   7
 39
0.100
  6
CONTINUOUS
 10
48.14000
 20
125.50000
 30
 0
 40
1.50000
  0
CIRCLE
  8
Contour
 62
   7
 39
0.100
  6
CONTINUOUS
 10
48.14000
 20
3.00000
 30
 0
 40
1.50000
  0
CIRCLE
  8
Contour
 62
   7
 39
0.100
  6
CONTINUOUS
 10
10.00000
 20
105.65000
 30
 0
 40
3.00000
  0
CIRCLE
  8
Contour
 62
   7
 39
0.100
  6
CONTINUOUS
 10
23.34000
 20
105.65000
 30
 0
 40
3.00000
  0
CIRCLE
  8
Contour
 62
   7
 39
0.100
  6
CONTINUOUS
 10
36.68000
 20
105.65000
 30
 0
 40
3.00000
  0
CIRCLE
  8
Contour
 62
   7
 39
0.100
  6
CONTINUOUS
 10
50.02000
 20
105.65000
 30
 0
 40
3.00000
  0
CIRCLE
  8
Contour
 62
   7
 39
0.100
  6
CONTINUOUS
 10
10.00000
 20
23.09500
 30
 0
 40
3.00000
  0
CIRCLE
  8
Contour
 62
   7
 39
0.100
  6
CONTINUOUS
 10
23.34000
 20
23.09500
 30
 0
 40
3.00000
  0
CIRCLE
  8
Contour
 62
   7
 39
0.100
  6
CONTINUOUS
 10
36.68000
 20
23.09500
 30
 0
 40
3.00000
  0
CIRCLE
  8
Contour
 62
   7
 39
0.100
  6
CONTINUOUS
 10
50.02000
 20
23.09500
 30
 0
 40
3.00000
  0
CIRCLE
  8
Contour
 62
   7
 39
0.100
  6
CONTINUOUS
 10
10.00000
 20
92.31500
 30
 0
 40
3.50000
  0
CIRCLE
  8
Contour
 62
   7
 39
0.100
  6
CONTINUOUS
 10
23.34000
 20
92.31500
 30
 0
 40
3.50000
  0
CIRCLE
  8
Contour
 62
   7
 39
0.100
  6
CONTINUOUS
 10
36.68000
 20
92.31500
 30
 0
 40
3.50000
  0
CIRCLE
  8
Contour
 62
   7
 39
0.100
  6
CONTINUOUS
 10
50.02000
 20
92.31500
 30
 0
 40
3.50000
  0
CIRCLE
  8
Contour
 62
   7
 39
0.100
  6
CONTINUOUS
 10
10.00000
 20
77.07000
 30
 0
 40
3.50000
  0
CIRCLE
  8
Contour
 62
   7
 39
0.100
  6
CONTINUOUS
 10
23.34000
 20
77.07000
 30
 0
 40
3.50000
  0
CIRCLE
  8
Contour
 62
   7
 39
0.100
  6
CONTINUOUS
 10
36.68000
 20
77.07000
 30
 0
 40
3.50000
  0
CIRCLE
  8
Contour
 62
   7
 39
0.100
  6
CONTINUOUS
 10
50.02000
 20
77.07000
 30
 0
 40
3.50000
  0
CIRCLE
  8
Contour
 62
   7
 39
0.100
  6
CONTINUOUS
 10
10.00000
 20
61.83500
 30
 0
 40
3.50000
  0
CIRCLE
  8
Contour
 62
   7
 39
0.100
  6
CONTINUOUS
 10
23.34000
 20
61.83500
 30
 0
 40
3.50000
  0
CIRCLE
  8
Contour
 62
   7
 39
0.100
  6
CONTINUOUS
 10
36.68000
 20
61.83500
 30
 0
 40
3.50000
  0
CIRCLE
  8
Contour
 62
   7
 39
0.100
  6
CONTINUOUS
 10
50.02000
 20
61.83500
 30
 0
 40
3.50000
  0
CIRCLE
  8
Contour
 62
   7
 39
0.100
  6
CONTINUOUS
 10
10.00000
 20
46.59500
 30
 0
 40
3.50000
  0
CIRCLE
  8
Contour
 62
   7
 39
0.100
  6
CONTINUOUS
 10
23.34000
 20
46.59500
 30
 0
 40
3.50000
  0
CIRCLE
  8
Contour
 62
   7
 39
0.100
  6
CONTINUOUS
 10
36.68000
 20
46.59500
 30
 0
 40
3.50000
  0
CIRCLE
  8
Contour
 62
   7
 39
0.100
  6
CONTINUOUS
 10
50.02000
 20
46.59500
 30
 0
 40
3.50000
  0
ENDSEC
  0
EOF
